<?xml version="1.0" encoding="UTF-8" standalone="no"?>
<!-- Created with Inkscape (http://www.inkscape.org/) -->

<svg
   width="512"
   height="512"
   viewBox="0 0 135.46667 135.46667"
   version="1.1"
   id="svg8"
   inkscape:version="1.1.2 (0a00cf5339, 2022-02-04)"
   sodipodi:docname="icon.svg"
   inkscape:export-filename="/home/lietk12/Projects/Planktoscope/device-portal/web/static/apple-touch-icon.png"
   inkscape:export-xdpi="33.749996"
   inkscape:export-ydpi="33.749996"
   xmlns:inkscape="http://www.inkscape.org/namespaces/inkscape"
   xmlns:sodipodi="http://sodipodi.sourceforge.net/DTD/sodipodi-0.dtd"
   xmlns="http://www.w3.org/2000/svg"
   xmlns:svg="http://www.w3.org/2000/svg"
   xmlns:rdf="http://www.w3.org/1999/02/22-rdf-syntax-ns#"
   xmlns:cc="http://creativecommons.org/ns#"
   xmlns:dc="http://purl.org/dc/elements/1.1/">
  <defs
     id="defs2" />
  <sodipodi:namedview
     id="base"
     pagecolor="#ffffff"
     bordercolor="#666666"
     borderopacity="1.0"
     inkscape:pageopacity="0.0"
     inkscape:pageshadow="2"
     inkscape:zoom="0.98994949"
     inkscape:cx="160.61426"
     inkscape:cy="357.08893"
     inkscape:document-units="mm"
     inkscape:current-layer="layer1"
     showgrid="false"
     fit-margin-top="0"
     fit-margin-left="0"
     fit-margin-right="0"
     fit-margin-bottom="0"
     units="px"
     inkscape:window-width="1280"
     inkscape:window-height="1363"
     inkscape:window-x="1280"
     inkscape:window-y="0"
     inkscape:window-maximized="0"
     inkscape:pagecheckerboard="true"
     inkscape:snap-page="true" />
  <metadata
     id="metadata5">
    <rdf:RDF>
      <cc:Work
         rdf:about="">
        <dc:format>image/svg+xml</dc:format>
        <dc:type
           rdf:resource="http://purl.org/dc/dcmitype/StillImage" />
        <dc:title />
      </cc:Work>
    </rdf:RDF>
  </metadata>
  <g
     inkscape:label="Layer 1"
     inkscape:groupmode="layer"
     id="layer1"
     transform="translate(-56.624389,-71.01029)">
    <circle
       style="fill:#fffff1;fill-opacity:1;stroke:#ff0000;stroke-width:0.0166151;stroke-miterlimit:4;stroke-dasharray:none;stroke-opacity:1"
       id="path947"
       cx="124.35772"
       cy="138.74362"
       r="61.577827" />
    <path
       style="fill:#8e7dc4;stroke-width:0.2176854;fill-opacity:1"
       d="M 119.56413,206.30459 C 105.56268,205.3043 92.208717,199.94795 81.133704,190.88995 62.905148,175.98121 53.779091,151.89958 57.410535,128.28982 60.301394,109.49497 71.132147,92.675763 87.120766,82.15246 105.39839,70.12259 128.47834,67.66939 148.80764,75.595676 c 15.85485,6.181719 28.49301,17.673312 36.08027,32.806994 9.6071,19.16249 9.60413,41.50737 -0.009,60.68499 -12.26527,24.47077 -38.05299,39.16464 -65.3157,37.21693 z M 99.309824,181.07672 c 0.424909,-0.68736 -1.958972,-2.35669 -5.766573,-4.03811 -6.900947,-3.04741 -10.482283,-5.19641 -13.107049,-7.86493 -4.87598,-4.95727 -7.624581,-10.41104 -7.934798,-15.7442 -0.136137,-2.34047 0.305466,-4.9925 0.952857,-5.72236 0.746273,-0.84133 2.221112,-1.30683 4.488561,-1.4167 2.744078,-0.13298 4.193389,0.18451 5.536626,1.21283 0.56583,0.43318 1.371677,0.91106 1.790771,1.06194 0.981637,0.35343 2.809312,0.3632 3.397281,0.0182 4.170811,-2.44751 14.92004,-6.68984 16.95071,-6.68984 0.41182,0 1.29148,-0.14131 1.95481,-0.31406 4.45923,-1.1612 13.20629,-1.32533 42.24861,-0.79283 22.52606,0.41305 29.3809,0.42574 30.42449,0.0563 1.40025,-0.49561 1.93449,-1.81477 0.98037,-2.42074 -0.38699,-0.24577 -2.11269,-0.34613 -8.2186,-0.47794 -10.15528,-0.21924 -15.81019,-0.4828 -29.7176,-1.3851 -6.34628,-0.41173 -15.01663,-0.9476 -19.26745,-1.1908 -9.02388,-0.51629 -11.714,-0.77367 -13.89302,-1.32926 -3.21842,-0.82058 -4.47718,-1.80125 -8.2646,-6.43872 -2.317819,-2.83805 -6.855096,-7.23066 -9.266431,-8.97102 -1.037182,-0.74857 -1.885787,-1.43867 -1.885787,-1.53354 0,-0.0949 -0.563327,-0.47341 -1.251839,-0.84117 -6.043891,-3.22827 -3.59456,-9.87443 5.214198,-14.1485 2.86331,-1.3893 5.571609,-2.362164 10.704319,-3.845158 6.78334,-1.959914 8.41192,-2.745066 8.00465,-3.859087 -0.32681,-0.893947 -1.01459,-1.082995 -3.51273,-0.965544 -5.52137,0.259591 -15.798308,3.838344 -21.101742,7.348289 -3.684863,2.43873 -7.345455,7.1684 -10.422272,13.46609 -0.848066,1.73584 -2.625387,5.16397 -3.949605,7.61808 -3.740259,6.93163 -5.398355,11.02452 -6.409518,15.82142 -0.298051,1.41394 -0.719808,3.40335 -0.937239,4.4209 -0.555638,2.60037 -0.55456,10.34793 0.0017,13.12747 0.710913,3.5515 2.10017,6.7438 4.522211,10.39134 1.884769,2.83843 6.134607,7.06467 9.028519,8.9784 3.63129,2.40136 9.43421,4.95426 14.023845,6.16957 1.922561,0.50908 4.452379,0.6705 4.682182,0.29875 z"
       id="path880"
       inkscape:connector-curvature="0" />
  </g>
</svg>
