M48
;GenerationSoftware,Autodesk,EAGLE,9.6.2*%
;CreationDate,2022-12-28T05:11:35Z*%
FMAT,2
ICI,OFF
METRIC,TZ,000.000
T10C0.300
T9C0.350
T8C0.700
T7C0.889
T6C0.900
T5C1.016
T4C1.200
T3C2.800
T2C3.000
%
G90
M71
T2
X40000Y11000
X8000Y11000
X8000Y43000
X40000Y43000
T3
X3500Y3500
X3500Y52500
X61500Y52500
X61500Y3500
X61500Y96500
T4
X6150Y94000
X3500Y59460
X9650Y94000
X13150Y94000
X16650Y94000
X26500Y95500
X30000Y95500
X33500Y95500
X37000Y95500
X3500Y62000
X3500Y65360
X3500Y67900
X60500Y60920
X60500Y66000
T5
X46470Y51230
X33770Y51230
X33770Y53770
X36310Y51230
X36310Y53770
X38850Y51230
X38850Y53770
X41390Y51230
X41390Y53770
X43930Y51230
X43930Y53770
X31230Y53770
X46470Y53770
X49010Y51230
X49010Y53770
X51550Y51230
X51550Y53770
X54090Y51230
X54090Y53770
X56630Y51230
X56630Y53770
X18530Y53770
X8370Y53770
X8370Y51230
X22930Y78330
X10910Y51230
X10910Y53770
X13450Y51230
X13450Y53770
X15990Y51230
X15990Y53770
X18530Y51230
X22930Y75790
X21070Y51230
X21070Y53770
X23610Y51230
X23610Y53770
X26150Y51230
X26150Y53770
X28690Y51230
X28690Y53770
X31230Y51230
X12770Y85950
X17850Y73250
X15310Y73250
X12770Y73250
X10230Y73250
X7690Y73250
X5150Y73250
X2610Y73250
X20390Y85950
X17850Y85950
X15310Y85950
X20390Y73250
X10230Y85950
X7690Y85950
X5150Y85950
X2610Y85950
X2610Y75790
X2610Y78330
X40710Y73250
X38170Y73250
X35630Y73250
X30550Y85950
X22930Y85950
X25470Y85950
X28010Y85950
X33090Y73250
X33090Y85950
X35630Y85950
X38170Y85950
X40710Y85950
X22930Y73250
X25470Y73250
X28010Y73250
X30550Y73250
T6
X53750Y39000
X57250Y39000
T7
X63000Y23190
X63000Y25730
X63000Y28270
X63000Y30810
T8
X24000Y91500
X40000Y91500
X38000Y91500
X36000Y91500
X34000Y91500
X30000Y91500
X28000Y91500
X26000Y91500
T9
X49000Y40000
X47250Y44250
X45800Y44300
X51500Y34500
T10
X64319Y57181
X31400Y75900
X35500Y77000
X36952Y75548
X36952Y69687
X33500Y55500
X27321Y55421
X1500Y77000
X26500Y55700
X24000Y67500
X42000Y1500
X19325Y64175
X61500Y63500
X57000Y78200
X54190Y81490
X31300Y78000
X29000Y7500
X21000Y7500
X32000Y3000
X40000Y3500
X62500Y83200
X45000Y60000
X41000Y62000
X40500Y79500
X41500Y78500
X49500Y27500
X42000Y77500
X62000Y82700
X49000Y76500
X42000Y63000
X62500Y80200
X40000Y55500
X39000Y56500
X49500Y95500
X46000Y94500
X42000Y68000
X46000Y66500
X46000Y72500
X52000Y73500
X55000Y80500
X56000Y79500
X47000Y73000
X57500Y77500
X42000Y69500
X46000Y74000
X48000Y72000
X46000Y69500
X46000Y64000
X39500Y80500
X42000Y74500
X42000Y76000
X23000Y80500
X25300Y80500
X24100Y81300
X58900Y85500
X58500Y82200
X59500Y82200
X60500Y82200
X60500Y81200
X58500Y81200
X60500Y80200
X59500Y80200
X58500Y80200
X58500Y83200
X59500Y83200
X59500Y81200
X57500Y82200
X61500Y80200
X61500Y82200
X61500Y81200
X57500Y81200
X49000Y71000
X62500Y81200
X62500Y82200
X63500Y81500
X46000Y79500
X51000Y74500
X56500Y73000
X56500Y75000
X56000Y77500
X55000Y78500
X54000Y79500
X42500Y55500
X31000Y61000
X44000Y59000
X30000Y61000
X46000Y68000
X41500Y60300
X22900Y62600
X21300Y64700
X41500Y59500
X14450Y58000
X40700Y59500
X44500Y89000
X43500Y90000
X41500Y58700
X43500Y89000
X44500Y90000
X42300Y59500
X44000Y89500
X58000Y44000
X53000Y32000
X24129Y80371
X46500Y48000
X54500Y32000
X19000Y61500
X50070Y31970
X20000Y62600
X50215Y32965
X23700Y61500
X17600Y74758
X12400Y71300
X22500Y71300
X22000Y77000
X34274Y74911
X50500Y38500
X43200Y4500
X36100Y78000
X57500Y80200
X39500Y75000
X23000Y66500
X41500Y56500
X46000Y62500
X42000Y66500
X13250Y68150
X9600Y66850
X12300Y68800
X32400Y57000
X32000Y61000
X47000Y78500
X23000Y56500
X24000Y56500
X23500Y57000
X31000Y56500
X29500Y56500
X57000Y81750
X57000Y80700
X39500Y68280
X46000Y71000
X50000Y75500
X48000Y77500
X62000Y81700
X62000Y80700
X24000Y65500
X17000Y66500
X10500Y63450
X10500Y65000
X46500Y35000
X47500Y33500
X53000Y33000
X16500Y8000
X16500Y7000
X50500Y37500
M30