G04 EAGLE Gerber RS-274X export*
G75*
%MOMM*%
%FSLAX34Y34*%
%LPD*%
%INSilkscreen Bottom*%
%IPPOS*%
%AMOC8*
5,1,8,0,0,1.08239X$1,22.5*%
G01*
%ADD10C,3.100000*%
%ADD11C,0.330200*%
%ADD12C,0.431800*%
%ADD13C,0.177800*%
%ADD14C,0.200000*%
%ADD15C,0.152400*%
%ADD16C,0.508000*%
%ADD17C,0.127000*%
%ADD18C,0.101600*%


D10*
X19500Y35000D02*
X19505Y35380D01*
X19519Y35761D01*
X19542Y36140D01*
X19575Y36519D01*
X19617Y36897D01*
X19668Y37274D01*
X19728Y37650D01*
X19798Y38024D01*
X19877Y38396D01*
X19965Y38766D01*
X20061Y39134D01*
X20167Y39499D01*
X20282Y39862D01*
X20406Y40222D01*
X20539Y40578D01*
X20680Y40932D01*
X20830Y41281D01*
X20988Y41627D01*
X21155Y41969D01*
X21330Y42307D01*
X21514Y42640D01*
X21705Y42969D01*
X21905Y43292D01*
X22112Y43611D01*
X22327Y43925D01*
X22550Y44233D01*
X22781Y44536D01*
X23018Y44833D01*
X23263Y45124D01*
X23515Y45409D01*
X23774Y45688D01*
X24040Y45960D01*
X24312Y46226D01*
X24591Y46485D01*
X24876Y46737D01*
X25167Y46982D01*
X25464Y47219D01*
X25767Y47450D01*
X26075Y47673D01*
X26389Y47888D01*
X26708Y48095D01*
X27031Y48295D01*
X27360Y48486D01*
X27693Y48670D01*
X28031Y48845D01*
X28373Y49012D01*
X28719Y49170D01*
X29068Y49320D01*
X29422Y49461D01*
X29778Y49594D01*
X30138Y49718D01*
X30501Y49833D01*
X30866Y49939D01*
X31234Y50035D01*
X31604Y50123D01*
X31976Y50202D01*
X32350Y50272D01*
X32726Y50332D01*
X33103Y50383D01*
X33481Y50425D01*
X33860Y50458D01*
X34239Y50481D01*
X34620Y50495D01*
X35000Y50500D01*
X35380Y50495D01*
X35761Y50481D01*
X36140Y50458D01*
X36519Y50425D01*
X36897Y50383D01*
X37274Y50332D01*
X37650Y50272D01*
X38024Y50202D01*
X38396Y50123D01*
X38766Y50035D01*
X39134Y49939D01*
X39499Y49833D01*
X39862Y49718D01*
X40222Y49594D01*
X40578Y49461D01*
X40932Y49320D01*
X41281Y49170D01*
X41627Y49012D01*
X41969Y48845D01*
X42307Y48670D01*
X42640Y48486D01*
X42969Y48295D01*
X43292Y48095D01*
X43611Y47888D01*
X43925Y47673D01*
X44233Y47450D01*
X44536Y47219D01*
X44833Y46982D01*
X45124Y46737D01*
X45409Y46485D01*
X45688Y46226D01*
X45960Y45960D01*
X46226Y45688D01*
X46485Y45409D01*
X46737Y45124D01*
X46982Y44833D01*
X47219Y44536D01*
X47450Y44233D01*
X47673Y43925D01*
X47888Y43611D01*
X48095Y43292D01*
X48295Y42969D01*
X48486Y42640D01*
X48670Y42307D01*
X48845Y41969D01*
X49012Y41627D01*
X49170Y41281D01*
X49320Y40932D01*
X49461Y40578D01*
X49594Y40222D01*
X49718Y39862D01*
X49833Y39499D01*
X49939Y39134D01*
X50035Y38766D01*
X50123Y38396D01*
X50202Y38024D01*
X50272Y37650D01*
X50332Y37274D01*
X50383Y36897D01*
X50425Y36519D01*
X50458Y36140D01*
X50481Y35761D01*
X50495Y35380D01*
X50500Y35000D01*
X50495Y34620D01*
X50481Y34239D01*
X50458Y33860D01*
X50425Y33481D01*
X50383Y33103D01*
X50332Y32726D01*
X50272Y32350D01*
X50202Y31976D01*
X50123Y31604D01*
X50035Y31234D01*
X49939Y30866D01*
X49833Y30501D01*
X49718Y30138D01*
X49594Y29778D01*
X49461Y29422D01*
X49320Y29068D01*
X49170Y28719D01*
X49012Y28373D01*
X48845Y28031D01*
X48670Y27693D01*
X48486Y27360D01*
X48295Y27031D01*
X48095Y26708D01*
X47888Y26389D01*
X47673Y26075D01*
X47450Y25767D01*
X47219Y25464D01*
X46982Y25167D01*
X46737Y24876D01*
X46485Y24591D01*
X46226Y24312D01*
X45960Y24040D01*
X45688Y23774D01*
X45409Y23515D01*
X45124Y23263D01*
X44833Y23018D01*
X44536Y22781D01*
X44233Y22550D01*
X43925Y22327D01*
X43611Y22112D01*
X43292Y21905D01*
X42969Y21705D01*
X42640Y21514D01*
X42307Y21330D01*
X41969Y21155D01*
X41627Y20988D01*
X41281Y20830D01*
X40932Y20680D01*
X40578Y20539D01*
X40222Y20406D01*
X39862Y20282D01*
X39499Y20167D01*
X39134Y20061D01*
X38766Y19965D01*
X38396Y19877D01*
X38024Y19798D01*
X37650Y19728D01*
X37274Y19668D01*
X36897Y19617D01*
X36519Y19575D01*
X36140Y19542D01*
X35761Y19519D01*
X35380Y19505D01*
X35000Y19500D01*
X34620Y19505D01*
X34239Y19519D01*
X33860Y19542D01*
X33481Y19575D01*
X33103Y19617D01*
X32726Y19668D01*
X32350Y19728D01*
X31976Y19798D01*
X31604Y19877D01*
X31234Y19965D01*
X30866Y20061D01*
X30501Y20167D01*
X30138Y20282D01*
X29778Y20406D01*
X29422Y20539D01*
X29068Y20680D01*
X28719Y20830D01*
X28373Y20988D01*
X28031Y21155D01*
X27693Y21330D01*
X27360Y21514D01*
X27031Y21705D01*
X26708Y21905D01*
X26389Y22112D01*
X26075Y22327D01*
X25767Y22550D01*
X25464Y22781D01*
X25167Y23018D01*
X24876Y23263D01*
X24591Y23515D01*
X24312Y23774D01*
X24040Y24040D01*
X23774Y24312D01*
X23515Y24591D01*
X23263Y24876D01*
X23018Y25167D01*
X22781Y25464D01*
X22550Y25767D01*
X22327Y26075D01*
X22112Y26389D01*
X21905Y26708D01*
X21705Y27031D01*
X21514Y27360D01*
X21330Y27693D01*
X21155Y28031D01*
X20988Y28373D01*
X20830Y28719D01*
X20680Y29068D01*
X20539Y29422D01*
X20406Y29778D01*
X20282Y30138D01*
X20167Y30501D01*
X20061Y30866D01*
X19965Y31234D01*
X19877Y31604D01*
X19798Y31976D01*
X19728Y32350D01*
X19668Y32726D01*
X19617Y33103D01*
X19575Y33481D01*
X19542Y33860D01*
X19519Y34239D01*
X19505Y34620D01*
X19500Y35000D01*
X19500Y525000D02*
X19505Y525380D01*
X19519Y525761D01*
X19542Y526140D01*
X19575Y526519D01*
X19617Y526897D01*
X19668Y527274D01*
X19728Y527650D01*
X19798Y528024D01*
X19877Y528396D01*
X19965Y528766D01*
X20061Y529134D01*
X20167Y529499D01*
X20282Y529862D01*
X20406Y530222D01*
X20539Y530578D01*
X20680Y530932D01*
X20830Y531281D01*
X20988Y531627D01*
X21155Y531969D01*
X21330Y532307D01*
X21514Y532640D01*
X21705Y532969D01*
X21905Y533292D01*
X22112Y533611D01*
X22327Y533925D01*
X22550Y534233D01*
X22781Y534536D01*
X23018Y534833D01*
X23263Y535124D01*
X23515Y535409D01*
X23774Y535688D01*
X24040Y535960D01*
X24312Y536226D01*
X24591Y536485D01*
X24876Y536737D01*
X25167Y536982D01*
X25464Y537219D01*
X25767Y537450D01*
X26075Y537673D01*
X26389Y537888D01*
X26708Y538095D01*
X27031Y538295D01*
X27360Y538486D01*
X27693Y538670D01*
X28031Y538845D01*
X28373Y539012D01*
X28719Y539170D01*
X29068Y539320D01*
X29422Y539461D01*
X29778Y539594D01*
X30138Y539718D01*
X30501Y539833D01*
X30866Y539939D01*
X31234Y540035D01*
X31604Y540123D01*
X31976Y540202D01*
X32350Y540272D01*
X32726Y540332D01*
X33103Y540383D01*
X33481Y540425D01*
X33860Y540458D01*
X34239Y540481D01*
X34620Y540495D01*
X35000Y540500D01*
X35380Y540495D01*
X35761Y540481D01*
X36140Y540458D01*
X36519Y540425D01*
X36897Y540383D01*
X37274Y540332D01*
X37650Y540272D01*
X38024Y540202D01*
X38396Y540123D01*
X38766Y540035D01*
X39134Y539939D01*
X39499Y539833D01*
X39862Y539718D01*
X40222Y539594D01*
X40578Y539461D01*
X40932Y539320D01*
X41281Y539170D01*
X41627Y539012D01*
X41969Y538845D01*
X42307Y538670D01*
X42640Y538486D01*
X42969Y538295D01*
X43292Y538095D01*
X43611Y537888D01*
X43925Y537673D01*
X44233Y537450D01*
X44536Y537219D01*
X44833Y536982D01*
X45124Y536737D01*
X45409Y536485D01*
X45688Y536226D01*
X45960Y535960D01*
X46226Y535688D01*
X46485Y535409D01*
X46737Y535124D01*
X46982Y534833D01*
X47219Y534536D01*
X47450Y534233D01*
X47673Y533925D01*
X47888Y533611D01*
X48095Y533292D01*
X48295Y532969D01*
X48486Y532640D01*
X48670Y532307D01*
X48845Y531969D01*
X49012Y531627D01*
X49170Y531281D01*
X49320Y530932D01*
X49461Y530578D01*
X49594Y530222D01*
X49718Y529862D01*
X49833Y529499D01*
X49939Y529134D01*
X50035Y528766D01*
X50123Y528396D01*
X50202Y528024D01*
X50272Y527650D01*
X50332Y527274D01*
X50383Y526897D01*
X50425Y526519D01*
X50458Y526140D01*
X50481Y525761D01*
X50495Y525380D01*
X50500Y525000D01*
X50495Y524620D01*
X50481Y524239D01*
X50458Y523860D01*
X50425Y523481D01*
X50383Y523103D01*
X50332Y522726D01*
X50272Y522350D01*
X50202Y521976D01*
X50123Y521604D01*
X50035Y521234D01*
X49939Y520866D01*
X49833Y520501D01*
X49718Y520138D01*
X49594Y519778D01*
X49461Y519422D01*
X49320Y519068D01*
X49170Y518719D01*
X49012Y518373D01*
X48845Y518031D01*
X48670Y517693D01*
X48486Y517360D01*
X48295Y517031D01*
X48095Y516708D01*
X47888Y516389D01*
X47673Y516075D01*
X47450Y515767D01*
X47219Y515464D01*
X46982Y515167D01*
X46737Y514876D01*
X46485Y514591D01*
X46226Y514312D01*
X45960Y514040D01*
X45688Y513774D01*
X45409Y513515D01*
X45124Y513263D01*
X44833Y513018D01*
X44536Y512781D01*
X44233Y512550D01*
X43925Y512327D01*
X43611Y512112D01*
X43292Y511905D01*
X42969Y511705D01*
X42640Y511514D01*
X42307Y511330D01*
X41969Y511155D01*
X41627Y510988D01*
X41281Y510830D01*
X40932Y510680D01*
X40578Y510539D01*
X40222Y510406D01*
X39862Y510282D01*
X39499Y510167D01*
X39134Y510061D01*
X38766Y509965D01*
X38396Y509877D01*
X38024Y509798D01*
X37650Y509728D01*
X37274Y509668D01*
X36897Y509617D01*
X36519Y509575D01*
X36140Y509542D01*
X35761Y509519D01*
X35380Y509505D01*
X35000Y509500D01*
X34620Y509505D01*
X34239Y509519D01*
X33860Y509542D01*
X33481Y509575D01*
X33103Y509617D01*
X32726Y509668D01*
X32350Y509728D01*
X31976Y509798D01*
X31604Y509877D01*
X31234Y509965D01*
X30866Y510061D01*
X30501Y510167D01*
X30138Y510282D01*
X29778Y510406D01*
X29422Y510539D01*
X29068Y510680D01*
X28719Y510830D01*
X28373Y510988D01*
X28031Y511155D01*
X27693Y511330D01*
X27360Y511514D01*
X27031Y511705D01*
X26708Y511905D01*
X26389Y512112D01*
X26075Y512327D01*
X25767Y512550D01*
X25464Y512781D01*
X25167Y513018D01*
X24876Y513263D01*
X24591Y513515D01*
X24312Y513774D01*
X24040Y514040D01*
X23774Y514312D01*
X23515Y514591D01*
X23263Y514876D01*
X23018Y515167D01*
X22781Y515464D01*
X22550Y515767D01*
X22327Y516075D01*
X22112Y516389D01*
X21905Y516708D01*
X21705Y517031D01*
X21514Y517360D01*
X21330Y517693D01*
X21155Y518031D01*
X20988Y518373D01*
X20830Y518719D01*
X20680Y519068D01*
X20539Y519422D01*
X20406Y519778D01*
X20282Y520138D01*
X20167Y520501D01*
X20061Y520866D01*
X19965Y521234D01*
X19877Y521604D01*
X19798Y521976D01*
X19728Y522350D01*
X19668Y522726D01*
X19617Y523103D01*
X19575Y523481D01*
X19542Y523860D01*
X19519Y524239D01*
X19505Y524620D01*
X19500Y525000D01*
X599500Y35000D02*
X599505Y35380D01*
X599519Y35761D01*
X599542Y36140D01*
X599575Y36519D01*
X599617Y36897D01*
X599668Y37274D01*
X599728Y37650D01*
X599798Y38024D01*
X599877Y38396D01*
X599965Y38766D01*
X600061Y39134D01*
X600167Y39499D01*
X600282Y39862D01*
X600406Y40222D01*
X600539Y40578D01*
X600680Y40932D01*
X600830Y41281D01*
X600988Y41627D01*
X601155Y41969D01*
X601330Y42307D01*
X601514Y42640D01*
X601705Y42969D01*
X601905Y43292D01*
X602112Y43611D01*
X602327Y43925D01*
X602550Y44233D01*
X602781Y44536D01*
X603018Y44833D01*
X603263Y45124D01*
X603515Y45409D01*
X603774Y45688D01*
X604040Y45960D01*
X604312Y46226D01*
X604591Y46485D01*
X604876Y46737D01*
X605167Y46982D01*
X605464Y47219D01*
X605767Y47450D01*
X606075Y47673D01*
X606389Y47888D01*
X606708Y48095D01*
X607031Y48295D01*
X607360Y48486D01*
X607693Y48670D01*
X608031Y48845D01*
X608373Y49012D01*
X608719Y49170D01*
X609068Y49320D01*
X609422Y49461D01*
X609778Y49594D01*
X610138Y49718D01*
X610501Y49833D01*
X610866Y49939D01*
X611234Y50035D01*
X611604Y50123D01*
X611976Y50202D01*
X612350Y50272D01*
X612726Y50332D01*
X613103Y50383D01*
X613481Y50425D01*
X613860Y50458D01*
X614239Y50481D01*
X614620Y50495D01*
X615000Y50500D01*
X615380Y50495D01*
X615761Y50481D01*
X616140Y50458D01*
X616519Y50425D01*
X616897Y50383D01*
X617274Y50332D01*
X617650Y50272D01*
X618024Y50202D01*
X618396Y50123D01*
X618766Y50035D01*
X619134Y49939D01*
X619499Y49833D01*
X619862Y49718D01*
X620222Y49594D01*
X620578Y49461D01*
X620932Y49320D01*
X621281Y49170D01*
X621627Y49012D01*
X621969Y48845D01*
X622307Y48670D01*
X622640Y48486D01*
X622969Y48295D01*
X623292Y48095D01*
X623611Y47888D01*
X623925Y47673D01*
X624233Y47450D01*
X624536Y47219D01*
X624833Y46982D01*
X625124Y46737D01*
X625409Y46485D01*
X625688Y46226D01*
X625960Y45960D01*
X626226Y45688D01*
X626485Y45409D01*
X626737Y45124D01*
X626982Y44833D01*
X627219Y44536D01*
X627450Y44233D01*
X627673Y43925D01*
X627888Y43611D01*
X628095Y43292D01*
X628295Y42969D01*
X628486Y42640D01*
X628670Y42307D01*
X628845Y41969D01*
X629012Y41627D01*
X629170Y41281D01*
X629320Y40932D01*
X629461Y40578D01*
X629594Y40222D01*
X629718Y39862D01*
X629833Y39499D01*
X629939Y39134D01*
X630035Y38766D01*
X630123Y38396D01*
X630202Y38024D01*
X630272Y37650D01*
X630332Y37274D01*
X630383Y36897D01*
X630425Y36519D01*
X630458Y36140D01*
X630481Y35761D01*
X630495Y35380D01*
X630500Y35000D01*
X630495Y34620D01*
X630481Y34239D01*
X630458Y33860D01*
X630425Y33481D01*
X630383Y33103D01*
X630332Y32726D01*
X630272Y32350D01*
X630202Y31976D01*
X630123Y31604D01*
X630035Y31234D01*
X629939Y30866D01*
X629833Y30501D01*
X629718Y30138D01*
X629594Y29778D01*
X629461Y29422D01*
X629320Y29068D01*
X629170Y28719D01*
X629012Y28373D01*
X628845Y28031D01*
X628670Y27693D01*
X628486Y27360D01*
X628295Y27031D01*
X628095Y26708D01*
X627888Y26389D01*
X627673Y26075D01*
X627450Y25767D01*
X627219Y25464D01*
X626982Y25167D01*
X626737Y24876D01*
X626485Y24591D01*
X626226Y24312D01*
X625960Y24040D01*
X625688Y23774D01*
X625409Y23515D01*
X625124Y23263D01*
X624833Y23018D01*
X624536Y22781D01*
X624233Y22550D01*
X623925Y22327D01*
X623611Y22112D01*
X623292Y21905D01*
X622969Y21705D01*
X622640Y21514D01*
X622307Y21330D01*
X621969Y21155D01*
X621627Y20988D01*
X621281Y20830D01*
X620932Y20680D01*
X620578Y20539D01*
X620222Y20406D01*
X619862Y20282D01*
X619499Y20167D01*
X619134Y20061D01*
X618766Y19965D01*
X618396Y19877D01*
X618024Y19798D01*
X617650Y19728D01*
X617274Y19668D01*
X616897Y19617D01*
X616519Y19575D01*
X616140Y19542D01*
X615761Y19519D01*
X615380Y19505D01*
X615000Y19500D01*
X614620Y19505D01*
X614239Y19519D01*
X613860Y19542D01*
X613481Y19575D01*
X613103Y19617D01*
X612726Y19668D01*
X612350Y19728D01*
X611976Y19798D01*
X611604Y19877D01*
X611234Y19965D01*
X610866Y20061D01*
X610501Y20167D01*
X610138Y20282D01*
X609778Y20406D01*
X609422Y20539D01*
X609068Y20680D01*
X608719Y20830D01*
X608373Y20988D01*
X608031Y21155D01*
X607693Y21330D01*
X607360Y21514D01*
X607031Y21705D01*
X606708Y21905D01*
X606389Y22112D01*
X606075Y22327D01*
X605767Y22550D01*
X605464Y22781D01*
X605167Y23018D01*
X604876Y23263D01*
X604591Y23515D01*
X604312Y23774D01*
X604040Y24040D01*
X603774Y24312D01*
X603515Y24591D01*
X603263Y24876D01*
X603018Y25167D01*
X602781Y25464D01*
X602550Y25767D01*
X602327Y26075D01*
X602112Y26389D01*
X601905Y26708D01*
X601705Y27031D01*
X601514Y27360D01*
X601330Y27693D01*
X601155Y28031D01*
X600988Y28373D01*
X600830Y28719D01*
X600680Y29068D01*
X600539Y29422D01*
X600406Y29778D01*
X600282Y30138D01*
X600167Y30501D01*
X600061Y30866D01*
X599965Y31234D01*
X599877Y31604D01*
X599798Y31976D01*
X599728Y32350D01*
X599668Y32726D01*
X599617Y33103D01*
X599575Y33481D01*
X599542Y33860D01*
X599519Y34239D01*
X599505Y34620D01*
X599500Y35000D01*
X599500Y525000D02*
X599505Y525380D01*
X599519Y525761D01*
X599542Y526140D01*
X599575Y526519D01*
X599617Y526897D01*
X599668Y527274D01*
X599728Y527650D01*
X599798Y528024D01*
X599877Y528396D01*
X599965Y528766D01*
X600061Y529134D01*
X600167Y529499D01*
X600282Y529862D01*
X600406Y530222D01*
X600539Y530578D01*
X600680Y530932D01*
X600830Y531281D01*
X600988Y531627D01*
X601155Y531969D01*
X601330Y532307D01*
X601514Y532640D01*
X601705Y532969D01*
X601905Y533292D01*
X602112Y533611D01*
X602327Y533925D01*
X602550Y534233D01*
X602781Y534536D01*
X603018Y534833D01*
X603263Y535124D01*
X603515Y535409D01*
X603774Y535688D01*
X604040Y535960D01*
X604312Y536226D01*
X604591Y536485D01*
X604876Y536737D01*
X605167Y536982D01*
X605464Y537219D01*
X605767Y537450D01*
X606075Y537673D01*
X606389Y537888D01*
X606708Y538095D01*
X607031Y538295D01*
X607360Y538486D01*
X607693Y538670D01*
X608031Y538845D01*
X608373Y539012D01*
X608719Y539170D01*
X609068Y539320D01*
X609422Y539461D01*
X609778Y539594D01*
X610138Y539718D01*
X610501Y539833D01*
X610866Y539939D01*
X611234Y540035D01*
X611604Y540123D01*
X611976Y540202D01*
X612350Y540272D01*
X612726Y540332D01*
X613103Y540383D01*
X613481Y540425D01*
X613860Y540458D01*
X614239Y540481D01*
X614620Y540495D01*
X615000Y540500D01*
X615380Y540495D01*
X615761Y540481D01*
X616140Y540458D01*
X616519Y540425D01*
X616897Y540383D01*
X617274Y540332D01*
X617650Y540272D01*
X618024Y540202D01*
X618396Y540123D01*
X618766Y540035D01*
X619134Y539939D01*
X619499Y539833D01*
X619862Y539718D01*
X620222Y539594D01*
X620578Y539461D01*
X620932Y539320D01*
X621281Y539170D01*
X621627Y539012D01*
X621969Y538845D01*
X622307Y538670D01*
X622640Y538486D01*
X622969Y538295D01*
X623292Y538095D01*
X623611Y537888D01*
X623925Y537673D01*
X624233Y537450D01*
X624536Y537219D01*
X624833Y536982D01*
X625124Y536737D01*
X625409Y536485D01*
X625688Y536226D01*
X625960Y535960D01*
X626226Y535688D01*
X626485Y535409D01*
X626737Y535124D01*
X626982Y534833D01*
X627219Y534536D01*
X627450Y534233D01*
X627673Y533925D01*
X627888Y533611D01*
X628095Y533292D01*
X628295Y532969D01*
X628486Y532640D01*
X628670Y532307D01*
X628845Y531969D01*
X629012Y531627D01*
X629170Y531281D01*
X629320Y530932D01*
X629461Y530578D01*
X629594Y530222D01*
X629718Y529862D01*
X629833Y529499D01*
X629939Y529134D01*
X630035Y528766D01*
X630123Y528396D01*
X630202Y528024D01*
X630272Y527650D01*
X630332Y527274D01*
X630383Y526897D01*
X630425Y526519D01*
X630458Y526140D01*
X630481Y525761D01*
X630495Y525380D01*
X630500Y525000D01*
X630495Y524620D01*
X630481Y524239D01*
X630458Y523860D01*
X630425Y523481D01*
X630383Y523103D01*
X630332Y522726D01*
X630272Y522350D01*
X630202Y521976D01*
X630123Y521604D01*
X630035Y521234D01*
X629939Y520866D01*
X629833Y520501D01*
X629718Y520138D01*
X629594Y519778D01*
X629461Y519422D01*
X629320Y519068D01*
X629170Y518719D01*
X629012Y518373D01*
X628845Y518031D01*
X628670Y517693D01*
X628486Y517360D01*
X628295Y517031D01*
X628095Y516708D01*
X627888Y516389D01*
X627673Y516075D01*
X627450Y515767D01*
X627219Y515464D01*
X626982Y515167D01*
X626737Y514876D01*
X626485Y514591D01*
X626226Y514312D01*
X625960Y514040D01*
X625688Y513774D01*
X625409Y513515D01*
X625124Y513263D01*
X624833Y513018D01*
X624536Y512781D01*
X624233Y512550D01*
X623925Y512327D01*
X623611Y512112D01*
X623292Y511905D01*
X622969Y511705D01*
X622640Y511514D01*
X622307Y511330D01*
X621969Y511155D01*
X621627Y510988D01*
X621281Y510830D01*
X620932Y510680D01*
X620578Y510539D01*
X620222Y510406D01*
X619862Y510282D01*
X619499Y510167D01*
X619134Y510061D01*
X618766Y509965D01*
X618396Y509877D01*
X618024Y509798D01*
X617650Y509728D01*
X617274Y509668D01*
X616897Y509617D01*
X616519Y509575D01*
X616140Y509542D01*
X615761Y509519D01*
X615380Y509505D01*
X615000Y509500D01*
X614620Y509505D01*
X614239Y509519D01*
X613860Y509542D01*
X613481Y509575D01*
X613103Y509617D01*
X612726Y509668D01*
X612350Y509728D01*
X611976Y509798D01*
X611604Y509877D01*
X611234Y509965D01*
X610866Y510061D01*
X610501Y510167D01*
X610138Y510282D01*
X609778Y510406D01*
X609422Y510539D01*
X609068Y510680D01*
X608719Y510830D01*
X608373Y510988D01*
X608031Y511155D01*
X607693Y511330D01*
X607360Y511514D01*
X607031Y511705D01*
X606708Y511905D01*
X606389Y512112D01*
X606075Y512327D01*
X605767Y512550D01*
X605464Y512781D01*
X605167Y513018D01*
X604876Y513263D01*
X604591Y513515D01*
X604312Y513774D01*
X604040Y514040D01*
X603774Y514312D01*
X603515Y514591D01*
X603263Y514876D01*
X603018Y515167D01*
X602781Y515464D01*
X602550Y515767D01*
X602327Y516075D01*
X602112Y516389D01*
X601905Y516708D01*
X601705Y517031D01*
X601514Y517360D01*
X601330Y517693D01*
X601155Y518031D01*
X600988Y518373D01*
X600830Y518719D01*
X600680Y519068D01*
X600539Y519422D01*
X600406Y519778D01*
X600282Y520138D01*
X600167Y520501D01*
X600061Y520866D01*
X599965Y521234D01*
X599877Y521604D01*
X599798Y521976D01*
X599728Y522350D01*
X599668Y522726D01*
X599617Y523103D01*
X599575Y523481D01*
X599542Y523860D01*
X599519Y524239D01*
X599505Y524620D01*
X599500Y525000D01*
D11*
X483349Y265425D02*
X466637Y265425D01*
X483349Y265425D02*
X483349Y273781D01*
X480564Y276566D01*
X474993Y276566D01*
X472208Y273781D01*
X472208Y265425D01*
X483349Y255365D02*
X483349Y249794D01*
X483349Y255365D02*
X480564Y258151D01*
X474993Y258151D01*
X472208Y255365D01*
X472208Y249794D01*
X474993Y247009D01*
X477778Y247009D01*
X477778Y258151D01*
X483349Y239735D02*
X483349Y231379D01*
X480564Y228593D01*
X477778Y231379D01*
X477778Y236949D01*
X474993Y239735D01*
X472208Y236949D01*
X472208Y228593D01*
X472208Y221319D02*
X472208Y218534D01*
X483349Y218534D01*
X483349Y221319D02*
X483349Y215748D01*
X466637Y218534D02*
X463851Y218534D01*
X488920Y203471D02*
X488920Y200686D01*
X486134Y197900D01*
X472208Y197900D01*
X472208Y206257D01*
X474993Y209042D01*
X480564Y209042D01*
X483349Y206257D01*
X483349Y197900D01*
X483349Y190626D02*
X472208Y190626D01*
X472208Y182270D01*
X474993Y179485D01*
X483349Y179485D01*
X483349Y169425D02*
X483349Y163854D01*
X483349Y169425D02*
X480564Y172211D01*
X474993Y172211D01*
X472208Y169425D01*
X472208Y163854D01*
X474993Y161069D01*
X477778Y161069D01*
X477778Y172211D01*
X483349Y142653D02*
X466637Y142653D01*
X483349Y142653D02*
X483349Y151009D01*
X480564Y153795D01*
X474993Y153795D01*
X472208Y151009D01*
X472208Y142653D01*
X466637Y116963D02*
X483349Y116963D01*
X483349Y108607D01*
X480564Y105822D01*
X474993Y105822D01*
X472208Y108607D01*
X472208Y116963D01*
X472208Y98548D02*
X480564Y98548D01*
X483349Y95762D01*
X483349Y87406D01*
X486134Y87406D02*
X472208Y87406D01*
X486134Y87406D02*
X488920Y90192D01*
X488920Y92977D01*
X496637Y291913D02*
X513349Y291913D01*
X496637Y291913D02*
X496637Y283557D01*
X499422Y280771D01*
X504993Y280771D01*
X507778Y283557D01*
X507778Y291913D01*
X507778Y286342D02*
X513349Y280771D01*
X513349Y270712D02*
X513349Y265141D01*
X510564Y262356D01*
X504993Y262356D01*
X502208Y265141D01*
X502208Y270712D01*
X504993Y273497D01*
X510564Y273497D01*
X513349Y270712D01*
X513349Y255081D02*
X502208Y255081D01*
X502208Y252296D01*
X504993Y249511D01*
X513349Y249511D01*
X504993Y249511D02*
X502208Y246725D01*
X504993Y243940D01*
X513349Y243940D01*
X502208Y233880D02*
X502208Y228309D01*
X504993Y225524D01*
X513349Y225524D01*
X513349Y233880D01*
X510564Y236666D01*
X507778Y233880D01*
X507778Y225524D01*
X502208Y218250D02*
X502208Y215464D01*
X513349Y215464D01*
X513349Y212679D02*
X513349Y218250D01*
X496637Y215464D02*
X493851Y215464D01*
X502208Y205973D02*
X513349Y205973D01*
X502208Y205973D02*
X502208Y197617D01*
X504993Y194831D01*
X513349Y194831D01*
X513349Y169141D02*
X496637Y169141D01*
X496637Y160785D01*
X499422Y158000D01*
X502208Y158000D01*
X504993Y160785D01*
X507778Y158000D01*
X510564Y158000D01*
X513349Y160785D01*
X513349Y169141D01*
X504993Y169141D02*
X504993Y160785D01*
X502208Y150726D02*
X513349Y150726D01*
X502208Y150726D02*
X496637Y145155D01*
X502208Y139584D01*
X513349Y139584D01*
X504993Y139584D02*
X504993Y150726D01*
X496637Y132310D02*
X496637Y121168D01*
X499422Y121168D01*
X510564Y132310D01*
X513349Y132310D01*
X513349Y121168D01*
X513349Y113894D02*
X513349Y108323D01*
X513349Y111109D02*
X496637Y111109D01*
X496637Y113894D02*
X496637Y108323D01*
X496637Y101617D02*
X513349Y101617D01*
X513349Y90475D01*
X496637Y83201D02*
X496637Y72060D01*
X496637Y83201D02*
X513349Y83201D01*
X513349Y72060D01*
X504993Y77630D02*
X504993Y83201D01*
X529422Y198583D02*
X543349Y198583D01*
X529422Y198583D02*
X526637Y195798D01*
X534993Y195798D02*
X534993Y201369D01*
X543349Y186306D02*
X543349Y180735D01*
X540564Y177950D01*
X534993Y177950D01*
X532208Y180735D01*
X532208Y186306D01*
X534993Y189092D01*
X540564Y189092D01*
X543349Y186306D01*
X543349Y170676D02*
X532208Y170676D01*
X537778Y170676D02*
X532208Y165105D01*
X532208Y162320D01*
D12*
X549641Y321714D02*
X570341Y321714D01*
X549641Y321714D02*
X549641Y311364D01*
X553091Y307914D01*
X559991Y307914D01*
X563441Y311364D01*
X563441Y321714D01*
X549641Y298694D02*
X549641Y295244D01*
X570341Y295244D01*
X570341Y298694D02*
X570341Y291794D01*
X556541Y279898D02*
X556541Y272998D01*
X559991Y269548D01*
X570341Y269548D01*
X570341Y279898D01*
X566891Y283348D01*
X563441Y279898D01*
X563441Y269548D01*
X570341Y260328D02*
X556541Y260328D01*
X556541Y249978D01*
X559991Y246528D01*
X570341Y246528D01*
X570341Y237309D02*
X549641Y237309D01*
X563441Y237309D02*
X570341Y226959D01*
X563441Y237309D02*
X556541Y226959D01*
X553091Y214676D02*
X566891Y214676D01*
X570341Y211226D01*
X556541Y211226D02*
X556541Y218126D01*
X570341Y199329D02*
X570341Y192429D01*
X566891Y188979D01*
X559991Y188979D01*
X556541Y192429D01*
X556541Y199329D01*
X559991Y202779D01*
X566891Y202779D01*
X570341Y199329D01*
X570341Y179759D02*
X556541Y179759D01*
X556541Y169410D01*
X559991Y165960D01*
X570341Y165960D01*
X570341Y156740D02*
X549641Y156740D01*
X549641Y146390D01*
X553091Y142940D01*
X559991Y142940D01*
X563441Y146390D01*
X563441Y156740D01*
X549641Y133720D02*
X549641Y130270D01*
X570341Y130270D01*
X570341Y133720D02*
X570341Y126820D01*
X556541Y114924D02*
X556541Y108024D01*
X559991Y104574D01*
X570341Y104574D01*
X570341Y114924D01*
X566891Y118374D01*
X563441Y114924D01*
X563441Y104574D01*
X570341Y95354D02*
X556541Y95354D01*
X556541Y85004D01*
X559991Y81554D01*
X570341Y81554D01*
X570341Y68884D02*
X570341Y61985D01*
X570341Y68884D02*
X566891Y72334D01*
X559991Y72334D01*
X556541Y68884D01*
X556541Y61985D01*
X559991Y58535D01*
X563441Y58535D01*
X563441Y72334D01*
X566891Y45865D02*
X553091Y45865D01*
X566891Y45865D02*
X570341Y42415D01*
X556541Y42415D02*
X556541Y49315D01*
D13*
X412527Y15004D02*
X407041Y15004D01*
X409784Y17747D02*
X409784Y12261D01*
X403319Y16375D02*
X400576Y19118D01*
X400576Y10889D01*
X403319Y10889D02*
X397833Y10889D01*
X394111Y10889D02*
X388625Y10889D01*
X394111Y10889D02*
X388625Y16375D01*
X388625Y17747D01*
X389997Y19118D01*
X392740Y19118D01*
X394111Y17747D01*
X384903Y19118D02*
X384903Y13632D01*
X382160Y10889D01*
X379417Y13632D01*
X379417Y19118D01*
X342923Y15004D02*
X337437Y15004D01*
X340180Y17747D02*
X340180Y12261D01*
X333715Y19118D02*
X328229Y19118D01*
X333715Y19118D02*
X333715Y15004D01*
X330972Y16375D01*
X329600Y16375D01*
X328229Y15004D01*
X328229Y12261D01*
X329600Y10889D01*
X332343Y10889D01*
X333715Y12261D01*
X324507Y13632D02*
X324507Y19118D01*
X324507Y13632D02*
X321764Y10889D01*
X319021Y13632D01*
X319021Y19118D01*
X393715Y45889D02*
X393715Y54118D01*
X393715Y45889D02*
X389600Y45889D01*
X388229Y47261D01*
X388229Y52747D01*
X389600Y54118D01*
X393715Y54118D01*
X394041Y30889D02*
X396784Y30889D01*
X395413Y30889D02*
X395413Y39118D01*
X396784Y39118D02*
X394041Y39118D01*
X386531Y39118D02*
X385160Y37747D01*
X386531Y39118D02*
X389274Y39118D01*
X390646Y37747D01*
X390646Y32261D01*
X389274Y30889D01*
X386531Y30889D01*
X385160Y32261D01*
D14*
X400000Y45000D02*
X399881Y45122D01*
X399764Y45247D01*
X399651Y45375D01*
X399541Y45506D01*
X399434Y45639D01*
X399330Y45775D01*
X399230Y45913D01*
X399133Y46054D01*
X399039Y46197D01*
X398949Y46342D01*
X398862Y46489D01*
X398779Y46639D01*
X398700Y46790D01*
X398624Y46943D01*
X398552Y47098D01*
X398484Y47255D01*
X398419Y47413D01*
X398359Y47573D01*
X398302Y47734D01*
X398249Y47896D01*
X398200Y48060D01*
X398155Y48225D01*
X398115Y48391D01*
X398078Y48558D01*
X398045Y48725D01*
X398016Y48894D01*
X397991Y49063D01*
X397971Y49233D01*
X397954Y49403D01*
X397942Y49573D01*
X397934Y49744D01*
X397930Y49915D01*
X397930Y50085D01*
X397934Y50256D01*
X397942Y50427D01*
X397954Y50597D01*
X397971Y50767D01*
X397991Y50937D01*
X398016Y51106D01*
X398045Y51275D01*
X398078Y51442D01*
X398115Y51609D01*
X398155Y51775D01*
X398200Y51940D01*
X398249Y52104D01*
X398302Y52266D01*
X398359Y52427D01*
X398419Y52587D01*
X398484Y52745D01*
X398552Y52902D01*
X398624Y53057D01*
X398700Y53210D01*
X398779Y53361D01*
X398862Y53511D01*
X398949Y53658D01*
X399039Y53803D01*
X399133Y53946D01*
X399230Y54087D01*
X399330Y54225D01*
X399434Y54361D01*
X399541Y54494D01*
X399651Y54625D01*
X399764Y54753D01*
X399881Y54878D01*
X400000Y55000D01*
X185000Y90000D02*
X184878Y90119D01*
X184753Y90236D01*
X184625Y90349D01*
X184494Y90459D01*
X184361Y90566D01*
X184225Y90670D01*
X184087Y90770D01*
X183946Y90867D01*
X183803Y90961D01*
X183658Y91051D01*
X183511Y91138D01*
X183361Y91221D01*
X183210Y91300D01*
X183057Y91376D01*
X182902Y91448D01*
X182745Y91516D01*
X182587Y91581D01*
X182427Y91641D01*
X182266Y91698D01*
X182104Y91751D01*
X181940Y91800D01*
X181775Y91845D01*
X181609Y91885D01*
X181442Y91922D01*
X181275Y91955D01*
X181106Y91984D01*
X180937Y92009D01*
X180767Y92029D01*
X180597Y92046D01*
X180427Y92058D01*
X180256Y92066D01*
X180085Y92070D01*
X179915Y92070D01*
X179744Y92066D01*
X179573Y92058D01*
X179403Y92046D01*
X179233Y92029D01*
X179063Y92009D01*
X178894Y91984D01*
X178725Y91955D01*
X178558Y91922D01*
X178391Y91885D01*
X178225Y91845D01*
X178060Y91800D01*
X177896Y91751D01*
X177734Y91698D01*
X177573Y91641D01*
X177413Y91581D01*
X177255Y91516D01*
X177098Y91448D01*
X176943Y91376D01*
X176790Y91300D01*
X176639Y91221D01*
X176489Y91138D01*
X176342Y91051D01*
X176197Y90961D01*
X176054Y90867D01*
X175913Y90770D01*
X175775Y90670D01*
X175639Y90566D01*
X175506Y90459D01*
X175375Y90349D01*
X175247Y90236D01*
X175122Y90119D01*
X175000Y90000D01*
X350000Y30000D02*
X350122Y30119D01*
X350247Y30236D01*
X350375Y30349D01*
X350506Y30459D01*
X350639Y30566D01*
X350775Y30670D01*
X350913Y30770D01*
X351054Y30867D01*
X351197Y30961D01*
X351342Y31051D01*
X351489Y31138D01*
X351639Y31221D01*
X351790Y31300D01*
X351943Y31376D01*
X352098Y31448D01*
X352255Y31516D01*
X352413Y31581D01*
X352573Y31641D01*
X352734Y31698D01*
X352896Y31751D01*
X353060Y31800D01*
X353225Y31845D01*
X353391Y31885D01*
X353558Y31922D01*
X353725Y31955D01*
X353894Y31984D01*
X354063Y32009D01*
X354233Y32029D01*
X354403Y32046D01*
X354573Y32058D01*
X354744Y32066D01*
X354915Y32070D01*
X355085Y32070D01*
X355256Y32066D01*
X355427Y32058D01*
X355597Y32046D01*
X355767Y32029D01*
X355937Y32009D01*
X356106Y31984D01*
X356275Y31955D01*
X356442Y31922D01*
X356609Y31885D01*
X356775Y31845D01*
X356940Y31800D01*
X357104Y31751D01*
X357266Y31698D01*
X357427Y31641D01*
X357587Y31581D01*
X357745Y31516D01*
X357902Y31448D01*
X358057Y31376D01*
X358210Y31300D01*
X358361Y31221D01*
X358511Y31138D01*
X358658Y31051D01*
X358803Y30961D01*
X358946Y30867D01*
X359087Y30770D01*
X359225Y30670D01*
X359361Y30566D01*
X359494Y30459D01*
X359625Y30349D01*
X359753Y30236D01*
X359878Y30119D01*
X360000Y30000D01*
D15*
X581364Y429840D02*
X598636Y429840D01*
X578824Y447620D02*
X578826Y447720D01*
X578832Y447819D01*
X578842Y447919D01*
X578855Y448017D01*
X578873Y448116D01*
X578894Y448213D01*
X578919Y448309D01*
X578948Y448405D01*
X578981Y448499D01*
X579017Y448592D01*
X579057Y448683D01*
X579101Y448773D01*
X579148Y448861D01*
X579198Y448947D01*
X579252Y449031D01*
X579309Y449113D01*
X579369Y449192D01*
X579433Y449270D01*
X579499Y449344D01*
X579568Y449416D01*
X579640Y449485D01*
X579714Y449551D01*
X579792Y449615D01*
X579871Y449675D01*
X579953Y449732D01*
X580037Y449786D01*
X580123Y449836D01*
X580211Y449883D01*
X580301Y449927D01*
X580392Y449967D01*
X580485Y450003D01*
X580579Y450036D01*
X580675Y450065D01*
X580771Y450090D01*
X580868Y450111D01*
X580967Y450129D01*
X581065Y450142D01*
X581165Y450152D01*
X581264Y450158D01*
X581364Y450160D01*
X598636Y450160D02*
X598736Y450158D01*
X598835Y450152D01*
X598935Y450142D01*
X599033Y450129D01*
X599132Y450111D01*
X599229Y450090D01*
X599325Y450065D01*
X599421Y450036D01*
X599515Y450003D01*
X599608Y449967D01*
X599699Y449927D01*
X599789Y449883D01*
X599877Y449836D01*
X599963Y449786D01*
X600047Y449732D01*
X600129Y449675D01*
X600208Y449615D01*
X600286Y449551D01*
X600360Y449485D01*
X600432Y449416D01*
X600501Y449344D01*
X600567Y449270D01*
X600631Y449192D01*
X600691Y449113D01*
X600748Y449031D01*
X600802Y448947D01*
X600852Y448861D01*
X600899Y448773D01*
X600943Y448683D01*
X600983Y448592D01*
X601019Y448499D01*
X601052Y448405D01*
X601081Y448309D01*
X601106Y448213D01*
X601127Y448116D01*
X601145Y448017D01*
X601158Y447919D01*
X601168Y447819D01*
X601174Y447720D01*
X601176Y447620D01*
X601176Y432380D02*
X601174Y432280D01*
X601168Y432181D01*
X601158Y432081D01*
X601145Y431983D01*
X601127Y431884D01*
X601106Y431787D01*
X601081Y431691D01*
X601052Y431595D01*
X601019Y431501D01*
X600983Y431408D01*
X600943Y431317D01*
X600899Y431227D01*
X600852Y431139D01*
X600802Y431053D01*
X600748Y430969D01*
X600691Y430887D01*
X600631Y430808D01*
X600567Y430730D01*
X600501Y430656D01*
X600432Y430584D01*
X600360Y430515D01*
X600286Y430449D01*
X600208Y430385D01*
X600129Y430325D01*
X600047Y430268D01*
X599963Y430214D01*
X599877Y430164D01*
X599789Y430117D01*
X599699Y430073D01*
X599608Y430033D01*
X599515Y429997D01*
X599421Y429964D01*
X599325Y429935D01*
X599229Y429910D01*
X599132Y429889D01*
X599033Y429871D01*
X598935Y429858D01*
X598835Y429848D01*
X598736Y429842D01*
X598636Y429840D01*
X581364Y429840D02*
X581264Y429842D01*
X581165Y429848D01*
X581065Y429858D01*
X580967Y429871D01*
X580868Y429889D01*
X580771Y429910D01*
X580675Y429935D01*
X580579Y429964D01*
X580485Y429997D01*
X580392Y430033D01*
X580301Y430073D01*
X580211Y430117D01*
X580123Y430164D01*
X580037Y430214D01*
X579953Y430268D01*
X579871Y430325D01*
X579792Y430385D01*
X579714Y430449D01*
X579640Y430515D01*
X579568Y430584D01*
X579499Y430656D01*
X579433Y430730D01*
X579369Y430808D01*
X579309Y430887D01*
X579252Y430969D01*
X579198Y431053D01*
X579148Y431139D01*
X579101Y431227D01*
X579057Y431317D01*
X579017Y431408D01*
X578981Y431501D01*
X578948Y431595D01*
X578919Y431691D01*
X578894Y431787D01*
X578873Y431884D01*
X578855Y431983D01*
X578842Y432081D01*
X578832Y432181D01*
X578826Y432280D01*
X578824Y432380D01*
X578824Y447620D01*
X601176Y447620D02*
X601176Y432380D01*
X598636Y450160D02*
X581364Y450160D01*
D13*
X623319Y444118D02*
X623319Y435889D01*
X620576Y438632D01*
X617833Y435889D01*
X617833Y444118D01*
X614111Y444118D02*
X614111Y435889D01*
X614111Y444118D02*
X609997Y444118D01*
X608625Y442747D01*
X608625Y440004D01*
X609997Y438632D01*
X614111Y438632D01*
D16*
X202860Y904440D02*
X202858Y904562D01*
X202852Y904684D01*
X202842Y904806D01*
X202829Y904927D01*
X202811Y905048D01*
X202790Y905168D01*
X202764Y905288D01*
X202735Y905406D01*
X202703Y905524D01*
X202666Y905641D01*
X202626Y905756D01*
X202582Y905870D01*
X202534Y905982D01*
X202483Y906093D01*
X202428Y906202D01*
X202370Y906310D01*
X202308Y906415D01*
X202243Y906518D01*
X202175Y906620D01*
X202103Y906719D01*
X202029Y906815D01*
X201951Y906910D01*
X201870Y907001D01*
X201787Y907091D01*
X201701Y907177D01*
X201611Y907260D01*
X201520Y907341D01*
X201425Y907419D01*
X201329Y907493D01*
X201230Y907565D01*
X201128Y907633D01*
X201025Y907698D01*
X200920Y907760D01*
X200812Y907818D01*
X200703Y907873D01*
X200592Y907924D01*
X200480Y907972D01*
X200366Y908016D01*
X200251Y908056D01*
X200134Y908093D01*
X200016Y908125D01*
X199898Y908154D01*
X199778Y908180D01*
X199658Y908201D01*
X199537Y908219D01*
X199416Y908232D01*
X199294Y908242D01*
X199172Y908248D01*
X199050Y908250D01*
X198928Y908248D01*
X198806Y908242D01*
X198684Y908232D01*
X198563Y908219D01*
X198442Y908201D01*
X198322Y908180D01*
X198202Y908154D01*
X198084Y908125D01*
X197966Y908093D01*
X197849Y908056D01*
X197734Y908016D01*
X197620Y907972D01*
X197508Y907924D01*
X197397Y907873D01*
X197288Y907818D01*
X197180Y907760D01*
X197075Y907698D01*
X196972Y907633D01*
X196870Y907565D01*
X196771Y907493D01*
X196675Y907419D01*
X196580Y907341D01*
X196489Y907260D01*
X196399Y907177D01*
X196313Y907091D01*
X196230Y907001D01*
X196149Y906910D01*
X196071Y906815D01*
X195997Y906719D01*
X195925Y906620D01*
X195857Y906518D01*
X195792Y906415D01*
X195730Y906310D01*
X195672Y906202D01*
X195617Y906093D01*
X195566Y905982D01*
X195518Y905870D01*
X195474Y905756D01*
X195434Y905641D01*
X195397Y905524D01*
X195365Y905406D01*
X195336Y905288D01*
X195310Y905168D01*
X195289Y905048D01*
X195271Y904927D01*
X195258Y904806D01*
X195248Y904684D01*
X195242Y904562D01*
X195240Y904440D01*
X195242Y904318D01*
X195248Y904196D01*
X195258Y904074D01*
X195271Y903953D01*
X195289Y903832D01*
X195310Y903712D01*
X195336Y903592D01*
X195365Y903474D01*
X195397Y903356D01*
X195434Y903239D01*
X195474Y903124D01*
X195518Y903010D01*
X195566Y902898D01*
X195617Y902787D01*
X195672Y902678D01*
X195730Y902570D01*
X195792Y902465D01*
X195857Y902362D01*
X195925Y902260D01*
X195997Y902161D01*
X196071Y902065D01*
X196149Y901970D01*
X196230Y901879D01*
X196313Y901789D01*
X196399Y901703D01*
X196489Y901620D01*
X196580Y901539D01*
X196675Y901461D01*
X196771Y901387D01*
X196870Y901315D01*
X196972Y901247D01*
X197075Y901182D01*
X197180Y901120D01*
X197288Y901062D01*
X197397Y901007D01*
X197508Y900956D01*
X197620Y900908D01*
X197734Y900864D01*
X197849Y900824D01*
X197966Y900787D01*
X198084Y900755D01*
X198202Y900726D01*
X198322Y900700D01*
X198442Y900679D01*
X198563Y900661D01*
X198684Y900648D01*
X198806Y900638D01*
X198928Y900632D01*
X199050Y900630D01*
X199172Y900632D01*
X199294Y900638D01*
X199416Y900648D01*
X199537Y900661D01*
X199658Y900679D01*
X199778Y900700D01*
X199898Y900726D01*
X200016Y900755D01*
X200134Y900787D01*
X200251Y900824D01*
X200366Y900864D01*
X200480Y900908D01*
X200592Y900956D01*
X200703Y901007D01*
X200812Y901062D01*
X200920Y901120D01*
X201025Y901182D01*
X201128Y901247D01*
X201230Y901315D01*
X201329Y901387D01*
X201425Y901461D01*
X201520Y901539D01*
X201611Y901620D01*
X201701Y901703D01*
X201787Y901789D01*
X201870Y901879D01*
X201951Y901970D01*
X202029Y902065D01*
X202103Y902161D01*
X202175Y902260D01*
X202243Y902362D01*
X202308Y902465D01*
X202370Y902570D01*
X202428Y902678D01*
X202483Y902787D01*
X202534Y902898D01*
X202582Y903010D01*
X202626Y903124D01*
X202666Y903239D01*
X202703Y903356D01*
X202735Y903474D01*
X202764Y903592D01*
X202790Y903712D01*
X202811Y903832D01*
X202829Y903953D01*
X202842Y904074D01*
X202852Y904196D01*
X202858Y904318D01*
X202860Y904440D01*
D17*
X313568Y96658D02*
X313035Y94669D01*
X313568Y96658D02*
X316090Y98114D01*
X318080Y97581D01*
X320992Y92537D01*
X320459Y90547D01*
X317937Y89091D01*
X315948Y89624D01*
X314491Y92146D01*
X317014Y93603D01*
X313746Y86672D02*
X309377Y94238D01*
X308701Y83759D01*
X304333Y91326D01*
X301403Y89634D02*
X305772Y82068D01*
X301988Y79883D01*
X299999Y80416D01*
X297087Y85461D01*
X297620Y87450D01*
X301403Y89634D01*
X327575Y81535D02*
X330487Y76491D01*
X329421Y72512D01*
X325443Y73578D01*
X322530Y78623D01*
X315817Y74747D02*
X315284Y72758D01*
X315817Y74747D02*
X318339Y76203D01*
X320329Y75670D01*
X323241Y70626D01*
X322708Y68636D01*
X320186Y67180D01*
X318196Y67713D01*
X307843Y70143D02*
X307310Y68154D01*
X307843Y70143D02*
X310365Y71599D01*
X312354Y71066D01*
X315267Y66022D01*
X314734Y64032D01*
X312211Y62576D01*
X310222Y63109D01*
X337625Y64128D02*
X341993Y56561D01*
X337625Y64128D02*
X333841Y61944D01*
X333308Y59955D01*
X334764Y57432D01*
X336754Y56899D01*
X340537Y59084D01*
X338015Y57627D02*
X336949Y53649D01*
X334019Y51957D02*
X329650Y59524D01*
X325867Y57340D01*
X325334Y55351D01*
X326790Y52828D01*
X328779Y52295D01*
X332563Y54480D01*
X326045Y47353D02*
X321676Y54920D01*
X320610Y50942D01*
X316632Y52008D01*
X321000Y44441D01*
X347575Y46894D02*
X351943Y39327D01*
X347575Y46894D02*
X343791Y44710D01*
X343258Y42721D01*
X344714Y40198D01*
X346704Y39665D01*
X350487Y41850D01*
X343969Y34723D02*
X339600Y42290D01*
X339991Y35790D02*
X343969Y34723D01*
X339991Y35790D02*
X338925Y31811D01*
X334556Y39378D01*
X331626Y37686D02*
X335995Y30120D01*
X330560Y33708D02*
X331626Y37686D01*
X330560Y33708D02*
X326582Y34774D01*
X330950Y27207D01*
D14*
X300359Y72321D02*
X343660Y97321D01*
X363660Y62680D02*
X320359Y37680D01*
X336340Y70000D02*
X353660Y80000D01*
X336340Y70000D02*
X310359Y55000D01*
D10*
X64500Y110000D02*
X64505Y110380D01*
X64519Y110761D01*
X64542Y111140D01*
X64575Y111519D01*
X64617Y111897D01*
X64668Y112274D01*
X64728Y112650D01*
X64798Y113024D01*
X64877Y113396D01*
X64965Y113766D01*
X65061Y114134D01*
X65167Y114499D01*
X65282Y114862D01*
X65406Y115222D01*
X65539Y115578D01*
X65680Y115932D01*
X65830Y116281D01*
X65988Y116627D01*
X66155Y116969D01*
X66330Y117307D01*
X66514Y117640D01*
X66705Y117969D01*
X66905Y118292D01*
X67112Y118611D01*
X67327Y118925D01*
X67550Y119233D01*
X67781Y119536D01*
X68018Y119833D01*
X68263Y120124D01*
X68515Y120409D01*
X68774Y120688D01*
X69040Y120960D01*
X69312Y121226D01*
X69591Y121485D01*
X69876Y121737D01*
X70167Y121982D01*
X70464Y122219D01*
X70767Y122450D01*
X71075Y122673D01*
X71389Y122888D01*
X71708Y123095D01*
X72031Y123295D01*
X72360Y123486D01*
X72693Y123670D01*
X73031Y123845D01*
X73373Y124012D01*
X73719Y124170D01*
X74068Y124320D01*
X74422Y124461D01*
X74778Y124594D01*
X75138Y124718D01*
X75501Y124833D01*
X75866Y124939D01*
X76234Y125035D01*
X76604Y125123D01*
X76976Y125202D01*
X77350Y125272D01*
X77726Y125332D01*
X78103Y125383D01*
X78481Y125425D01*
X78860Y125458D01*
X79239Y125481D01*
X79620Y125495D01*
X80000Y125500D01*
X80380Y125495D01*
X80761Y125481D01*
X81140Y125458D01*
X81519Y125425D01*
X81897Y125383D01*
X82274Y125332D01*
X82650Y125272D01*
X83024Y125202D01*
X83396Y125123D01*
X83766Y125035D01*
X84134Y124939D01*
X84499Y124833D01*
X84862Y124718D01*
X85222Y124594D01*
X85578Y124461D01*
X85932Y124320D01*
X86281Y124170D01*
X86627Y124012D01*
X86969Y123845D01*
X87307Y123670D01*
X87640Y123486D01*
X87969Y123295D01*
X88292Y123095D01*
X88611Y122888D01*
X88925Y122673D01*
X89233Y122450D01*
X89536Y122219D01*
X89833Y121982D01*
X90124Y121737D01*
X90409Y121485D01*
X90688Y121226D01*
X90960Y120960D01*
X91226Y120688D01*
X91485Y120409D01*
X91737Y120124D01*
X91982Y119833D01*
X92219Y119536D01*
X92450Y119233D01*
X92673Y118925D01*
X92888Y118611D01*
X93095Y118292D01*
X93295Y117969D01*
X93486Y117640D01*
X93670Y117307D01*
X93845Y116969D01*
X94012Y116627D01*
X94170Y116281D01*
X94320Y115932D01*
X94461Y115578D01*
X94594Y115222D01*
X94718Y114862D01*
X94833Y114499D01*
X94939Y114134D01*
X95035Y113766D01*
X95123Y113396D01*
X95202Y113024D01*
X95272Y112650D01*
X95332Y112274D01*
X95383Y111897D01*
X95425Y111519D01*
X95458Y111140D01*
X95481Y110761D01*
X95495Y110380D01*
X95500Y110000D01*
X95495Y109620D01*
X95481Y109239D01*
X95458Y108860D01*
X95425Y108481D01*
X95383Y108103D01*
X95332Y107726D01*
X95272Y107350D01*
X95202Y106976D01*
X95123Y106604D01*
X95035Y106234D01*
X94939Y105866D01*
X94833Y105501D01*
X94718Y105138D01*
X94594Y104778D01*
X94461Y104422D01*
X94320Y104068D01*
X94170Y103719D01*
X94012Y103373D01*
X93845Y103031D01*
X93670Y102693D01*
X93486Y102360D01*
X93295Y102031D01*
X93095Y101708D01*
X92888Y101389D01*
X92673Y101075D01*
X92450Y100767D01*
X92219Y100464D01*
X91982Y100167D01*
X91737Y99876D01*
X91485Y99591D01*
X91226Y99312D01*
X90960Y99040D01*
X90688Y98774D01*
X90409Y98515D01*
X90124Y98263D01*
X89833Y98018D01*
X89536Y97781D01*
X89233Y97550D01*
X88925Y97327D01*
X88611Y97112D01*
X88292Y96905D01*
X87969Y96705D01*
X87640Y96514D01*
X87307Y96330D01*
X86969Y96155D01*
X86627Y95988D01*
X86281Y95830D01*
X85932Y95680D01*
X85578Y95539D01*
X85222Y95406D01*
X84862Y95282D01*
X84499Y95167D01*
X84134Y95061D01*
X83766Y94965D01*
X83396Y94877D01*
X83024Y94798D01*
X82650Y94728D01*
X82274Y94668D01*
X81897Y94617D01*
X81519Y94575D01*
X81140Y94542D01*
X80761Y94519D01*
X80380Y94505D01*
X80000Y94500D01*
X79620Y94505D01*
X79239Y94519D01*
X78860Y94542D01*
X78481Y94575D01*
X78103Y94617D01*
X77726Y94668D01*
X77350Y94728D01*
X76976Y94798D01*
X76604Y94877D01*
X76234Y94965D01*
X75866Y95061D01*
X75501Y95167D01*
X75138Y95282D01*
X74778Y95406D01*
X74422Y95539D01*
X74068Y95680D01*
X73719Y95830D01*
X73373Y95988D01*
X73031Y96155D01*
X72693Y96330D01*
X72360Y96514D01*
X72031Y96705D01*
X71708Y96905D01*
X71389Y97112D01*
X71075Y97327D01*
X70767Y97550D01*
X70464Y97781D01*
X70167Y98018D01*
X69876Y98263D01*
X69591Y98515D01*
X69312Y98774D01*
X69040Y99040D01*
X68774Y99312D01*
X68515Y99591D01*
X68263Y99876D01*
X68018Y100167D01*
X67781Y100464D01*
X67550Y100767D01*
X67327Y101075D01*
X67112Y101389D01*
X66905Y101708D01*
X66705Y102031D01*
X66514Y102360D01*
X66330Y102693D01*
X66155Y103031D01*
X65988Y103373D01*
X65830Y103719D01*
X65680Y104068D01*
X65539Y104422D01*
X65406Y104778D01*
X65282Y105138D01*
X65167Y105501D01*
X65061Y105866D01*
X64965Y106234D01*
X64877Y106604D01*
X64798Y106976D01*
X64728Y107350D01*
X64668Y107726D01*
X64617Y108103D01*
X64575Y108481D01*
X64542Y108860D01*
X64519Y109239D01*
X64505Y109620D01*
X64500Y110000D01*
X384500Y110000D02*
X384505Y110380D01*
X384519Y110761D01*
X384542Y111140D01*
X384575Y111519D01*
X384617Y111897D01*
X384668Y112274D01*
X384728Y112650D01*
X384798Y113024D01*
X384877Y113396D01*
X384965Y113766D01*
X385061Y114134D01*
X385167Y114499D01*
X385282Y114862D01*
X385406Y115222D01*
X385539Y115578D01*
X385680Y115932D01*
X385830Y116281D01*
X385988Y116627D01*
X386155Y116969D01*
X386330Y117307D01*
X386514Y117640D01*
X386705Y117969D01*
X386905Y118292D01*
X387112Y118611D01*
X387327Y118925D01*
X387550Y119233D01*
X387781Y119536D01*
X388018Y119833D01*
X388263Y120124D01*
X388515Y120409D01*
X388774Y120688D01*
X389040Y120960D01*
X389312Y121226D01*
X389591Y121485D01*
X389876Y121737D01*
X390167Y121982D01*
X390464Y122219D01*
X390767Y122450D01*
X391075Y122673D01*
X391389Y122888D01*
X391708Y123095D01*
X392031Y123295D01*
X392360Y123486D01*
X392693Y123670D01*
X393031Y123845D01*
X393373Y124012D01*
X393719Y124170D01*
X394068Y124320D01*
X394422Y124461D01*
X394778Y124594D01*
X395138Y124718D01*
X395501Y124833D01*
X395866Y124939D01*
X396234Y125035D01*
X396604Y125123D01*
X396976Y125202D01*
X397350Y125272D01*
X397726Y125332D01*
X398103Y125383D01*
X398481Y125425D01*
X398860Y125458D01*
X399239Y125481D01*
X399620Y125495D01*
X400000Y125500D01*
X400380Y125495D01*
X400761Y125481D01*
X401140Y125458D01*
X401519Y125425D01*
X401897Y125383D01*
X402274Y125332D01*
X402650Y125272D01*
X403024Y125202D01*
X403396Y125123D01*
X403766Y125035D01*
X404134Y124939D01*
X404499Y124833D01*
X404862Y124718D01*
X405222Y124594D01*
X405578Y124461D01*
X405932Y124320D01*
X406281Y124170D01*
X406627Y124012D01*
X406969Y123845D01*
X407307Y123670D01*
X407640Y123486D01*
X407969Y123295D01*
X408292Y123095D01*
X408611Y122888D01*
X408925Y122673D01*
X409233Y122450D01*
X409536Y122219D01*
X409833Y121982D01*
X410124Y121737D01*
X410409Y121485D01*
X410688Y121226D01*
X410960Y120960D01*
X411226Y120688D01*
X411485Y120409D01*
X411737Y120124D01*
X411982Y119833D01*
X412219Y119536D01*
X412450Y119233D01*
X412673Y118925D01*
X412888Y118611D01*
X413095Y118292D01*
X413295Y117969D01*
X413486Y117640D01*
X413670Y117307D01*
X413845Y116969D01*
X414012Y116627D01*
X414170Y116281D01*
X414320Y115932D01*
X414461Y115578D01*
X414594Y115222D01*
X414718Y114862D01*
X414833Y114499D01*
X414939Y114134D01*
X415035Y113766D01*
X415123Y113396D01*
X415202Y113024D01*
X415272Y112650D01*
X415332Y112274D01*
X415383Y111897D01*
X415425Y111519D01*
X415458Y111140D01*
X415481Y110761D01*
X415495Y110380D01*
X415500Y110000D01*
X415495Y109620D01*
X415481Y109239D01*
X415458Y108860D01*
X415425Y108481D01*
X415383Y108103D01*
X415332Y107726D01*
X415272Y107350D01*
X415202Y106976D01*
X415123Y106604D01*
X415035Y106234D01*
X414939Y105866D01*
X414833Y105501D01*
X414718Y105138D01*
X414594Y104778D01*
X414461Y104422D01*
X414320Y104068D01*
X414170Y103719D01*
X414012Y103373D01*
X413845Y103031D01*
X413670Y102693D01*
X413486Y102360D01*
X413295Y102031D01*
X413095Y101708D01*
X412888Y101389D01*
X412673Y101075D01*
X412450Y100767D01*
X412219Y100464D01*
X411982Y100167D01*
X411737Y99876D01*
X411485Y99591D01*
X411226Y99312D01*
X410960Y99040D01*
X410688Y98774D01*
X410409Y98515D01*
X410124Y98263D01*
X409833Y98018D01*
X409536Y97781D01*
X409233Y97550D01*
X408925Y97327D01*
X408611Y97112D01*
X408292Y96905D01*
X407969Y96705D01*
X407640Y96514D01*
X407307Y96330D01*
X406969Y96155D01*
X406627Y95988D01*
X406281Y95830D01*
X405932Y95680D01*
X405578Y95539D01*
X405222Y95406D01*
X404862Y95282D01*
X404499Y95167D01*
X404134Y95061D01*
X403766Y94965D01*
X403396Y94877D01*
X403024Y94798D01*
X402650Y94728D01*
X402274Y94668D01*
X401897Y94617D01*
X401519Y94575D01*
X401140Y94542D01*
X400761Y94519D01*
X400380Y94505D01*
X400000Y94500D01*
X399620Y94505D01*
X399239Y94519D01*
X398860Y94542D01*
X398481Y94575D01*
X398103Y94617D01*
X397726Y94668D01*
X397350Y94728D01*
X396976Y94798D01*
X396604Y94877D01*
X396234Y94965D01*
X395866Y95061D01*
X395501Y95167D01*
X395138Y95282D01*
X394778Y95406D01*
X394422Y95539D01*
X394068Y95680D01*
X393719Y95830D01*
X393373Y95988D01*
X393031Y96155D01*
X392693Y96330D01*
X392360Y96514D01*
X392031Y96705D01*
X391708Y96905D01*
X391389Y97112D01*
X391075Y97327D01*
X390767Y97550D01*
X390464Y97781D01*
X390167Y98018D01*
X389876Y98263D01*
X389591Y98515D01*
X389312Y98774D01*
X389040Y99040D01*
X388774Y99312D01*
X388515Y99591D01*
X388263Y99876D01*
X388018Y100167D01*
X387781Y100464D01*
X387550Y100767D01*
X387327Y101075D01*
X387112Y101389D01*
X386905Y101708D01*
X386705Y102031D01*
X386514Y102360D01*
X386330Y102693D01*
X386155Y103031D01*
X385988Y103373D01*
X385830Y103719D01*
X385680Y104068D01*
X385539Y104422D01*
X385406Y104778D01*
X385282Y105138D01*
X385167Y105501D01*
X385061Y105866D01*
X384965Y106234D01*
X384877Y106604D01*
X384798Y106976D01*
X384728Y107350D01*
X384668Y107726D01*
X384617Y108103D01*
X384575Y108481D01*
X384542Y108860D01*
X384519Y109239D01*
X384505Y109620D01*
X384500Y110000D01*
X384500Y430000D02*
X384505Y430380D01*
X384519Y430761D01*
X384542Y431140D01*
X384575Y431519D01*
X384617Y431897D01*
X384668Y432274D01*
X384728Y432650D01*
X384798Y433024D01*
X384877Y433396D01*
X384965Y433766D01*
X385061Y434134D01*
X385167Y434499D01*
X385282Y434862D01*
X385406Y435222D01*
X385539Y435578D01*
X385680Y435932D01*
X385830Y436281D01*
X385988Y436627D01*
X386155Y436969D01*
X386330Y437307D01*
X386514Y437640D01*
X386705Y437969D01*
X386905Y438292D01*
X387112Y438611D01*
X387327Y438925D01*
X387550Y439233D01*
X387781Y439536D01*
X388018Y439833D01*
X388263Y440124D01*
X388515Y440409D01*
X388774Y440688D01*
X389040Y440960D01*
X389312Y441226D01*
X389591Y441485D01*
X389876Y441737D01*
X390167Y441982D01*
X390464Y442219D01*
X390767Y442450D01*
X391075Y442673D01*
X391389Y442888D01*
X391708Y443095D01*
X392031Y443295D01*
X392360Y443486D01*
X392693Y443670D01*
X393031Y443845D01*
X393373Y444012D01*
X393719Y444170D01*
X394068Y444320D01*
X394422Y444461D01*
X394778Y444594D01*
X395138Y444718D01*
X395501Y444833D01*
X395866Y444939D01*
X396234Y445035D01*
X396604Y445123D01*
X396976Y445202D01*
X397350Y445272D01*
X397726Y445332D01*
X398103Y445383D01*
X398481Y445425D01*
X398860Y445458D01*
X399239Y445481D01*
X399620Y445495D01*
X400000Y445500D01*
X400380Y445495D01*
X400761Y445481D01*
X401140Y445458D01*
X401519Y445425D01*
X401897Y445383D01*
X402274Y445332D01*
X402650Y445272D01*
X403024Y445202D01*
X403396Y445123D01*
X403766Y445035D01*
X404134Y444939D01*
X404499Y444833D01*
X404862Y444718D01*
X405222Y444594D01*
X405578Y444461D01*
X405932Y444320D01*
X406281Y444170D01*
X406627Y444012D01*
X406969Y443845D01*
X407307Y443670D01*
X407640Y443486D01*
X407969Y443295D01*
X408292Y443095D01*
X408611Y442888D01*
X408925Y442673D01*
X409233Y442450D01*
X409536Y442219D01*
X409833Y441982D01*
X410124Y441737D01*
X410409Y441485D01*
X410688Y441226D01*
X410960Y440960D01*
X411226Y440688D01*
X411485Y440409D01*
X411737Y440124D01*
X411982Y439833D01*
X412219Y439536D01*
X412450Y439233D01*
X412673Y438925D01*
X412888Y438611D01*
X413095Y438292D01*
X413295Y437969D01*
X413486Y437640D01*
X413670Y437307D01*
X413845Y436969D01*
X414012Y436627D01*
X414170Y436281D01*
X414320Y435932D01*
X414461Y435578D01*
X414594Y435222D01*
X414718Y434862D01*
X414833Y434499D01*
X414939Y434134D01*
X415035Y433766D01*
X415123Y433396D01*
X415202Y433024D01*
X415272Y432650D01*
X415332Y432274D01*
X415383Y431897D01*
X415425Y431519D01*
X415458Y431140D01*
X415481Y430761D01*
X415495Y430380D01*
X415500Y430000D01*
X415495Y429620D01*
X415481Y429239D01*
X415458Y428860D01*
X415425Y428481D01*
X415383Y428103D01*
X415332Y427726D01*
X415272Y427350D01*
X415202Y426976D01*
X415123Y426604D01*
X415035Y426234D01*
X414939Y425866D01*
X414833Y425501D01*
X414718Y425138D01*
X414594Y424778D01*
X414461Y424422D01*
X414320Y424068D01*
X414170Y423719D01*
X414012Y423373D01*
X413845Y423031D01*
X413670Y422693D01*
X413486Y422360D01*
X413295Y422031D01*
X413095Y421708D01*
X412888Y421389D01*
X412673Y421075D01*
X412450Y420767D01*
X412219Y420464D01*
X411982Y420167D01*
X411737Y419876D01*
X411485Y419591D01*
X411226Y419312D01*
X410960Y419040D01*
X410688Y418774D01*
X410409Y418515D01*
X410124Y418263D01*
X409833Y418018D01*
X409536Y417781D01*
X409233Y417550D01*
X408925Y417327D01*
X408611Y417112D01*
X408292Y416905D01*
X407969Y416705D01*
X407640Y416514D01*
X407307Y416330D01*
X406969Y416155D01*
X406627Y415988D01*
X406281Y415830D01*
X405932Y415680D01*
X405578Y415539D01*
X405222Y415406D01*
X404862Y415282D01*
X404499Y415167D01*
X404134Y415061D01*
X403766Y414965D01*
X403396Y414877D01*
X403024Y414798D01*
X402650Y414728D01*
X402274Y414668D01*
X401897Y414617D01*
X401519Y414575D01*
X401140Y414542D01*
X400761Y414519D01*
X400380Y414505D01*
X400000Y414500D01*
X399620Y414505D01*
X399239Y414519D01*
X398860Y414542D01*
X398481Y414575D01*
X398103Y414617D01*
X397726Y414668D01*
X397350Y414728D01*
X396976Y414798D01*
X396604Y414877D01*
X396234Y414965D01*
X395866Y415061D01*
X395501Y415167D01*
X395138Y415282D01*
X394778Y415406D01*
X394422Y415539D01*
X394068Y415680D01*
X393719Y415830D01*
X393373Y415988D01*
X393031Y416155D01*
X392693Y416330D01*
X392360Y416514D01*
X392031Y416705D01*
X391708Y416905D01*
X391389Y417112D01*
X391075Y417327D01*
X390767Y417550D01*
X390464Y417781D01*
X390167Y418018D01*
X389876Y418263D01*
X389591Y418515D01*
X389312Y418774D01*
X389040Y419040D01*
X388774Y419312D01*
X388515Y419591D01*
X388263Y419876D01*
X388018Y420167D01*
X387781Y420464D01*
X387550Y420767D01*
X387327Y421075D01*
X387112Y421389D01*
X386905Y421708D01*
X386705Y422031D01*
X386514Y422360D01*
X386330Y422693D01*
X386155Y423031D01*
X385988Y423373D01*
X385830Y423719D01*
X385680Y424068D01*
X385539Y424422D01*
X385406Y424778D01*
X385282Y425138D01*
X385167Y425501D01*
X385061Y425866D01*
X384965Y426234D01*
X384877Y426604D01*
X384798Y426976D01*
X384728Y427350D01*
X384668Y427726D01*
X384617Y428103D01*
X384575Y428481D01*
X384542Y428860D01*
X384519Y429239D01*
X384505Y429620D01*
X384500Y430000D01*
X64500Y430000D02*
X64505Y430380D01*
X64519Y430761D01*
X64542Y431140D01*
X64575Y431519D01*
X64617Y431897D01*
X64668Y432274D01*
X64728Y432650D01*
X64798Y433024D01*
X64877Y433396D01*
X64965Y433766D01*
X65061Y434134D01*
X65167Y434499D01*
X65282Y434862D01*
X65406Y435222D01*
X65539Y435578D01*
X65680Y435932D01*
X65830Y436281D01*
X65988Y436627D01*
X66155Y436969D01*
X66330Y437307D01*
X66514Y437640D01*
X66705Y437969D01*
X66905Y438292D01*
X67112Y438611D01*
X67327Y438925D01*
X67550Y439233D01*
X67781Y439536D01*
X68018Y439833D01*
X68263Y440124D01*
X68515Y440409D01*
X68774Y440688D01*
X69040Y440960D01*
X69312Y441226D01*
X69591Y441485D01*
X69876Y441737D01*
X70167Y441982D01*
X70464Y442219D01*
X70767Y442450D01*
X71075Y442673D01*
X71389Y442888D01*
X71708Y443095D01*
X72031Y443295D01*
X72360Y443486D01*
X72693Y443670D01*
X73031Y443845D01*
X73373Y444012D01*
X73719Y444170D01*
X74068Y444320D01*
X74422Y444461D01*
X74778Y444594D01*
X75138Y444718D01*
X75501Y444833D01*
X75866Y444939D01*
X76234Y445035D01*
X76604Y445123D01*
X76976Y445202D01*
X77350Y445272D01*
X77726Y445332D01*
X78103Y445383D01*
X78481Y445425D01*
X78860Y445458D01*
X79239Y445481D01*
X79620Y445495D01*
X80000Y445500D01*
X80380Y445495D01*
X80761Y445481D01*
X81140Y445458D01*
X81519Y445425D01*
X81897Y445383D01*
X82274Y445332D01*
X82650Y445272D01*
X83024Y445202D01*
X83396Y445123D01*
X83766Y445035D01*
X84134Y444939D01*
X84499Y444833D01*
X84862Y444718D01*
X85222Y444594D01*
X85578Y444461D01*
X85932Y444320D01*
X86281Y444170D01*
X86627Y444012D01*
X86969Y443845D01*
X87307Y443670D01*
X87640Y443486D01*
X87969Y443295D01*
X88292Y443095D01*
X88611Y442888D01*
X88925Y442673D01*
X89233Y442450D01*
X89536Y442219D01*
X89833Y441982D01*
X90124Y441737D01*
X90409Y441485D01*
X90688Y441226D01*
X90960Y440960D01*
X91226Y440688D01*
X91485Y440409D01*
X91737Y440124D01*
X91982Y439833D01*
X92219Y439536D01*
X92450Y439233D01*
X92673Y438925D01*
X92888Y438611D01*
X93095Y438292D01*
X93295Y437969D01*
X93486Y437640D01*
X93670Y437307D01*
X93845Y436969D01*
X94012Y436627D01*
X94170Y436281D01*
X94320Y435932D01*
X94461Y435578D01*
X94594Y435222D01*
X94718Y434862D01*
X94833Y434499D01*
X94939Y434134D01*
X95035Y433766D01*
X95123Y433396D01*
X95202Y433024D01*
X95272Y432650D01*
X95332Y432274D01*
X95383Y431897D01*
X95425Y431519D01*
X95458Y431140D01*
X95481Y430761D01*
X95495Y430380D01*
X95500Y430000D01*
X95495Y429620D01*
X95481Y429239D01*
X95458Y428860D01*
X95425Y428481D01*
X95383Y428103D01*
X95332Y427726D01*
X95272Y427350D01*
X95202Y426976D01*
X95123Y426604D01*
X95035Y426234D01*
X94939Y425866D01*
X94833Y425501D01*
X94718Y425138D01*
X94594Y424778D01*
X94461Y424422D01*
X94320Y424068D01*
X94170Y423719D01*
X94012Y423373D01*
X93845Y423031D01*
X93670Y422693D01*
X93486Y422360D01*
X93295Y422031D01*
X93095Y421708D01*
X92888Y421389D01*
X92673Y421075D01*
X92450Y420767D01*
X92219Y420464D01*
X91982Y420167D01*
X91737Y419876D01*
X91485Y419591D01*
X91226Y419312D01*
X90960Y419040D01*
X90688Y418774D01*
X90409Y418515D01*
X90124Y418263D01*
X89833Y418018D01*
X89536Y417781D01*
X89233Y417550D01*
X88925Y417327D01*
X88611Y417112D01*
X88292Y416905D01*
X87969Y416705D01*
X87640Y416514D01*
X87307Y416330D01*
X86969Y416155D01*
X86627Y415988D01*
X86281Y415830D01*
X85932Y415680D01*
X85578Y415539D01*
X85222Y415406D01*
X84862Y415282D01*
X84499Y415167D01*
X84134Y415061D01*
X83766Y414965D01*
X83396Y414877D01*
X83024Y414798D01*
X82650Y414728D01*
X82274Y414668D01*
X81897Y414617D01*
X81519Y414575D01*
X81140Y414542D01*
X80761Y414519D01*
X80380Y414505D01*
X80000Y414500D01*
X79620Y414505D01*
X79239Y414519D01*
X78860Y414542D01*
X78481Y414575D01*
X78103Y414617D01*
X77726Y414668D01*
X77350Y414728D01*
X76976Y414798D01*
X76604Y414877D01*
X76234Y414965D01*
X75866Y415061D01*
X75501Y415167D01*
X75138Y415282D01*
X74778Y415406D01*
X74422Y415539D01*
X74068Y415680D01*
X73719Y415830D01*
X73373Y415988D01*
X73031Y416155D01*
X72693Y416330D01*
X72360Y416514D01*
X72031Y416705D01*
X71708Y416905D01*
X71389Y417112D01*
X71075Y417327D01*
X70767Y417550D01*
X70464Y417781D01*
X70167Y418018D01*
X69876Y418263D01*
X69591Y418515D01*
X69312Y418774D01*
X69040Y419040D01*
X68774Y419312D01*
X68515Y419591D01*
X68263Y419876D01*
X68018Y420167D01*
X67781Y420464D01*
X67550Y420767D01*
X67327Y421075D01*
X67112Y421389D01*
X66905Y421708D01*
X66705Y422031D01*
X66514Y422360D01*
X66330Y422693D01*
X66155Y423031D01*
X65988Y423373D01*
X65830Y423719D01*
X65680Y424068D01*
X65539Y424422D01*
X65406Y424778D01*
X65282Y425138D01*
X65167Y425501D01*
X65061Y425866D01*
X64965Y426234D01*
X64877Y426604D01*
X64798Y426976D01*
X64728Y427350D01*
X64668Y427726D01*
X64617Y428103D01*
X64575Y428481D01*
X64542Y428860D01*
X64519Y429239D01*
X64505Y429620D01*
X64500Y430000D01*
D17*
X515000Y390000D02*
X515012Y390982D01*
X515048Y391963D01*
X515108Y392943D01*
X515193Y393921D01*
X515301Y394896D01*
X515433Y395869D01*
X515589Y396838D01*
X515769Y397804D01*
X515972Y398764D01*
X516199Y399719D01*
X516449Y400669D01*
X516722Y401611D01*
X517019Y402547D01*
X517338Y403476D01*
X517680Y404396D01*
X518045Y405307D01*
X518432Y406210D01*
X518840Y407102D01*
X519271Y407984D01*
X519723Y408856D01*
X520197Y409716D01*
X520691Y410564D01*
X521206Y411400D01*
X521741Y412223D01*
X522297Y413032D01*
X522872Y413828D01*
X523466Y414609D01*
X524080Y415376D01*
X524712Y416127D01*
X525362Y416862D01*
X526030Y417582D01*
X526716Y418284D01*
X527418Y418970D01*
X528138Y419638D01*
X528873Y420288D01*
X529624Y420920D01*
X530391Y421534D01*
X531172Y422128D01*
X531968Y422703D01*
X532777Y423259D01*
X533600Y423794D01*
X534436Y424309D01*
X535284Y424803D01*
X536144Y425277D01*
X537016Y425729D01*
X537898Y426160D01*
X538790Y426568D01*
X539693Y426955D01*
X540604Y427320D01*
X541524Y427662D01*
X542453Y427981D01*
X543389Y428278D01*
X544331Y428551D01*
X545281Y428801D01*
X546236Y429028D01*
X547196Y429231D01*
X548162Y429411D01*
X549131Y429567D01*
X550104Y429699D01*
X551079Y429807D01*
X552057Y429892D01*
X553037Y429952D01*
X554018Y429988D01*
X555000Y430000D01*
X555982Y429988D01*
X556963Y429952D01*
X557943Y429892D01*
X558921Y429807D01*
X559896Y429699D01*
X560869Y429567D01*
X561838Y429411D01*
X562804Y429231D01*
X563764Y429028D01*
X564719Y428801D01*
X565669Y428551D01*
X566611Y428278D01*
X567547Y427981D01*
X568476Y427662D01*
X569396Y427320D01*
X570307Y426955D01*
X571210Y426568D01*
X572102Y426160D01*
X572984Y425729D01*
X573856Y425277D01*
X574716Y424803D01*
X575564Y424309D01*
X576400Y423794D01*
X577223Y423259D01*
X578032Y422703D01*
X578828Y422128D01*
X579609Y421534D01*
X580376Y420920D01*
X581127Y420288D01*
X581862Y419638D01*
X582582Y418970D01*
X583284Y418284D01*
X583970Y417582D01*
X584638Y416862D01*
X585288Y416127D01*
X585920Y415376D01*
X586534Y414609D01*
X587128Y413828D01*
X587703Y413032D01*
X588259Y412223D01*
X588794Y411400D01*
X589309Y410564D01*
X589803Y409716D01*
X590277Y408856D01*
X590729Y407984D01*
X591160Y407102D01*
X591568Y406210D01*
X591955Y405307D01*
X592320Y404396D01*
X592662Y403476D01*
X592981Y402547D01*
X593278Y401611D01*
X593551Y400669D01*
X593801Y399719D01*
X594028Y398764D01*
X594231Y397804D01*
X594411Y396838D01*
X594567Y395869D01*
X594699Y394896D01*
X594807Y393921D01*
X594892Y392943D01*
X594952Y391963D01*
X594988Y390982D01*
X595000Y390000D01*
X594988Y389018D01*
X594952Y388037D01*
X594892Y387057D01*
X594807Y386079D01*
X594699Y385104D01*
X594567Y384131D01*
X594411Y383162D01*
X594231Y382196D01*
X594028Y381236D01*
X593801Y380281D01*
X593551Y379331D01*
X593278Y378389D01*
X592981Y377453D01*
X592662Y376524D01*
X592320Y375604D01*
X591955Y374693D01*
X591568Y373790D01*
X591160Y372898D01*
X590729Y372016D01*
X590277Y371144D01*
X589803Y370284D01*
X589309Y369436D01*
X588794Y368600D01*
X588259Y367777D01*
X587703Y366968D01*
X587128Y366172D01*
X586534Y365391D01*
X585920Y364624D01*
X585288Y363873D01*
X584638Y363138D01*
X583970Y362418D01*
X583284Y361716D01*
X582582Y361030D01*
X581862Y360362D01*
X581127Y359712D01*
X580376Y359080D01*
X579609Y358466D01*
X578828Y357872D01*
X578032Y357297D01*
X577223Y356741D01*
X576400Y356206D01*
X575564Y355691D01*
X574716Y355197D01*
X573856Y354723D01*
X572984Y354271D01*
X572102Y353840D01*
X571210Y353432D01*
X570307Y353045D01*
X569396Y352680D01*
X568476Y352338D01*
X567547Y352019D01*
X566611Y351722D01*
X565669Y351449D01*
X564719Y351199D01*
X563764Y350972D01*
X562804Y350769D01*
X561838Y350589D01*
X560869Y350433D01*
X559896Y350301D01*
X558921Y350193D01*
X557943Y350108D01*
X556963Y350048D01*
X555982Y350012D01*
X555000Y350000D01*
X554018Y350012D01*
X553037Y350048D01*
X552057Y350108D01*
X551079Y350193D01*
X550104Y350301D01*
X549131Y350433D01*
X548162Y350589D01*
X547196Y350769D01*
X546236Y350972D01*
X545281Y351199D01*
X544331Y351449D01*
X543389Y351722D01*
X542453Y352019D01*
X541524Y352338D01*
X540604Y352680D01*
X539693Y353045D01*
X538790Y353432D01*
X537898Y353840D01*
X537016Y354271D01*
X536144Y354723D01*
X535284Y355197D01*
X534436Y355691D01*
X533600Y356206D01*
X532777Y356741D01*
X531968Y357297D01*
X531172Y357872D01*
X530391Y358466D01*
X529624Y359080D01*
X528873Y359712D01*
X528138Y360362D01*
X527418Y361030D01*
X526716Y361716D01*
X526030Y362418D01*
X525362Y363138D01*
X524712Y363873D01*
X524080Y364624D01*
X523466Y365391D01*
X522872Y366172D01*
X522297Y366968D01*
X521741Y367777D01*
X521206Y368600D01*
X520691Y369436D01*
X520197Y370284D01*
X519723Y371144D01*
X519271Y372016D01*
X518840Y372898D01*
X518432Y373790D01*
X518045Y374693D01*
X517680Y375604D01*
X517338Y376524D01*
X517019Y377453D01*
X516722Y378389D01*
X516449Y379331D01*
X516199Y380281D01*
X515972Y381236D01*
X515769Y382196D01*
X515589Y383162D01*
X515433Y384131D01*
X515301Y385104D01*
X515193Y386079D01*
X515108Y387057D01*
X515048Y388037D01*
X515012Y389018D01*
X515000Y390000D01*
D18*
X604390Y389655D02*
X612186Y389655D01*
X608288Y393553D02*
X608288Y385757D01*
D13*
X563808Y409118D02*
X562437Y407747D01*
X563808Y409118D02*
X566551Y409118D01*
X567923Y407747D01*
X567923Y402261D01*
X566551Y400889D01*
X563808Y400889D01*
X562437Y402261D01*
X558715Y400889D02*
X553229Y400889D01*
X558715Y400889D02*
X553229Y406375D01*
X553229Y407747D01*
X554600Y409118D01*
X557343Y409118D01*
X558715Y407747D01*
X549507Y407747D02*
X548136Y409118D01*
X545393Y409118D01*
X544021Y407747D01*
X544021Y406375D01*
X545393Y405004D01*
X546764Y405004D01*
X545393Y405004D02*
X544021Y403632D01*
X544021Y402261D01*
X545393Y400889D01*
X548136Y400889D01*
X549507Y402261D01*
D15*
X372700Y4840D02*
X347300Y4840D01*
X344760Y22620D02*
X344762Y22720D01*
X344768Y22819D01*
X344778Y22919D01*
X344791Y23017D01*
X344809Y23116D01*
X344830Y23213D01*
X344855Y23309D01*
X344884Y23405D01*
X344917Y23499D01*
X344953Y23592D01*
X344993Y23683D01*
X345037Y23773D01*
X345084Y23861D01*
X345134Y23947D01*
X345188Y24031D01*
X345245Y24113D01*
X345305Y24192D01*
X345369Y24270D01*
X345435Y24344D01*
X345504Y24416D01*
X345576Y24485D01*
X345650Y24551D01*
X345728Y24615D01*
X345807Y24675D01*
X345889Y24732D01*
X345973Y24786D01*
X346059Y24836D01*
X346147Y24883D01*
X346237Y24927D01*
X346328Y24967D01*
X346421Y25003D01*
X346515Y25036D01*
X346611Y25065D01*
X346707Y25090D01*
X346804Y25111D01*
X346903Y25129D01*
X347001Y25142D01*
X347101Y25152D01*
X347200Y25158D01*
X347300Y25160D01*
X372700Y25160D02*
X372800Y25158D01*
X372899Y25152D01*
X372999Y25142D01*
X373097Y25129D01*
X373196Y25111D01*
X373293Y25090D01*
X373389Y25065D01*
X373485Y25036D01*
X373579Y25003D01*
X373672Y24967D01*
X373763Y24927D01*
X373853Y24883D01*
X373941Y24836D01*
X374027Y24786D01*
X374111Y24732D01*
X374193Y24675D01*
X374272Y24615D01*
X374350Y24551D01*
X374424Y24485D01*
X374496Y24416D01*
X374565Y24344D01*
X374631Y24270D01*
X374695Y24192D01*
X374755Y24113D01*
X374812Y24031D01*
X374866Y23947D01*
X374916Y23861D01*
X374963Y23773D01*
X375007Y23683D01*
X375047Y23592D01*
X375083Y23499D01*
X375116Y23405D01*
X375145Y23309D01*
X375170Y23213D01*
X375191Y23116D01*
X375209Y23017D01*
X375222Y22919D01*
X375232Y22819D01*
X375238Y22720D01*
X375240Y22620D01*
X375240Y7380D02*
X375238Y7280D01*
X375232Y7181D01*
X375222Y7081D01*
X375209Y6983D01*
X375191Y6884D01*
X375170Y6787D01*
X375145Y6691D01*
X375116Y6595D01*
X375083Y6501D01*
X375047Y6408D01*
X375007Y6317D01*
X374963Y6227D01*
X374916Y6139D01*
X374866Y6053D01*
X374812Y5969D01*
X374755Y5887D01*
X374695Y5808D01*
X374631Y5730D01*
X374565Y5656D01*
X374496Y5584D01*
X374424Y5515D01*
X374350Y5449D01*
X374272Y5385D01*
X374193Y5325D01*
X374111Y5268D01*
X374027Y5214D01*
X373941Y5164D01*
X373853Y5117D01*
X373763Y5073D01*
X373672Y5033D01*
X373579Y4997D01*
X373485Y4964D01*
X373389Y4935D01*
X373293Y4910D01*
X373196Y4889D01*
X373097Y4871D01*
X372999Y4858D01*
X372899Y4848D01*
X372800Y4842D01*
X372700Y4840D01*
X347300Y4840D02*
X347200Y4842D01*
X347101Y4848D01*
X347001Y4858D01*
X346903Y4871D01*
X346804Y4889D01*
X346707Y4910D01*
X346611Y4935D01*
X346515Y4964D01*
X346421Y4997D01*
X346328Y5033D01*
X346237Y5073D01*
X346147Y5117D01*
X346059Y5164D01*
X345973Y5214D01*
X345889Y5268D01*
X345807Y5325D01*
X345728Y5385D01*
X345650Y5449D01*
X345576Y5515D01*
X345504Y5584D01*
X345435Y5656D01*
X345369Y5730D01*
X345305Y5808D01*
X345245Y5887D01*
X345188Y5969D01*
X345134Y6053D01*
X345084Y6139D01*
X345037Y6227D01*
X344993Y6317D01*
X344953Y6408D01*
X344917Y6501D01*
X344884Y6595D01*
X344855Y6691D01*
X344830Y6787D01*
X344809Y6884D01*
X344791Y6983D01*
X344778Y7081D01*
X344768Y7181D01*
X344762Y7280D01*
X344760Y7380D01*
X344760Y22620D01*
X375240Y22620D02*
X375240Y7380D01*
X372700Y25160D02*
X347300Y25160D01*
X404840Y32300D02*
X404840Y57700D01*
X422620Y60240D02*
X422720Y60238D01*
X422819Y60232D01*
X422919Y60222D01*
X423017Y60209D01*
X423116Y60191D01*
X423213Y60170D01*
X423309Y60145D01*
X423405Y60116D01*
X423499Y60083D01*
X423592Y60047D01*
X423683Y60007D01*
X423773Y59963D01*
X423861Y59916D01*
X423947Y59866D01*
X424031Y59812D01*
X424113Y59755D01*
X424192Y59695D01*
X424270Y59631D01*
X424344Y59565D01*
X424416Y59496D01*
X424485Y59424D01*
X424551Y59350D01*
X424615Y59272D01*
X424675Y59193D01*
X424732Y59111D01*
X424786Y59027D01*
X424836Y58941D01*
X424883Y58853D01*
X424927Y58763D01*
X424967Y58672D01*
X425003Y58579D01*
X425036Y58485D01*
X425065Y58389D01*
X425090Y58293D01*
X425111Y58196D01*
X425129Y58097D01*
X425142Y57999D01*
X425152Y57899D01*
X425158Y57800D01*
X425160Y57700D01*
X425160Y32300D02*
X425158Y32200D01*
X425152Y32101D01*
X425142Y32001D01*
X425129Y31903D01*
X425111Y31804D01*
X425090Y31707D01*
X425065Y31611D01*
X425036Y31515D01*
X425003Y31421D01*
X424967Y31328D01*
X424927Y31237D01*
X424883Y31147D01*
X424836Y31059D01*
X424786Y30973D01*
X424732Y30889D01*
X424675Y30807D01*
X424615Y30728D01*
X424551Y30650D01*
X424485Y30576D01*
X424416Y30504D01*
X424344Y30435D01*
X424270Y30369D01*
X424192Y30305D01*
X424113Y30245D01*
X424031Y30188D01*
X423947Y30134D01*
X423861Y30084D01*
X423773Y30037D01*
X423683Y29993D01*
X423592Y29953D01*
X423499Y29917D01*
X423405Y29884D01*
X423309Y29855D01*
X423213Y29830D01*
X423116Y29809D01*
X423017Y29791D01*
X422919Y29778D01*
X422819Y29768D01*
X422720Y29762D01*
X422620Y29760D01*
X407380Y29760D02*
X407280Y29762D01*
X407181Y29768D01*
X407081Y29778D01*
X406983Y29791D01*
X406884Y29809D01*
X406787Y29830D01*
X406691Y29855D01*
X406595Y29884D01*
X406501Y29917D01*
X406408Y29953D01*
X406317Y29993D01*
X406227Y30037D01*
X406139Y30084D01*
X406053Y30134D01*
X405969Y30188D01*
X405887Y30245D01*
X405808Y30305D01*
X405730Y30369D01*
X405656Y30435D01*
X405584Y30504D01*
X405515Y30576D01*
X405449Y30650D01*
X405385Y30728D01*
X405325Y30807D01*
X405268Y30889D01*
X405214Y30973D01*
X405164Y31059D01*
X405117Y31147D01*
X405073Y31237D01*
X405033Y31328D01*
X404997Y31421D01*
X404964Y31515D01*
X404935Y31611D01*
X404910Y31707D01*
X404889Y31804D01*
X404871Y31903D01*
X404858Y32001D01*
X404848Y32101D01*
X404842Y32200D01*
X404840Y32300D01*
X404840Y57700D02*
X404842Y57800D01*
X404848Y57899D01*
X404858Y57999D01*
X404871Y58097D01*
X404889Y58196D01*
X404910Y58293D01*
X404935Y58389D01*
X404964Y58485D01*
X404997Y58579D01*
X405033Y58672D01*
X405073Y58763D01*
X405117Y58853D01*
X405164Y58941D01*
X405214Y59027D01*
X405268Y59111D01*
X405325Y59193D01*
X405385Y59272D01*
X405449Y59350D01*
X405515Y59424D01*
X405584Y59496D01*
X405656Y59565D01*
X405730Y59631D01*
X405808Y59695D01*
X405887Y59755D01*
X405969Y59812D01*
X406053Y59866D01*
X406139Y59916D01*
X406227Y59963D01*
X406317Y60007D01*
X406408Y60047D01*
X406501Y60083D01*
X406595Y60116D01*
X406691Y60145D01*
X406787Y60170D01*
X406884Y60191D01*
X406983Y60209D01*
X407081Y60222D01*
X407181Y60232D01*
X407280Y60238D01*
X407380Y60240D01*
X422620Y60240D01*
X422620Y29760D02*
X407380Y29760D01*
X425160Y32300D02*
X425160Y57700D01*
X188636Y85160D02*
X171364Y85160D01*
X191176Y67380D02*
X191174Y67280D01*
X191168Y67181D01*
X191158Y67081D01*
X191145Y66983D01*
X191127Y66884D01*
X191106Y66787D01*
X191081Y66691D01*
X191052Y66595D01*
X191019Y66501D01*
X190983Y66408D01*
X190943Y66317D01*
X190899Y66227D01*
X190852Y66139D01*
X190802Y66053D01*
X190748Y65969D01*
X190691Y65887D01*
X190631Y65808D01*
X190567Y65730D01*
X190501Y65656D01*
X190432Y65584D01*
X190360Y65515D01*
X190286Y65449D01*
X190208Y65385D01*
X190129Y65325D01*
X190047Y65268D01*
X189963Y65214D01*
X189877Y65164D01*
X189789Y65117D01*
X189699Y65073D01*
X189608Y65033D01*
X189515Y64997D01*
X189421Y64964D01*
X189325Y64935D01*
X189229Y64910D01*
X189132Y64889D01*
X189033Y64871D01*
X188935Y64858D01*
X188835Y64848D01*
X188736Y64842D01*
X188636Y64840D01*
X171364Y64840D02*
X171264Y64842D01*
X171165Y64848D01*
X171065Y64858D01*
X170967Y64871D01*
X170868Y64889D01*
X170771Y64910D01*
X170675Y64935D01*
X170579Y64964D01*
X170485Y64997D01*
X170392Y65033D01*
X170301Y65073D01*
X170211Y65117D01*
X170123Y65164D01*
X170037Y65214D01*
X169953Y65268D01*
X169871Y65325D01*
X169792Y65385D01*
X169714Y65449D01*
X169640Y65515D01*
X169568Y65584D01*
X169499Y65656D01*
X169433Y65730D01*
X169369Y65808D01*
X169309Y65887D01*
X169252Y65969D01*
X169198Y66053D01*
X169148Y66139D01*
X169101Y66227D01*
X169057Y66317D01*
X169017Y66408D01*
X168981Y66501D01*
X168948Y66595D01*
X168919Y66691D01*
X168894Y66787D01*
X168873Y66884D01*
X168855Y66983D01*
X168842Y67081D01*
X168832Y67181D01*
X168826Y67280D01*
X168824Y67380D01*
X168824Y82620D02*
X168826Y82720D01*
X168832Y82819D01*
X168842Y82919D01*
X168855Y83017D01*
X168873Y83116D01*
X168894Y83213D01*
X168919Y83309D01*
X168948Y83405D01*
X168981Y83499D01*
X169017Y83592D01*
X169057Y83683D01*
X169101Y83773D01*
X169148Y83861D01*
X169198Y83947D01*
X169252Y84031D01*
X169309Y84113D01*
X169369Y84192D01*
X169433Y84270D01*
X169499Y84344D01*
X169568Y84416D01*
X169640Y84485D01*
X169714Y84551D01*
X169792Y84615D01*
X169871Y84675D01*
X169953Y84732D01*
X170037Y84786D01*
X170123Y84836D01*
X170211Y84883D01*
X170301Y84927D01*
X170392Y84967D01*
X170485Y85003D01*
X170579Y85036D01*
X170675Y85065D01*
X170771Y85090D01*
X170868Y85111D01*
X170967Y85129D01*
X171065Y85142D01*
X171165Y85152D01*
X171264Y85158D01*
X171364Y85160D01*
X188636Y85160D02*
X188736Y85158D01*
X188835Y85152D01*
X188935Y85142D01*
X189033Y85129D01*
X189132Y85111D01*
X189229Y85090D01*
X189325Y85065D01*
X189421Y85036D01*
X189515Y85003D01*
X189608Y84967D01*
X189699Y84927D01*
X189789Y84883D01*
X189877Y84836D01*
X189963Y84786D01*
X190047Y84732D01*
X190129Y84675D01*
X190208Y84615D01*
X190286Y84551D01*
X190360Y84485D01*
X190432Y84416D01*
X190501Y84344D01*
X190567Y84270D01*
X190631Y84192D01*
X190691Y84113D01*
X190748Y84031D01*
X190802Y83947D01*
X190852Y83861D01*
X190899Y83773D01*
X190943Y83683D01*
X190983Y83592D01*
X191019Y83499D01*
X191052Y83405D01*
X191081Y83309D01*
X191106Y83213D01*
X191127Y83116D01*
X191145Y83017D01*
X191158Y82919D01*
X191168Y82819D01*
X191174Y82720D01*
X191176Y82620D01*
X191176Y67380D01*
X168824Y67380D02*
X168824Y82620D01*
X171364Y64840D02*
X188636Y64840D01*
D13*
X188319Y52261D02*
X186947Y50889D01*
X185576Y50889D01*
X184204Y52261D01*
X184204Y59118D01*
X182833Y59118D02*
X185576Y59118D01*
X179111Y57747D02*
X177740Y59118D01*
X174997Y59118D01*
X173625Y57747D01*
X173625Y56375D01*
X174997Y55004D01*
X176368Y55004D01*
X174997Y55004D02*
X173625Y53632D01*
X173625Y52261D01*
X174997Y50889D01*
X177740Y50889D01*
X179111Y52261D01*
M02*
