<?xml version="1.0" encoding="UTF-8" standalone="no"?>
<svg
   xmlns:dc="http://purl.org/dc/elements/1.1/"
   xmlns:cc="http://creativecommons.org/ns#"
   xmlns:rdf="http://www.w3.org/1999/02/22-rdf-syntax-ns#"
   xmlns:svg="http://www.w3.org/2000/svg"
   xmlns="http://www.w3.org/2000/svg"
   xmlns:sodipodi="http://sodipodi.sourceforge.net/DTD/sodipodi-0.dtd"
   xmlns:inkscape="http://www.inkscape.org/namespaces/inkscape"
   version="1.1"
   id="svg833"
   xml:space="preserve"
   width="2468.8667"
   height="1673.7733"
   viewBox="0 0 2468.8667 1673.7733"
   sodipodi:docname="PlanktonScope Plan 5mm.svg"
   inkscape:version="1.0.1 (3bc2e813f5, 2020-09-07)"><metadata
     id="metadata839"><rdf:RDF><cc:Work
         rdf:about=""><dc:format>image/svg+xml</dc:format><dc:type
           rdf:resource="http://purl.org/dc/dcmitype/StillImage" /><dc:title></dc:title></cc:Work></rdf:RDF></metadata><defs
     id="defs837"><clipPath
       clipPathUnits="userSpaceOnUse"
       id="clipPath861"><path
         d="M 0,1255.334 H 1851.652 V 0 H 0 Z"
         id="path859" /></clipPath><clipPath
       clipPathUnits="userSpaceOnUse"
       id="clipPath1019"><path
         d="M 0,1255.334 H 1851.652 V 0 H 0 Z"
         id="path1017" /></clipPath><clipPath
       clipPathUnits="userSpaceOnUse"
       id="clipPath1131"><path
         d="M 0,1255.334 H 1851.652 V 0 H 0 Z"
         id="path1129" /></clipPath><clipPath
       clipPathUnits="userSpaceOnUse"
       id="clipPath1233"><path
         d="M 0,1255.334 H 1851.652 V 0 H 0 Z"
         id="path1231" /></clipPath><clipPath
       clipPathUnits="userSpaceOnUse"
       id="clipPath1289"><path
         d="M 0,1255.334 H 1851.652 V 0 H 0 Z"
         id="path1287" /></clipPath><clipPath
       clipPathUnits="userSpaceOnUse"
       id="clipPath1367"><path
         d="M 0,1255.334 H 1851.652 V 0 H 0 Z"
         id="path1365" /></clipPath><clipPath
       clipPathUnits="userSpaceOnUse"
       id="clipPath1387"><path
         d="M 0,1255.334 H 1851.652 V 0 H 0 Z"
         id="path1385" /></clipPath><clipPath
       clipPathUnits="userSpaceOnUse"
       id="clipPath1435"><path
         d="M 0,1255.334 H 1851.652 V 0 H 0 Z"
         id="path1433" /></clipPath><clipPath
       clipPathUnits="userSpaceOnUse"
       id="clipPath1495"><path
         d="M 0,1255.334 H 1851.652 V 0 H 0 Z"
         id="path1493" /></clipPath><clipPath
       clipPathUnits="userSpaceOnUse"
       id="clipPath1587"><path
         d="M 0,1255.334 H 1851.652 V 0 H 0 Z"
         id="path1585" /></clipPath><clipPath
       clipPathUnits="userSpaceOnUse"
       id="clipPath1663"><path
         d="M 0,1255.334 H 1851.652 V 0 H 0 Z"
         id="path1661" /></clipPath><clipPath
       clipPathUnits="userSpaceOnUse"
       id="clipPath1723"><path
         d="M 0,1255.334 H 1851.652 V 0 H 0 Z"
         id="path1721" /></clipPath><clipPath
       clipPathUnits="userSpaceOnUse"
       id="clipPath1749"><path
         d="M 0,1255.334 H 1851.652 V 0 H 0 Z"
         id="path1747" /></clipPath><clipPath
       clipPathUnits="userSpaceOnUse"
       id="clipPath1825"><path
         d="M 0,1255.334 H 1851.652 V 0 H 0 Z"
         id="path1823" /></clipPath></defs><sodipodi:namedview
     pagecolor="#ffffff"
     bordercolor="#666666"
     borderopacity="1"
     objecttolerance="10"
     gridtolerance="10"
     guidetolerance="10"
     inkscape:pageopacity="0"
     inkscape:pageshadow="2"
     inkscape:window-width="1920"
     inkscape:window-height="1001"
     id="namedview835"
     showgrid="false"
     inkscape:zoom="0.3576017"
     inkscape:cx="1488.6896"
     inkscape:cy="806.09255"
     inkscape:window-x="-9"
     inkscape:window-y="-9"
     inkscape:window-maximized="1"
     inkscape:current-layer="g841" /><g
     id="g841"
     inkscape:groupmode="layer"
     inkscape:label="PlanktonScope Plan 5mm"
     transform="matrix(1.3333333,0,0,-1.3333333,0,1673.7733)"><g
       id="g3122"><g
         id="g1709"
         transform="translate(1800.3096,778.7086)"><path
           d="M 0,0 H 15.307 V -19.843 H 29.48 V -34.725 H 15.307 v -24.802 h -42.52 v -14.174 h -57.862 v 14.174 h -57.862 v -14.174 h -85.04 v 14.174 h -57.862 v -14.174 h -57.862 v 14.174 h -42.52 v 24.802 h -14.173 v 14.882 h 14.173 V 0 h 15.308 v -3.26 h 5.952 v 15.024 h -5.952 v -3.26 h -15.308 v 19.843 h -14.173 v 14.882 h 14.173 v 24.802 h 42.52 v 14.174 h 57.862 V 68.031 h 57.862 v 14.174 h 85.04 V 68.031 h 57.862 v 14.174 h 57.862 V 68.031 h 42.52 V 43.229 H 29.48 V 28.347 H 15.307 V 8.504 H 0 v 3.26 H -5.953 V -3.26 H 0 Z"
           style="fill:none;stroke:#000000;stroke-width:0.709;stroke-linecap:round;stroke-linejoin:round;stroke-miterlimit:10;stroke-dasharray:none;stroke-opacity:1"
           id="path1711" /></g><g
         id="g2315"
         transform="matrix(-0.75000002,0,0,0.75000002,2644.6437,-2734.2248)"><path
           d="M 1607.0415,4702.0158 H 1392.9312"
           style="fill:none;stroke:#000000"
           id="path990" /><path
           d="m 1607.0415,4623.4016 v 78.6142"
           style="fill:none;stroke:#000000"
           id="path992" /><path
           d="m 1392.9312,4702.0158 v -78.6142"
           style="fill:none;stroke:#000000"
           id="path994" /><path
           d="m 1392.9312,4623.4016 h 214.1103"
           style="fill:none;stroke:#000000"
           id="path996" /></g></g><g
       id="g3056"><g
         id="g847"
         transform="translate(319.3203,806.5591)"><path
           d="M 0,0 H -297.638 V 429.874 H 0 v -14.173 h 106.583 v 14.173 h 185.386 v -14.173 h 191.339 v 14.173 H 582.52 V 0 H 483.308 V 14.173 H 291.969 V 0 H 106.583 V 14.173 H 0 Z"
           style="fill:none;stroke:#000000;stroke-width:0.709;stroke-linecap:round;stroke-linejoin:round;stroke-miterlimit:10;stroke-dasharray:none;stroke-opacity:1"
           id="path849" /></g><g
         id="g863"
         transform="translate(578.6904,1229.3463)"><path
           d="M 0,0 C 0,2.349 1.904,4.252 4.252,4.252 6.601,4.252 8.504,2.349 8.504,0 8.504,-2.348 6.601,-4.252 4.252,-4.252 1.904,-4.252 0,-2.348 0,0"
           style="fill:#ffffff;fill-opacity:1;fill-rule:nonzero;stroke:none"
           id="path865" /></g><g
         id="g867"
         transform="translate(578.6904,1229.3463)"><path
           d="M 0,0 C 0,2.349 1.904,4.252 4.252,4.252 6.601,4.252 8.504,2.349 8.504,0 8.504,-2.348 6.601,-4.252 4.252,-4.252 1.904,-4.252 0,-2.348 0,0 Z"
           style="fill:none;stroke:#000000;stroke-width:0.709;stroke-linecap:round;stroke-linejoin:round;stroke-miterlimit:10;stroke-dasharray:none;stroke-opacity:1"
           id="path869" /></g><g
         id="g871"
         transform="translate(152.0767,1229.3463)"><path
           d="M 0,0 C 0,2.349 1.903,4.252 4.252,4.252 6.6,4.252 8.504,2.349 8.504,0 8.504,-2.348 6.6,-4.252 4.252,-4.252 1.903,-4.252 0,-2.348 0,0"
           style="fill:#ffffff;fill-opacity:1;fill-rule:nonzero;stroke:none"
           id="path873" /></g><g
         id="g875"
         transform="translate(152.0767,1229.3463)"><path
           d="M 0,0 C 0,2.349 1.903,4.252 4.252,4.252 6.6,4.252 8.504,2.349 8.504,0 8.504,-2.348 6.6,-4.252 4.252,-4.252 1.903,-4.252 0,-2.348 0,0 Z"
           style="fill:none;stroke:#000000;stroke-width:0.709;stroke-linecap:round;stroke-linejoin:round;stroke-miterlimit:10;stroke-dasharray:none;stroke-opacity:1"
           id="path877" /></g><g
         id="g879"
         transform="translate(826.7217,814.6002)"><path
           d="M 0,0 C 0,2.349 1.904,4.252 4.252,4.252 6.601,4.252 8.504,2.349 8.504,0 8.504,-2.349 6.601,-4.252 4.252,-4.252 1.904,-4.252 0,-2.349 0,0"
           style="fill:#ffffff;fill-opacity:1;fill-rule:nonzero;stroke:none"
           id="path881" /></g><g
         id="g883"
         transform="translate(826.7217,814.6002)"><path
           d="M 0,0 C 0,2.349 1.904,4.252 4.252,4.252 6.601,4.252 8.504,2.349 8.504,0 8.504,-2.349 6.601,-4.252 4.252,-4.252 1.904,-4.252 0,-2.349 0,0 Z"
           style="fill:none;stroke:#000000;stroke-width:0.709;stroke-linecap:round;stroke-linejoin:round;stroke-miterlimit:10;stroke-dasharray:none;stroke-opacity:1"
           id="path885" /></g><g
         id="g887"
         transform="translate(826.7217,1229.3463)"><path
           d="M 0,0 C 0,2.349 1.904,4.252 4.252,4.252 6.601,4.252 8.504,2.349 8.504,0 8.504,-2.348 6.601,-4.252 4.252,-4.252 1.904,-4.252 0,-2.348 0,0"
           style="fill:#ffffff;fill-opacity:1;fill-rule:nonzero;stroke:none"
           id="path889" /></g><g
         id="g891"
         transform="translate(826.7217,1229.3463)"><path
           d="M 0,0 C 0,2.349 1.904,4.252 4.252,4.252 6.601,4.252 8.504,2.349 8.504,0 8.504,-2.348 6.601,-4.252 4.252,-4.252 1.904,-4.252 0,-2.348 0,0 Z"
           style="fill:none;stroke:#000000;stroke-width:0.709;stroke-linecap:round;stroke-linejoin:round;stroke-miterlimit:10;stroke-dasharray:none;stroke-opacity:1"
           id="path893" /></g><g
         id="g895"
         transform="translate(152.0767,814.6002)"><path
           d="M 0,0 C 0,2.349 1.903,4.252 4.252,4.252 6.6,4.252 8.504,2.349 8.504,0 8.504,-2.349 6.6,-4.252 4.252,-4.252 1.903,-4.252 0,-2.349 0,0"
           style="fill:#ffffff;fill-opacity:1;fill-rule:nonzero;stroke:none"
           id="path897" /></g><g
         id="g899"
         transform="translate(152.0767,814.6002)"><path
           d="M 0,0 C 0,2.349 1.903,4.252 4.252,4.252 6.6,4.252 8.504,2.349 8.504,0 8.504,-2.349 6.6,-4.252 4.252,-4.252 1.903,-4.252 0,-2.349 0,0 Z"
           style="fill:none;stroke:#000000;stroke-width:0.709;stroke-linecap:round;stroke-linejoin:round;stroke-miterlimit:10;stroke-dasharray:none;stroke-opacity:1"
           id="path901" /></g><g
         id="g903"
         transform="translate(578.6904,814.6002)"><path
           d="M 0,0 C 0,2.349 1.904,4.252 4.252,4.252 6.601,4.252 8.504,2.349 8.504,0 8.504,-2.349 6.601,-4.252 4.252,-4.252 1.904,-4.252 0,-2.349 0,0"
           style="fill:#ffffff;fill-opacity:1;fill-rule:nonzero;stroke:none"
           id="path905" /></g><g
         id="g907"
         transform="translate(578.6904,814.6002)"><path
           d="M 0,0 C 0,2.349 1.904,4.252 4.252,4.252 6.601,4.252 8.504,2.349 8.504,0 8.504,-2.349 6.601,-4.252 4.252,-4.252 1.904,-4.252 0,-2.349 0,0 Z"
           style="fill:none;stroke:#000000;stroke-width:0.709;stroke-linecap:round;stroke-linejoin:round;stroke-miterlimit:10;stroke-dasharray:none;stroke-opacity:1"
           id="path909" /></g><path
         d="m 859.32,1121.878 h 14.174 v 57.862 H 859.32 Z"
         style="fill:#ffffff;fill-opacity:1;fill-rule:nonzero;stroke:#000000;stroke-width:0.709;stroke-linecap:round;stroke-linejoin:round;stroke-miterlimit:10;stroke-dasharray:none;stroke-opacity:1"
         id="path911" /><g
         id="g913"
         transform="translate(596.9033,858.3365)"><path
           d="M 0,0 C 0,1.683 1.364,3.047 3.047,3.047 4.73,3.047 6.095,1.683 6.095,0 6.095,-1.683 4.73,-3.047 3.047,-3.047 1.364,-3.047 0,-1.683 0,0"
           style="fill:#ffffff;fill-opacity:1;fill-rule:nonzero;stroke:none"
           id="path915" /></g><g
         id="g917"
         transform="translate(596.9033,858.3365)"><path
           d="M 0,0 C 0,1.683 1.364,3.047 3.047,3.047 4.73,3.047 6.095,1.683 6.095,0 6.095,-1.683 4.73,-3.047 3.047,-3.047 1.364,-3.047 0,-1.683 0,0 Z"
           style="fill:none;stroke:#000000;stroke-width:0.709;stroke-linecap:round;stroke-linejoin:round;stroke-miterlimit:10;stroke-dasharray:none;stroke-opacity:1"
           id="path919" /></g><g
         id="g921"
         transform="translate(596.9033,1045.423)"><path
           d="M 0,0 C 0,1.683 1.364,3.047 3.047,3.047 4.73,3.047 6.095,1.683 6.095,0 6.095,-1.683 4.73,-3.047 3.047,-3.047 1.364,-3.047 0,-1.683 0,0"
           style="fill:#ffffff;fill-opacity:1;fill-rule:nonzero;stroke:none"
           id="path923" /></g><g
         id="g925"
         transform="translate(596.9033,1045.423)"><path
           d="M 0,0 C 0,1.683 1.364,3.047 3.047,3.047 4.73,3.047 6.095,1.683 6.095,0 6.095,-1.683 4.73,-3.047 3.047,-3.047 1.364,-3.047 0,-1.683 0,0 Z"
           style="fill:none;stroke:#000000;stroke-width:0.709;stroke-linecap:round;stroke-linejoin:round;stroke-miterlimit:10;stroke-dasharray:none;stroke-opacity:1"
           id="path927" /></g><g
         id="g929"
         transform="translate(761.3125,1045.423)"><path
           d="M 0,0 C 0,1.683 1.364,3.047 3.048,3.047 4.73,3.047 6.095,1.683 6.095,0 6.095,-1.683 4.73,-3.047 3.048,-3.047 1.364,-3.047 0,-1.683 0,0"
           style="fill:#ffffff;fill-opacity:1;fill-rule:nonzero;stroke:none"
           id="path931" /></g><g
         id="g933"
         transform="translate(761.3125,1045.423)"><path
           d="M 0,0 C 0,1.683 1.364,3.047 3.048,3.047 4.73,3.047 6.095,1.683 6.095,0 6.095,-1.683 4.73,-3.047 3.048,-3.047 1.364,-3.047 0,-1.683 0,0 Z"
           style="fill:none;stroke:#000000;stroke-width:0.709;stroke-linecap:round;stroke-linejoin:round;stroke-miterlimit:10;stroke-dasharray:none;stroke-opacity:1"
           id="path935" /></g><path
         d="M 64.203,1064.016 H 50.03 v -85.04 h 14.173 z"
         style="fill:#ffffff;fill-opacity:1;fill-rule:nonzero;stroke:#000000;stroke-width:0.709;stroke-linecap:round;stroke-linejoin:round;stroke-miterlimit:10;stroke-dasharray:none;stroke-opacity:1"
         id="path937" /><path
         d="M 64.203,1179.74 H 50.03 v -57.862 h 14.173 z"
         style="fill:#ffffff;fill-opacity:1;fill-rule:nonzero;stroke:#000000;stroke-width:0.709;stroke-linecap:round;stroke-linejoin:round;stroke-miterlimit:10;stroke-dasharray:none;stroke-opacity:1"
         id="path939" /><g
         id="g941"
         transform="translate(761.3125,858.3365)"><path
           d="M 0,0 C 0,1.683 1.364,3.047 3.048,3.047 4.73,3.047 6.095,1.683 6.095,0 6.095,-1.683 4.73,-3.047 3.048,-3.047 1.364,-3.047 0,-1.683 0,0"
           style="fill:#ffffff;fill-opacity:1;fill-rule:nonzero;stroke:none"
           id="path943" /></g><g
         id="g945"
         transform="translate(761.3125,858.3365)"><path
           d="M 0,0 C 0,1.683 1.364,3.047 3.048,3.047 4.73,3.047 6.095,1.683 6.095,0 6.095,-1.683 4.73,-3.047 3.048,-3.047 1.364,-3.047 0,-1.683 0,0 Z"
           style="fill:none;stroke:#000000;stroke-width:0.709;stroke-linecap:round;stroke-linejoin:round;stroke-miterlimit:10;stroke-dasharray:none;stroke-opacity:1"
           id="path947" /></g><path
         d="m 526.25,1121.878 h 28.347 v 57.862 H 526.25 Z"
         style="fill:#ffffff;fill-opacity:1;fill-rule:nonzero;stroke:#000000;stroke-width:0.709;stroke-linecap:round;stroke-linejoin:round;stroke-miterlimit:10;stroke-dasharray:none;stroke-opacity:1"
         id="path949" /><g
         id="g951"
         transform="translate(761.3125,997.2339)"><path
           d="M 0,0 C 0,1.683 1.364,3.047 3.048,3.047 4.73,3.047 6.095,1.683 6.095,0 6.095,-1.683 4.73,-3.047 3.048,-3.047 1.364,-3.047 0,-1.683 0,0"
           style="fill:#ffffff;fill-opacity:1;fill-rule:nonzero;stroke:none"
           id="path953" /></g><g
         id="g955"
         transform="translate(761.3125,997.2339)"><path
           d="M 0,0 C 0,1.683 1.364,3.047 3.048,3.047 4.73,3.047 6.095,1.683 6.095,0 6.095,-1.683 4.73,-3.047 3.048,-3.047 1.364,-3.047 0,-1.683 0,0 Z"
           style="fill:none;stroke:#000000;stroke-width:0.709;stroke-linecap:round;stroke-linejoin:round;stroke-miterlimit:10;stroke-dasharray:none;stroke-opacity:1"
           id="path957" /></g><g
         id="g959"
         transform="translate(596.9033,1184.3209)"><path
           d="M 0,0 C 0,1.683 1.364,3.047 3.047,3.047 4.73,3.047 6.095,1.683 6.095,0 6.095,-1.683 4.73,-3.047 3.047,-3.047 1.364,-3.047 0,-1.683 0,0"
           style="fill:#ffffff;fill-opacity:1;fill-rule:nonzero;stroke:none"
           id="path961" /></g><g
         id="g963"
         transform="translate(596.9033,1184.3209)"><path
           d="M 0,0 C 0,1.683 1.364,3.047 3.047,3.047 4.73,3.047 6.095,1.683 6.095,0 6.095,-1.683 4.73,-3.047 3.047,-3.047 1.364,-3.047 0,-1.683 0,0 Z"
           style="fill:none;stroke:#000000;stroke-width:0.709;stroke-linecap:round;stroke-linejoin:round;stroke-miterlimit:10;stroke-dasharray:none;stroke-opacity:1"
           id="path965" /></g><g
         id="g967"
         transform="translate(596.9033,997.2339)"><path
           d="M 0,0 C 0,1.683 1.364,3.047 3.047,3.047 4.73,3.047 6.095,1.683 6.095,0 6.095,-1.683 4.73,-3.047 3.047,-3.047 1.364,-3.047 0,-1.683 0,0"
           style="fill:#ffffff;fill-opacity:1;fill-rule:nonzero;stroke:none"
           id="path969" /></g><g
         id="g971"
         transform="translate(596.9033,997.2339)"><path
           d="M 0,0 C 0,1.683 1.364,3.047 3.047,3.047 4.73,3.047 6.095,1.683 6.095,0 6.095,-1.683 4.73,-3.047 3.047,-3.047 1.364,-3.047 0,-1.683 0,0 Z"
           style="fill:none;stroke:#000000;stroke-width:0.709;stroke-linecap:round;stroke-linejoin:round;stroke-miterlimit:10;stroke-dasharray:none;stroke-opacity:1"
           id="path973" /></g><path
         d="m 526.25,978.976 h 28.347 v 85.04 H 526.25 Z"
         style="fill:#ffffff;fill-opacity:1;fill-rule:nonzero;stroke:#000000;stroke-width:0.709;stroke-linecap:round;stroke-linejoin:round;stroke-miterlimit:10;stroke-dasharray:none;stroke-opacity:1"
         id="path975" /><path
         d="m 50.029,863.252 h 14.173 v 57.862 H 50.029 Z"
         style="fill:#ffffff;fill-opacity:1;fill-rule:nonzero;stroke:#000000;stroke-width:0.709;stroke-linecap:round;stroke-linejoin:round;stroke-miterlimit:10;stroke-dasharray:none;stroke-opacity:1"
         id="path977" /><g
         id="g979"
         transform="translate(276.8008,1064.0157)"><path
           d="M 0,0 H -28.346 V -85.04 H 0 v -57.862 h -28.346 v -57.862 h 234.141 v 57.862 h -14.173 v 57.862 h 14.173 V 0 h -14.173 v 57.862 h 14.173 v 57.862 H -28.346 V 57.862 H 0 Z"
           style="fill:#ffffff;fill-opacity:1;fill-rule:nonzero;stroke:none"
           id="path981" /></g><g
         id="g983"
         transform="translate(276.8008,1064.0157)"><path
           d="M 0,0 H -28.346 V -85.04 H 0 v -57.862 h -28.346 v -57.862 h 234.141 v 57.862 h -14.173 v 57.862 h 14.173 V 0 h -14.173 v 57.862 h 14.173 v 57.862 H -28.346 V 57.862 H 0 Z"
           style="fill:none;stroke:#000000;stroke-width:0.709;stroke-linecap:round;stroke-linejoin:round;stroke-miterlimit:10;stroke-dasharray:none;stroke-opacity:1"
           id="path985" /></g><g
         id="g987"
         transform="translate(761.3125,1184.3209)"><path
           d="M 0,0 C 0,1.683 1.364,3.047 3.048,3.047 4.73,3.047 6.095,1.683 6.095,0 6.095,-1.683 4.73,-3.047 3.048,-3.047 1.364,-3.047 0,-1.683 0,0"
           style="fill:#ffffff;fill-opacity:1;fill-rule:nonzero;stroke:none"
           id="path989" /></g><g
         id="g991"
         transform="translate(761.3125,1184.3209)"><path
           d="M 0,0 C 0,1.683 1.364,3.047 3.048,3.047 4.73,3.047 6.095,1.683 6.095,0 6.095,-1.683 4.73,-3.047 3.048,-3.047 1.364,-3.047 0,-1.683 0,0 Z"
           style="fill:none;stroke:#000000;stroke-width:0.709;stroke-linecap:round;stroke-linejoin:round;stroke-miterlimit:10;stroke-dasharray:none;stroke-opacity:1"
           id="path993" /></g><path
         d="m 859.32,978.976 h 14.174 v 85.04 H 859.32 Z"
         style="fill:#ffffff;fill-opacity:1;fill-rule:nonzero;stroke:#000000;stroke-width:0.709;stroke-linecap:round;stroke-linejoin:round;stroke-miterlimit:10;stroke-dasharray:none;stroke-opacity:1"
         id="path995" /><path
         d="m 554.596,921.114 h -28.347 v -57.862 h 28.347 z"
         style="fill:#ffffff;fill-opacity:1;fill-rule:nonzero;stroke:#000000;stroke-width:0.709;stroke-linecap:round;stroke-linejoin:round;stroke-miterlimit:10;stroke-dasharray:none;stroke-opacity:1"
         id="path997" /><path
         d="M 873.494,921.114 H 859.32 v -57.862 h 14.174 z"
         style="fill:#ffffff;fill-opacity:1;fill-rule:nonzero;stroke:#000000;stroke-width:0.709;stroke-linecap:round;stroke-linejoin:round;stroke-miterlimit:10;stroke-dasharray:none;stroke-opacity:1"
         id="path999" /></g><g
       id="g2942"><g
         id="g1117"
         transform="translate(21.6826,622.3072)"><path
           d="m 0,0 v -429.874 h 297.638 v 14.173 h 106.583 v -14.173 h 185.385 v 14.173 h 191.339 v -14.173 h 99.212 V 0 H 780.945 V -14.174 H 589.606 V 0 H 404.221 V -14.174 H 297.638 V 0 Z"
           style="fill:none;stroke:#000000;stroke-width:0.709;stroke-linecap:round;stroke-linejoin:round;stroke-miterlimit:10;stroke-dasharray:none;stroke-opacity:1"
           id="path1119" /></g><g
         id="g1133"
         transform="translate(578.6904,615.2203)"><path
           d="m 0,0 c 0,-2.349 1.904,-4.252 4.252,-4.252 2.349,0 4.252,1.903 4.252,4.252 0,2.349 -1.903,4.252 -4.252,4.252 C 1.904,4.252 0,2.349 0,0"
           style="fill:#ffffff;fill-opacity:1;fill-rule:nonzero;stroke:none"
           id="path1135" /></g><g
         id="g1137"
         transform="translate(578.6904,615.2203)"><path
           d="m 0,0 c 0,-2.349 1.904,-4.252 4.252,-4.252 2.349,0 4.252,1.903 4.252,4.252 0,2.349 -1.903,4.252 -4.252,4.252 C 1.904,4.252 0,2.349 0,0 Z"
           style="fill:none;stroke:#000000;stroke-width:0.709;stroke-linecap:round;stroke-linejoin:round;stroke-miterlimit:10;stroke-dasharray:none;stroke-opacity:1"
           id="path1139" /></g><g
         id="g1141"
         transform="translate(152.0767,615.2203)"><path
           d="M 0,0 C 0,-2.349 1.903,-4.252 4.252,-4.252 6.6,-4.252 8.504,-2.349 8.504,0 8.504,2.349 6.6,4.252 4.252,4.252 1.903,4.252 0,2.349 0,0"
           style="fill:#ffffff;fill-opacity:1;fill-rule:nonzero;stroke:none"
           id="path1143" /></g><g
         id="g1145"
         transform="translate(152.0767,615.2203)"><path
           d="M 0,0 C 0,-2.349 1.903,-4.252 4.252,-4.252 6.6,-4.252 8.504,-2.349 8.504,0 8.504,2.349 6.6,4.252 4.252,4.252 1.903,4.252 0,2.349 0,0 Z"
           style="fill:none;stroke:#000000;stroke-width:0.709;stroke-linecap:round;stroke-linejoin:round;stroke-miterlimit:10;stroke-dasharray:none;stroke-opacity:1"
           id="path1147" /></g><g
         id="g1149"
         transform="translate(826.7217,200.4742)"><path
           d="m 0,0 c 0,-2.349 1.904,-4.252 4.252,-4.252 2.349,0 4.252,1.903 4.252,4.252 0,2.349 -1.903,4.252 -4.252,4.252 C 1.904,4.252 0,2.349 0,0"
           style="fill:#ffffff;fill-opacity:1;fill-rule:nonzero;stroke:none"
           id="path1151" /></g><g
         id="g1153"
         transform="translate(826.7217,200.4742)"><path
           d="m 0,0 c 0,-2.349 1.904,-4.252 4.252,-4.252 2.349,0 4.252,1.903 4.252,4.252 0,2.349 -1.903,4.252 -4.252,4.252 C 1.904,4.252 0,2.349 0,0 Z"
           style="fill:none;stroke:#000000;stroke-width:0.709;stroke-linecap:round;stroke-linejoin:round;stroke-miterlimit:10;stroke-dasharray:none;stroke-opacity:1"
           id="path1155" /></g><g
         id="g1157"
         transform="translate(826.7217,615.2203)"><path
           d="m 0,0 c 0,-2.349 1.904,-4.252 4.252,-4.252 2.349,0 4.252,1.903 4.252,4.252 0,2.349 -1.903,4.252 -4.252,4.252 C 1.904,4.252 0,2.349 0,0"
           style="fill:#ffffff;fill-opacity:1;fill-rule:nonzero;stroke:none"
           id="path1159" /></g><g
         id="g1161"
         transform="translate(826.7217,615.2203)"><path
           d="m 0,0 c 0,-2.349 1.904,-4.252 4.252,-4.252 2.349,0 4.252,1.903 4.252,4.252 0,2.349 -1.903,4.252 -4.252,4.252 C 1.904,4.252 0,2.349 0,0 Z"
           style="fill:none;stroke:#000000;stroke-width:0.709;stroke-linecap:round;stroke-linejoin:round;stroke-miterlimit:10;stroke-dasharray:none;stroke-opacity:1"
           id="path1163" /></g><g
         id="g1165"
         transform="translate(152.0767,200.4742)"><path
           d="M 0,0 C 0,-2.349 1.903,-4.252 4.252,-4.252 6.6,-4.252 8.504,-2.349 8.504,0 8.504,2.349 6.6,4.252 4.252,4.252 1.903,4.252 0,2.349 0,0"
           style="fill:#ffffff;fill-opacity:1;fill-rule:nonzero;stroke:none"
           id="path1167" /></g><g
         id="g1169"
         transform="translate(152.0767,200.4742)"><path
           d="M 0,0 C 0,-2.349 1.903,-4.252 4.252,-4.252 6.6,-4.252 8.504,-2.349 8.504,0 8.504,2.349 6.6,4.252 4.252,4.252 1.903,4.252 0,2.349 0,0 Z"
           style="fill:none;stroke:#000000;stroke-width:0.709;stroke-linecap:round;stroke-linejoin:round;stroke-miterlimit:10;stroke-dasharray:none;stroke-opacity:1"
           id="path1171" /></g><g
         id="g1173"
         transform="translate(578.6904,200.4742)"><path
           d="m 0,0 c 0,-2.349 1.904,-4.252 4.252,-4.252 2.349,0 4.252,1.903 4.252,4.252 0,2.349 -1.903,4.252 -4.252,4.252 C 1.904,4.252 0,2.349 0,0"
           style="fill:#ffffff;fill-opacity:1;fill-rule:nonzero;stroke:none"
           id="path1175" /></g><g
         id="g1177"
         transform="translate(578.6904,200.4742)"><path
           d="m 0,0 c 0,-2.349 1.904,-4.252 4.252,-4.252 2.349,0 4.252,1.903 4.252,4.252 0,2.349 -1.903,4.252 -4.252,4.252 C 1.904,4.252 0,2.349 0,0 Z"
           style="fill:none;stroke:#000000;stroke-width:0.709;stroke-linecap:round;stroke-linejoin:round;stroke-miterlimit:10;stroke-dasharray:none;stroke-opacity:1"
           id="path1179" /></g><path
         d="M 50.029,449.889 H 64.202 V 364.85 H 50.029 Z"
         style="fill:#ffffff;fill-opacity:1;fill-rule:nonzero;stroke:#000000;stroke-width:0.709;stroke-linecap:round;stroke-linejoin:round;stroke-miterlimit:10;stroke-dasharray:none;stroke-opacity:1"
         id="path1181" /><path
         d="M 50.029,565.614 H 64.202 V 507.752 H 50.029 Z"
         style="fill:#ffffff;fill-opacity:1;fill-rule:nonzero;stroke:#000000;stroke-width:0.709;stroke-linecap:round;stroke-linejoin:round;stroke-miterlimit:10;stroke-dasharray:none;stroke-opacity:1"
         id="path1183" /><path
         d="M 64.203,249.126 H 50.03 v 57.862 h 14.173 z"
         style="fill:#ffffff;fill-opacity:1;fill-rule:nonzero;stroke:#000000;stroke-width:0.709;stroke-linecap:round;stroke-linejoin:round;stroke-miterlimit:10;stroke-dasharray:none;stroke-opacity:1"
         id="path1185" /><g
         id="g1187"
         transform="translate(248.4546,306.9879)"><path
           d="M 0,0 H 28.346 V 57.862 H 0 v 85.039 h 28.346 v 57.863 H 0 v 57.862 h 234.142 v -57.862 h -14.174 v -57.863 h 14.174 V 57.862 H 219.968 V 0 h 14.174 V -57.862 H 0 Z"
           style="fill:#ffffff;fill-opacity:1;fill-rule:nonzero;stroke:none"
           id="path1189" /></g><g
         id="g1191"
         transform="translate(248.4546,306.9879)"><path
           d="M 0,0 H 28.346 V 57.862 H 0 v 85.039 h 28.346 v 57.863 H 0 v 57.862 h 234.142 v -57.862 h -14.174 v -57.863 h 14.174 V 57.862 H 219.968 V 0 h 14.174 V -57.862 H 0 Z"
           style="fill:none;stroke:#000000;stroke-width:0.709;stroke-linecap:round;stroke-linejoin:round;stroke-miterlimit:10;stroke-dasharray:none;stroke-opacity:1"
           id="path1193" /></g><path
         d="M 873.494,249.126 H 859.32 v 57.862 h 14.174 z"
         style="fill:#ffffff;fill-opacity:1;fill-rule:nonzero;stroke:#000000;stroke-width:0.709;stroke-linecap:round;stroke-linejoin:round;stroke-miterlimit:10;stroke-dasharray:none;stroke-opacity:1"
         id="path1195" /><path
         d="m 554.596,249.126 h -28.347 v 57.862 h 28.347 z"
         style="fill:#ffffff;fill-opacity:1;fill-rule:nonzero;stroke:#000000;stroke-width:0.709;stroke-linecap:round;stroke-linejoin:round;stroke-miterlimit:10;stroke-dasharray:none;stroke-opacity:1"
         id="path1197" /><path
         d="m 526.25,449.889 h 28.347 V 364.85 H 526.25 Z"
         style="fill:#ffffff;fill-opacity:1;fill-rule:nonzero;stroke:#000000;stroke-width:0.709;stroke-linecap:round;stroke-linejoin:round;stroke-miterlimit:10;stroke-dasharray:none;stroke-opacity:1"
         id="path1199" /><path
         d="m 859.32,449.889 h 14.174 V 364.85 H 859.32 Z"
         style="fill:#ffffff;fill-opacity:1;fill-rule:nonzero;stroke:#000000;stroke-width:0.709;stroke-linecap:round;stroke-linejoin:round;stroke-miterlimit:10;stroke-dasharray:none;stroke-opacity:1"
         id="path1201" /><path
         d="m 526.25,565.614 h 28.347 V 507.752 H 526.25 Z"
         style="fill:#ffffff;fill-opacity:1;fill-rule:nonzero;stroke:#000000;stroke-width:0.709;stroke-linecap:round;stroke-linejoin:round;stroke-miterlimit:10;stroke-dasharray:none;stroke-opacity:1"
         id="path1203" /><g
         id="g1205"
         transform="translate(603.4941,313.6597)"><path
           d="m 0,0 c 0,-30.528 24.747,-55.276 55.275,-55.276 30.528,0 55.276,24.748 55.276,55.276 0,30.527 -24.748,55.275 -55.276,55.275 C 24.747,55.275 0,30.527 0,0"
           style="fill:#ffffff;fill-opacity:1;fill-rule:nonzero;stroke:none"
           id="path1207" /></g><g
         id="g1209"
         transform="translate(603.4941,313.6597)"><path
           d="m 0,0 c 0,-30.528 24.747,-55.276 55.275,-55.276 30.528,0 55.276,24.748 55.276,55.276 0,30.527 -24.748,55.275 -55.276,55.275 C 24.747,55.275 0,30.527 0,0 Z"
           style="fill:none;stroke:#000000;stroke-width:0.709;stroke-linecap:round;stroke-linejoin:round;stroke-miterlimit:10;stroke-dasharray:none;stroke-opacity:1"
           id="path1211" /></g><path
         d="m 859.32,565.614 h 14.174 V 507.752 H 859.32 Z"
         style="fill:#ffffff;fill-opacity:1;fill-rule:nonzero;stroke:#000000;stroke-width:0.709;stroke-linecap:round;stroke-linejoin:round;stroke-miterlimit:10;stroke-dasharray:none;stroke-opacity:1"
         id="path1213" /></g><g
       id="g2983"><g
         id="g1005"
         transform="translate(587.1943,665.9605)"><path
           d="M 0,0 V -15.307 H 24.095 V -29.48 h 191.339 v 14.173 h 24.093 V 0 h -3.259 v 5.953 h 15.024 V 0 h -3.261 v -15.307 h 66.615 V 112.252 H 248.031 V 96.945 h 3.261 v -5.953 h -15.024 v 5.953 h 3.259 v 15.307 h -24.093 v 14.173 H 24.095 V 112.252 H 0 V 96.945 h 3.26 v -5.953 h -15.024 v 5.953 h 3.26 v 15.307 h -152.787 v 14.173 h -106.583 v -14.173 h -158.74 V 96.945 h 3.26 v -5.953 h -15.024 v 5.953 h 3.26 v 15.307 H -565.512 V -15.307 h 130.394 V 0 h -3.26 v 5.953 h 15.024 V 0 h -3.26 v -15.307 h 158.74 V -29.48 h 106.583 v 14.173 H -8.504 V 0 h -3.26 V 5.953 H 3.26 V 0 Z"
           style="fill:none;stroke:#000000;stroke-width:0.709;stroke-linecap:round;stroke-linejoin:round;stroke-miterlimit:10;stroke-dasharray:none;stroke-opacity:1"
           id="path1007" /></g><g
         id="g1045"
         transform="translate(613.60412,739.74)"><path
           d="m 0,0 c -0.268,-2.154 0.314,-4.328 1.624,-6.06 2.777,-3.673 8.008,-4.4 11.682,-1.622 3.673,2.778 4.4,8.008 1.622,11.682 C 12.15,7.674 6.92,8.4 3.246,5.622 Z"
           style="fill:#ffffff;fill-opacity:1;fill-rule:nonzero;stroke:none"
           id="path1047" /></g><g
         id="g1049"
         transform="translate(613.60412,739.74)"><path
           d="m 0,0 c -0.268,-2.154 0.314,-4.328 1.624,-6.06 2.777,-3.673 8.008,-4.4 11.682,-1.622 3.673,2.778 4.4,8.008 1.622,11.682 C 12.15,7.674 6.92,8.4 3.246,5.622 Z"
           style="fill:none;stroke:#000000;stroke-width:0.709;stroke-linecap:round;stroke-linejoin:round;stroke-miterlimit:10;stroke-dasharray:none;stroke-opacity:1"
           id="path1051" /></g><path
         d="M 873.494,675.457 H 859.32 v 14.882 h 14.174 z"
         style="fill:#ffffff;fill-opacity:1;fill-rule:nonzero;stroke:#000000;stroke-width:0.709;stroke-linecap:round;stroke-linejoin:round;stroke-miterlimit:10;stroke-dasharray:none;stroke-opacity:1"
         id="path1061" /><path
         d="m 859.32,753.41 h 14.174 V 738.528 H 859.32 Z"
         style="fill:#ffffff;fill-opacity:1;fill-rule:nonzero;stroke:#000000;stroke-width:0.709;stroke-linecap:round;stroke-linejoin:round;stroke-miterlimit:10;stroke-dasharray:none;stroke-opacity:1"
         id="path1063" /><path
         d="m 482.596,675.457 h -14.173 v 14.882 h 14.173 z"
         style="fill:#ffffff;fill-opacity:1;fill-rule:nonzero;stroke:#000000;stroke-width:0.709;stroke-linecap:round;stroke-linejoin:round;stroke-miterlimit:10;stroke-dasharray:none;stroke-opacity:1"
         id="path1065" /><path
         d="m 276.801,675.457 h -28.346 v 14.882 h 28.346 z"
         style="fill:#ffffff;fill-opacity:1;fill-rule:nonzero;stroke:#000000;stroke-width:0.709;stroke-linecap:round;stroke-linejoin:round;stroke-miterlimit:10;stroke-dasharray:none;stroke-opacity:1"
         id="path1067" /><path
         d="M 50.029,753.41 H 64.202 V 738.528 H 50.029 Z"
         style="fill:#ffffff;fill-opacity:1;fill-rule:nonzero;stroke:#000000;stroke-width:0.709;stroke-linecap:round;stroke-linejoin:round;stroke-miterlimit:10;stroke-dasharray:none;stroke-opacity:1"
         id="path1069" /><path
         d="m 526.25,753.41 h 28.347 V 738.528 H 526.25 Z"
         style="fill:#ffffff;fill-opacity:1;fill-rule:nonzero;stroke:#000000;stroke-width:0.709;stroke-linecap:round;stroke-linejoin:round;stroke-miterlimit:10;stroke-dasharray:none;stroke-opacity:1"
         id="path1071" /><path
         d="m 554.596,675.457 h -28.347 v 14.882 h 28.347 z"
         style="fill:#ffffff;fill-opacity:1;fill-rule:nonzero;stroke:#000000;stroke-width:0.709;stroke-linecap:round;stroke-linejoin:round;stroke-miterlimit:10;stroke-dasharray:none;stroke-opacity:1"
         id="path1073" /><path
         d="m 248.455,753.41 h 28.346 v -14.882 h -28.346 z"
         style="fill:#ffffff;fill-opacity:1;fill-rule:nonzero;stroke:#000000;stroke-width:0.709;stroke-linecap:round;stroke-linejoin:round;stroke-miterlimit:10;stroke-dasharray:none;stroke-opacity:1"
         id="path1075" /><path
         d="m 468.423,753.41 h 14.173 v -14.882 h -14.173 z"
         style="fill:#ffffff;fill-opacity:1;fill-rule:nonzero;stroke:#000000;stroke-width:0.709;stroke-linecap:round;stroke-linejoin:round;stroke-miterlimit:10;stroke-dasharray:none;stroke-opacity:1"
         id="path1077" /><path
         d="M 64.203,675.457 H 50.03 v 14.882 h 14.173 z"
         style="fill:#ffffff;fill-opacity:1;fill-rule:nonzero;stroke:#000000;stroke-width:0.709;stroke-linecap:round;stroke-linejoin:round;stroke-miterlimit:10;stroke-dasharray:none;stroke-opacity:1"
         id="path1079" /><g
         id="g1081"
         transform="translate(52.8638,714.4332)"><path
           d="M 0,0 C 0,-2.349 1.904,-4.252 4.252,-4.252 6.6,-4.252 8.504,-2.349 8.504,0 8.504,2.348 6.6,4.252 4.252,4.252 1.904,4.252 0,2.348 0,0"
           style="fill:#ffffff;fill-opacity:1;fill-rule:nonzero;stroke:none"
           id="path1083" /></g><g
         id="g1085"
         transform="translate(52.8638,714.4332)"><path
           d="M 0,0 C 0,-2.349 1.904,-4.252 4.252,-4.252 6.6,-4.252 8.504,-2.349 8.504,0 8.504,2.348 6.6,4.252 4.252,4.252 1.904,4.252 0,2.348 0,0 Z"
           style="fill:none;stroke:#000000;stroke-width:0.709;stroke-linecap:round;stroke-linejoin:round;stroke-miterlimit:10;stroke-dasharray:none;stroke-opacity:1"
           id="path1087" /></g><g
         id="g1089"
         transform="translate(862.1553,714.4332)"><path
           d="m 0,0 c 0,-2.349 1.903,-4.252 4.252,-4.252 2.349,0 4.252,1.903 4.252,4.252 0,2.348 -1.903,4.252 -4.252,4.252 C 1.903,4.252 0,2.348 0,0"
           style="fill:#ffffff;fill-opacity:1;fill-rule:nonzero;stroke:none"
           id="path1091" /></g><g
         id="g1093"
         transform="translate(862.1553,714.4332)"><path
           d="m 0,0 c 0,-2.349 1.903,-4.252 4.252,-4.252 2.349,0 4.252,1.903 4.252,4.252 0,2.348 -1.903,4.252 -4.252,4.252 C 1.903,4.252 0,2.348 0,0 Z"
           style="fill:none;stroke:#000000;stroke-width:0.709;stroke-linecap:round;stroke-linejoin:round;stroke-miterlimit:10;stroke-dasharray:none;stroke-opacity:1"
           id="path1095" /></g><g
         id="g1097"
         transform="translate(76.1221,714.4332)"><path
           d="M 0,0 C 0,-16.9 13.7,-30.601 30.6,-30.601 47.5,-30.601 61.2,-16.9 61.2,0 61.2,16.899 47.5,30.6 30.6,30.6 13.7,30.6 0,16.899 0,0"
           style="fill:#ffffff;fill-opacity:1;fill-rule:nonzero;stroke:none"
           id="path1099" /></g><g
         id="g1101"
         transform="translate(76.1221,714.4332)"><path
           d="M 0,0 C 0,-16.9 13.7,-30.601 30.6,-30.601 47.5,-30.601 61.2,-16.9 61.2,0 61.2,16.899 47.5,30.6 30.6,30.6 13.7,30.6 0,16.899 0,0 Z"
           style="fill:none;stroke:#000000;stroke-width:0.709;stroke-linecap:round;stroke-linejoin:round;stroke-miterlimit:10;stroke-dasharray:none;stroke-opacity:1"
           id="path1103" /></g><g
         id="g1105"
         transform="translate(175.3345,714.4332)"><path
           d="M 0,0 C 0,-16.9 13.7,-30.601 30.6,-30.601 47.5,-30.601 61.2,-16.9 61.2,0 61.2,16.899 47.5,30.6 30.6,30.6 13.7,30.6 0,16.899 0,0"
           style="fill:#ffffff;fill-opacity:1;fill-rule:nonzero;stroke:none"
           id="path1107" /></g><g
         id="g1109"
         transform="translate(175.3345,714.4332)"><path
           d="M 0,0 C 0,-16.9 13.7,-30.601 30.6,-30.601 47.5,-30.601 61.2,-16.9 61.2,0 61.2,16.899 47.5,30.6 30.6,30.6 13.7,30.6 0,16.899 0,0 Z"
           style="fill:none;stroke:#000000;stroke-width:0.709;stroke-linecap:round;stroke-linejoin:round;stroke-miterlimit:10;stroke-dasharray:none;stroke-opacity:1"
           id="path1111" /></g><path
         d="M 319.07314,776.7124 V 792.303"
         style="fill:none;stroke:#000000;stroke-width:0.75"
         id="path212" /><path
         d="M 319.07314,792.303 H 424.23852"
         style="fill:none;stroke:#000000;stroke-width:0.75"
         id="path214" /><path
         d="m 612.68052,662.9456 95.55008,0.01"
         style="fill:none;stroke:#000000;stroke-width:0.75"
         id="path1314" /><path
         d="m 708.22813,694.1342 a 15.590552,15.590552 0 1 0 0,-31.1811"
         style="fill:none;stroke:#000000;stroke-width:0.75"
         id="path1316" /><path
         d="m 708.22813,694.1342 -95.55001,-0.01"
         style="fill:none;stroke:#000000;stroke-width:0.75"
         id="path1318" /><path
         d="m 612.68052,662.9456 a 15.590552,15.590552 0 0 0 0,31.1811"
         style="fill:none;stroke:#000000;stroke-width:0.75"
         id="path1320" /><path
         d="m 775.73458,746.24 a 14.4567,14.4567 0 1 0 -28.9134,0 14.4567,14.4567 0 1 0 28.9134,0 z"
         style="fill:none;stroke:#000000;stroke-width:0.75"
         id="path1322" /></g><g
       id="g2865"><g
         id="g1219"
         transform="translate(587.1943,36.5279)"><path
           d="m 0,0 v 15.307 h 3.26 v 5.953 h -15.024 v -5.953 h 3.26 V 0 H -161.291 V -14.174 H -267.874 V 0 h -158.74 v 15.307 h 3.26 v 5.953 h -15.024 v -5.953 h 3.26 V 0 h -130.394 v 127.559 h 130.394 v -15.307 h -3.26 v -5.953 h 15.024 v 5.953 h -3.26 v 15.307 h 158.74 v 14.172 h 106.583 V 127.559 H -7.2520001 V 112.252 H -11.764 v -5.953 H 3.26 v 5.953 H 0 v 15.307 h 24.095 v 14.172 h 191.339 v -14.172 h 24.093 v -15.307 h -3.259 v -5.953 h 15.024 v 5.953 h -3.261 v 15.307 h 66.615 V 0 h -66.615 v 15.307 h 3.261 v 5.953 h -15.024 v -5.953 h 3.259 V 0 H 215.434 V -14.174 H 24.095 V 0 Z"
           style="fill:none;stroke:#000000;stroke-width:0.709;stroke-linecap:round;stroke-linejoin:round;stroke-miterlimit:10;stroke-dasharray:none;stroke-opacity:1"
           id="path1221"
           sodipodi:nodetypes="ccccccccccccccccccccccccccccccccccccccccccccccccccccccccccccccccccccc" /></g><g
         id="g1235"
         transform="translate(862.1553,100.3072)"><path
           d="M 0,0 C 0,2.348 1.903,4.252 4.252,4.252 6.601,4.252 8.504,2.348 8.504,0 8.504,-2.349 6.601,-4.252 4.252,-4.252 1.903,-4.252 0,-2.349 0,0"
           style="fill:#ffffff;fill-opacity:1;fill-rule:nonzero;stroke:none"
           id="path1237" /></g><g
         id="g1239"
         transform="translate(862.1553,100.3072)"><path
           d="M 0,0 C 0,2.348 1.903,4.252 4.252,4.252 6.601,4.252 8.504,2.348 8.504,0 8.504,-2.349 6.601,-4.252 4.252,-4.252 1.903,-4.252 0,-2.349 0,0 Z"
           style="fill:none;stroke:#000000;stroke-width:0.709;stroke-linecap:round;stroke-linejoin:round;stroke-miterlimit:10;stroke-dasharray:none;stroke-opacity:1"
           id="path1241" /></g><g
         id="g1243"
         transform="translate(52.8638,100.3072)"><path
           d="M 0,0 C 0,2.348 1.904,4.252 4.252,4.252 6.6,4.252 8.504,2.348 8.504,0 8.504,-2.349 6.6,-4.252 4.252,-4.252 1.904,-4.252 0,-2.349 0,0"
           style="fill:#ffffff;fill-opacity:1;fill-rule:nonzero;stroke:none"
           id="path1245" /></g><g
         id="g1247"
         transform="translate(52.8638,100.3072)"><path
           d="M 0,0 C 0,2.348 1.904,4.252 4.252,4.252 6.6,4.252 8.504,2.348 8.504,0 8.504,-2.349 6.6,-4.252 4.252,-4.252 1.904,-4.252 0,-2.349 0,0 Z"
           style="fill:none;stroke:#000000;stroke-width:0.709;stroke-linecap:round;stroke-linejoin:round;stroke-miterlimit:10;stroke-dasharray:none;stroke-opacity:1"
           id="path1249" /></g><path
         d="m 468.423,61.331 h 14.173 v 14.882 h -14.173 z"
         style="fill:#ffffff;fill-opacity:1;fill-rule:nonzero;stroke:#000000;stroke-width:0.709;stroke-linecap:round;stroke-linejoin:round;stroke-miterlimit:10;stroke-dasharray:none;stroke-opacity:1"
         id="path1251" /><path
         d="m 276.801,139.284 h -28.346 v -14.882 h 28.346 z"
         style="fill:#ffffff;fill-opacity:1;fill-rule:nonzero;stroke:#000000;stroke-width:0.709;stroke-linecap:round;stroke-linejoin:round;stroke-miterlimit:10;stroke-dasharray:none;stroke-opacity:1"
         id="path1253" /><path
         d="m 482.596,139.284 h -14.173 v -14.882 h 14.173 z"
         style="fill:#ffffff;fill-opacity:1;fill-rule:nonzero;stroke:#000000;stroke-width:0.709;stroke-linecap:round;stroke-linejoin:round;stroke-miterlimit:10;stroke-dasharray:none;stroke-opacity:1"
         id="path1255" /><path
         d="M 64.203,139.284 H 50.03 v -14.882 h 14.173 z"
         style="fill:#ffffff;fill-opacity:1;fill-rule:nonzero;stroke:#000000;stroke-width:0.709;stroke-linecap:round;stroke-linejoin:round;stroke-miterlimit:10;stroke-dasharray:none;stroke-opacity:1"
         id="path1257" /><path
         d="m 554.596,139.284 h -28.347 v -14.882 h 28.347 z"
         style="fill:#ffffff;fill-opacity:1;fill-rule:nonzero;stroke:#000000;stroke-width:0.709;stroke-linecap:round;stroke-linejoin:round;stroke-miterlimit:10;stroke-dasharray:none;stroke-opacity:1"
         id="path1259" /><path
         d="m 526.25,61.331 h 28.347 V 76.213 H 526.25 Z"
         style="fill:#ffffff;fill-opacity:1;fill-rule:nonzero;stroke:#000000;stroke-width:0.709;stroke-linecap:round;stroke-linejoin:round;stroke-miterlimit:10;stroke-dasharray:none;stroke-opacity:1"
         id="path1261" /><path
         d="m 248.455,61.331 h 28.346 v 14.882 h -28.346 z"
         style="fill:#ffffff;fill-opacity:1;fill-rule:nonzero;stroke:#000000;stroke-width:0.709;stroke-linecap:round;stroke-linejoin:round;stroke-miterlimit:10;stroke-dasharray:none;stroke-opacity:1"
         id="path1263" /><path
         d="M 50.029,61.331 H 64.202 V 76.213 H 50.029 Z"
         style="fill:#ffffff;fill-opacity:1;fill-rule:nonzero;stroke:#000000;stroke-width:0.709;stroke-linecap:round;stroke-linejoin:round;stroke-miterlimit:10;stroke-dasharray:none;stroke-opacity:1"
         id="path1265" /><path
         d="M 873.494,139.284 H 859.32 v -14.882 h 14.174 z"
         style="fill:#ffffff;fill-opacity:1;fill-rule:nonzero;stroke:#000000;stroke-width:0.709;stroke-linecap:round;stroke-linejoin:round;stroke-miterlimit:10;stroke-dasharray:none;stroke-opacity:1"
         id="path1267" /><path
         d="m 859.32,61.331 h 14.174 V 76.213 H 859.32 Z"
         style="fill:#ffffff;fill-opacity:1;fill-rule:nonzero;stroke:#000000;stroke-width:0.709;stroke-linecap:round;stroke-linejoin:round;stroke-miterlimit:10;stroke-dasharray:none;stroke-opacity:1"
         id="path1269" /></g><g
       id="g3077"><g
         id="g1275"
         transform="translate(1348.1689,1147.2125)"><path
           d="M 0,0 H 15.308 V -19.842 H 29.48 V -34.725 H 15.308 v -24.802 h -42.52 v -14.174 h -57.862 v 14.174 h -57.863 v -14.174 h -85.039 v 14.174 h -57.862 V -73.701 H -343.7 v 14.174 h -42.52 v 24.802 h -14.174 v 14.883 h 14.174 V 0 h 15.307 v -3.26 h 5.953 v 15.024 h -5.953 v -3.26 h -15.307 v 19.843 h -14.174 v 14.882 h 14.174 v 24.803 h 42.52 v 14.173 h 57.862 V 68.032 h 57.862 v 14.173 h 85.039 V 68.032 h 57.863 v 14.173 h 57.862 V 68.032 h 42.52 V 43.229 H 29.48 V 28.347 H 15.308 V 8.504 H 0 v 3.26 H -5.952 V -3.26 H 0 Z"
           style="fill:none;stroke:#000000;stroke-width:0.709;stroke-linecap:round;stroke-linejoin:round;stroke-miterlimit:10;stroke-dasharray:none;stroke-opacity:1"
           id="path1277" /></g><g
         id="g1291"
         transform="translate(1288.6875,1192.2408)"><path
           d="M 0,0 C 0,4.697 3.807,8.504 8.504,8.504 13.2,8.504 17.008,4.697 17.008,0 17.008,-4.697 13.2,-8.504 8.504,-8.504 3.807,-8.504 0,-4.697 0,0"
           style="fill:#ffffff;fill-opacity:1;fill-rule:nonzero;stroke:none"
           id="path1293" /></g><g
         id="g1295"
         transform="translate(1288.6875,1192.2408)"><path
           d="M 0,0 C 0,4.697 3.807,8.504 8.504,8.504 13.2,8.504 17.008,4.697 17.008,0 17.008,-4.697 13.2,-8.504 8.504,-8.504 3.807,-8.504 0,-4.697 0,0 Z"
           style="fill:none;stroke:#000000;stroke-width:0.709;stroke-linecap:round;stroke-linejoin:round;stroke-miterlimit:10;stroke-dasharray:none;stroke-opacity:1"
           id="path1297" /></g><g
         id="g1299"
         transform="translate(1089.0117,1151.4645)"><path
           d="M 0,0 C 0,2.348 1.904,4.252 4.252,4.252 6.601,4.252 8.504,2.348 8.504,0 8.504,-2.348 6.601,-4.252 4.252,-4.252 1.904,-4.252 0,-2.348 0,0"
           style="fill:#ffffff;fill-opacity:1;fill-rule:nonzero;stroke:none"
           id="path1301" /></g><g
         id="g1303"
         transform="translate(1089.0117,1151.4645)"><path
           d="M 0,0 C 0,2.348 1.904,4.252 4.252,4.252 6.601,4.252 8.504,2.348 8.504,0 8.504,-2.348 6.601,-4.252 4.252,-4.252 1.904,-4.252 0,-2.348 0,0 Z"
           style="fill:none;stroke:#000000;stroke-width:0.709;stroke-linecap:round;stroke-linejoin:round;stroke-miterlimit:10;stroke-dasharray:none;stroke-opacity:1"
           id="path1305" /></g><g
         id="g1307"
         transform="translate(1288.6875,1110.6881)"><path
           d="M 0,0 C 0,4.697 3.807,8.504 8.504,8.504 13.2,8.504 17.008,4.697 17.008,0 17.008,-4.697 13.2,-8.504 8.504,-8.504 3.807,-8.504 0,-4.697 0,0"
           style="fill:#ffffff;fill-opacity:1;fill-rule:nonzero;stroke:none"
           id="path1309" /></g><g
         id="g1311"
         transform="translate(1288.6875,1110.6881)"><path
           d="M 0,0 C 0,4.697 3.807,8.504 8.504,8.504 13.2,8.504 17.008,4.697 17.008,0 17.008,-4.697 13.2,-8.504 8.504,-8.504 3.807,-8.504 0,-4.697 0,0 Z"
           style="fill:none;stroke:#000000;stroke-width:0.709;stroke-linecap:round;stroke-linejoin:round;stroke-miterlimit:10;stroke-dasharray:none;stroke-opacity:1"
           id="path1313" /></g><g
         id="g1315"
         transform="translate(1227.9092,1151.4645)"><path
           d="M 0,0 C 0,2.348 1.904,4.252 4.252,4.252 6.601,4.252 8.504,2.348 8.504,0 8.504,-2.348 6.601,-4.252 4.252,-4.252 1.904,-4.252 0,-2.348 0,0"
           style="fill:#ffffff;fill-opacity:1;fill-rule:nonzero;stroke:none"
           id="path1317" /></g><g
         id="g1319"
         transform="translate(1227.9092,1151.4645)"><path
           d="M 0,0 C 0,2.348 1.904,4.252 4.252,4.252 6.601,4.252 8.504,2.348 8.504,0 8.504,-2.348 6.601,-4.252 4.252,-4.252 1.904,-4.252 0,-2.348 0,0 Z"
           style="fill:none;stroke:#000000;stroke-width:0.709;stroke-linecap:round;stroke-linejoin:round;stroke-miterlimit:10;stroke-dasharray:none;stroke-opacity:1"
           id="path1321" /></g><path
         d="m 1107.438,1096.189 h 110.551 v 110.551 h -110.551 z"
         style="fill:#ffffff;fill-opacity:1;fill-rule:nonzero;stroke:#000000;stroke-width:0.709;stroke-linecap:round;stroke-linejoin:round;stroke-miterlimit:10;stroke-dasharray:none;stroke-opacity:1"
         id="path1323" /></g><g
       id="g1329"
       transform="translate(1335.1299,1016.8189)"><path
         d="M 0,0 V 14.173 H -14.173 V 28.346 H -72.035 V 14.173 h -57.862 v 14.173 h -85.04 V 14.173 h -57.862 v 14.173 h -57.862 V 14.173 h -42.52 V -10.63 h -14.173 v -14.882 h 14.173 v -48.189 h -14.173 v -14.882 h 14.173 v -24.803 h 42.52 v -14.173 h 57.862 v 14.173 h 57.862 v -14.173 h 85.04 v 14.173 h 57.862 v -14.173 h 57.862 v 14.173 h 42.52 v 24.803 H 42.52 v 14.882 H 28.347 v 48.189 H 42.52 V -10.63 H 28.347 V 14.173 H 14.173 V 0 c 0,-3.914 -3.172,-7.087 -7.086,-7.087 C 3.173,-7.087 0,-3.914 0,0 Z"
         style="fill:none;stroke:#000000;stroke-width:0.709;stroke-linecap:round;stroke-linejoin:round;stroke-miterlimit:10;stroke-dasharray:none;stroke-opacity:1"
         id="path1331" /></g><g
       id="g1333"
       transform="translate(1240.9492,967.2125)"><path
         d="m 0,0 c 0,3.914 -3.173,7.086 -7.087,7.086 -3.914,0 -7.087,-3.172 -7.087,-7.086 0,-3.914 3.173,-7.086 7.087,-7.086 C -3.173,-7.086 0,-3.914 0,0"
         style="fill:#ffffff;fill-opacity:1;fill-rule:nonzero;stroke:none"
         id="path1335" /></g><g
       id="g1337"
       transform="translate(1240.9492,967.2125)"><path
         d="m 0,0 c 0,3.914 -3.173,7.086 -7.087,7.086 -3.914,0 -7.087,-3.172 -7.087,-7.086 0,-3.914 3.173,-7.086 7.087,-7.086 C -3.173,-7.086 0,-3.914 0,0 Z"
         style="fill:none;stroke:#000000;stroke-width:0.709;stroke-linecap:round;stroke-linejoin:round;stroke-miterlimit:10;stroke-dasharray:none;stroke-opacity:1"
         id="path1339" /></g><g
       id="g1341"
       transform="translate(1098.6494,967.2125)"><path
         d="M 0,0 C 0,3.914 -3.173,7.086 -7.086,7.086 -11,7.086 -14.173,3.914 -14.173,0 c 0,-3.914 3.173,-7.086 7.087,-7.086 C -3.173,-7.086 0,-3.914 0,0"
         style="fill:#ffffff;fill-opacity:1;fill-rule:nonzero;stroke:none"
         id="path1343" /></g><g
       id="g1345"
       transform="translate(1098.6494,967.2125)"><path
         d="M 0,0 C 0,3.914 -3.173,7.086 -7.086,7.086 -11,7.086 -14.173,3.914 -14.173,0 c 0,-3.914 3.173,-7.086 7.087,-7.086 C -3.173,-7.086 0,-3.914 0,0 Z"
         style="fill:none;stroke:#000000;stroke-width:0.709;stroke-linecap:round;stroke-linejoin:round;stroke-miterlimit:10;stroke-dasharray:none;stroke-opacity:1"
         id="path1347" /></g><g
       id="g1349"
       transform="translate(1158.4609,926.4361)"><path
         d="m 0,0 c 0,-2.348 1.903,-4.252 4.252,-4.252 h 106.132 c 2.347,0 4.252,1.904 4.252,4.252 0,2.348 -1.905,4.252 -4.252,4.252 H 8.504 v 29.489 c 1.14,0.689 2.095,1.644 2.783,2.783 2.349,3.886 1.103,8.939 -2.783,11.288 v 29.489 h 101.88 c 2.347,0 4.252,1.904 4.252,4.252 0,2.348 -1.905,4.252 -4.252,4.252 H 4.252 C 1.903,85.805 0,83.901 0,81.553 V 47.812 C -1.14,47.123 -2.095,46.168 -2.784,45.028 -5.132,41.143 -3.886,36.089 0,33.741 Z"
         style="fill:#ffffff;fill-opacity:1;fill-rule:nonzero;stroke:none"
         id="path1351" /></g><g
       id="g1353"
       transform="translate(1158.4609,926.4361)"><path
         d="m 0,0 c 0,-2.348 1.903,-4.252 4.252,-4.252 h 106.132 c 2.347,0 4.252,1.904 4.252,4.252 0,2.348 -1.905,4.252 -4.252,4.252 H 8.504 v 29.489 c 1.14,0.689 2.095,1.644 2.783,2.783 2.349,3.886 1.103,8.939 -2.783,11.288 v 29.489 h 101.88 c 2.347,0 4.252,1.904 4.252,4.252 0,2.348 -1.905,4.252 -4.252,4.252 H 4.252 C 1.903,85.805 0,83.901 0,81.553 V 47.812 C -1.14,47.123 -2.095,46.168 -2.784,45.028 -5.132,41.143 -3.886,36.089 0,33.741 Z"
         style="fill:none;stroke:#000000;stroke-width:0.709;stroke-linecap:round;stroke-linejoin:round;stroke-miterlimit:10;stroke-dasharray:none;stroke-opacity:1"
         id="path1355" /></g><g
       id="g3140"><g
         id="g1373"
         transform="translate(1349.3027,832.567)"><path
           d="M 0,0 V 14.173 H 14.174 V -10.63 H 28.347 V -25.512 H 14.174 V -73.701 H 28.347 V -88.583 H 14.174 v -24.803 h -42.52 v -14.174 h -57.862 v 14.174 h -57.862 v -14.174 h -85.039 v 14.174 h -57.863 v -14.174 h -57.862 v 14.174 h -42.52 v 24.803 h -14.173 v 14.882 h 14.173 v 48.189 h -14.173 v 14.882 h 14.173 v 24.803 h 42.52 v 14.173 h 57.862 V 14.173 h 57.863 v 14.173 h 85.039 V 14.173 h 57.862 v 14.173 h 57.862 V 14.173 h 14.173 V 0 c 0,-3.914 3.173,-7.087 7.087,-7.087 C -3.172,-7.087 0,-3.914 0,0 Z"
           style="fill:none;stroke:#000000;stroke-width:0.709;stroke-linecap:round;stroke-linejoin:round;stroke-miterlimit:10;stroke-dasharray:none;stroke-opacity:1"
           id="path1375" /></g><g
         id="g1389"
         transform="translate(1226.7754,782.9605)"><path
           d="m 0,0 c 0,3.914 3.173,7.087 7.087,7.087 3.914,0 7.087,-3.173 7.087,-7.087 0,-3.914 -3.173,-7.087 -7.087,-7.087 C 3.173,-7.087 0,-3.914 0,0"
           style="fill:#ffffff;fill-opacity:1;fill-rule:nonzero;stroke:none"
           id="path1391" /></g><g
         id="g1393"
         transform="translate(1226.7754,782.9605)"><path
           d="m 0,0 c 0,3.914 3.173,7.087 7.087,7.087 3.914,0 7.087,-3.173 7.087,-7.087 0,-3.914 -3.173,-7.087 -7.087,-7.087 C 3.173,-7.087 0,-3.914 0,0 Z"
           style="fill:none;stroke:#000000;stroke-width:0.709;stroke-linecap:round;stroke-linejoin:round;stroke-miterlimit:10;stroke-dasharray:none;stroke-opacity:1"
           id="path1395" /></g><path
         d="m 964.616,761.701 h 41.103 v 42.52 h -41.103 z"
         style="fill:#ffffff;fill-opacity:1;fill-rule:nonzero;stroke:#000000;stroke-width:0.709;stroke-linecap:round;stroke-linejoin:round;stroke-miterlimit:10;stroke-dasharray:none;stroke-opacity:1"
         id="path1397" /><path
         d="m 1360.475,804.22 h -41.103 V 761.7 h 41.103 z"
         style="fill:#ffffff;fill-opacity:1;fill-rule:nonzero;stroke:#000000;stroke-width:0.709;stroke-linecap:round;stroke-linejoin:round;stroke-miterlimit:10;stroke-dasharray:none;stroke-opacity:1"
         id="path1399" /><g
         id="g1401"
         transform="translate(1084.4766,782.9605)"><path
           d="M 0,0 C 0,3.914 3.173,7.087 7.087,7.087 11,7.087 14.173,3.914 14.173,0 14.173,-3.914 11,-7.087 7.087,-7.087 3.173,-7.087 0,-3.914 0,0"
           style="fill:#ffffff;fill-opacity:1;fill-rule:nonzero;stroke:none"
           id="path1403" /></g><g
         id="g1405"
         transform="translate(1084.4766,782.9605)"><path
           d="M 0,0 C 0,3.914 3.173,7.087 7.087,7.087 11,7.087 14.173,3.914 14.173,0 14.173,-3.914 11,-7.087 7.087,-7.087 3.173,-7.087 0,-3.914 0,0 Z"
           style="fill:none;stroke:#000000;stroke-width:0.709;stroke-linecap:round;stroke-linejoin:round;stroke-miterlimit:10;stroke-dasharray:none;stroke-opacity:1"
           id="path1407" /></g><g
         id="g1409"
         transform="translate(1155.8389,782.9605)"><path
           d="m 0,0 c 0,3.797 3.077,6.874 6.874,6.874 3.796,0 6.874,-3.077 6.874,-6.874 0,-3.797 -3.078,-6.874 -6.874,-6.874 C 3.077,-6.874 0,-3.797 0,0"
           style="fill:#ffffff;fill-opacity:1;fill-rule:nonzero;stroke:none"
           id="path1411" /></g><g
         id="g1413"
         transform="translate(1155.8389,782.9605)"><path
           d="m 0,0 c 0,3.797 3.077,6.874 6.874,6.874 3.796,0 6.874,-3.077 6.874,-6.874 0,-3.797 -3.078,-6.874 -6.874,-6.874 C 3.077,-6.874 0,-3.797 0,0 Z"
           style="fill:none;stroke:#000000;stroke-width:0.709;stroke-linecap:round;stroke-linejoin:round;stroke-miterlimit:10;stroke-dasharray:none;stroke-opacity:1"
           id="path1415" /></g></g><g
       id="g3164"><g
         id="g1421"
         transform="translate(1349.3027,648.315)"><path
           d="M 0,0 V 14.173 H 14.174 V -10.63 H 28.347 V -25.512 H -32.766 V -73.701 H 28.347 V -88.583 H 14.174 v -24.803 h -42.52 v -14.174 h -57.862 v 14.174 h -57.862 v -14.174 h -85.039 v 14.174 h -57.863 v -14.174 h -57.862 v 14.174 h -42.52 v 24.803 h -14.173 v 14.882 h 60.777 v 48.189 h -60.777 v 14.882 h 14.173 v 24.803 h 42.52 v 14.174 h 57.862 V 14.173 h 57.863 v 14.174 h 85.039 V 14.173 h 57.862 v 14.174 h 57.862 V 14.173 h 14.173 V 0 c 0,-3.914 3.173,-7.087 7.087,-7.087 C -3.172,-7.087 0,-3.914 0,0 Z"
           style="fill:none;stroke:#000000;stroke-width:0.709;stroke-linecap:round;stroke-linejoin:round;stroke-miterlimit:10;stroke-dasharray:none;stroke-opacity:1"
           id="path1423" /></g><g
         id="g1437"
         transform="translate(1132.1992,598.7086)"><path
           d="M 0,0 C 0,16.852 13.661,30.513 30.514,30.513 47.365,30.513 61.026,16.852 61.026,0 61.026,-16.852 47.365,-30.513 30.514,-30.513 13.661,-30.513 0,-16.852 0,0"
           style="fill:#ffffff;fill-opacity:1;fill-rule:nonzero;stroke:none"
           id="path1439" /></g><g
         id="g1441"
         transform="translate(1132.1992,598.7086)"><path
           d="M 0,0 C 0,16.852 13.661,30.513 30.514,30.513 47.365,30.513 61.026,16.852 61.026,0 61.026,-16.852 47.365,-30.513 30.514,-30.513 13.661,-30.513 0,-16.852 0,0 Z"
           style="fill:none;stroke:#000000;stroke-width:0.709;stroke-linecap:round;stroke-linejoin:round;stroke-miterlimit:10;stroke-dasharray:none;stroke-opacity:1"
           id="path1443" /></g><g
         id="g1445"
         transform="translate(1282.3926,648.6695)"><path
           d="m 0,0 c 0,4.579 3.712,8.291 8.292,8.291 4.579,0 8.291,-3.712 8.291,-8.291 0,-4.579 -3.712,-8.292 -8.291,-8.292 C 3.712,-8.292 0,-4.579 0,0"
           style="fill:#ffffff;fill-opacity:1;fill-rule:nonzero;stroke:none"
           id="path1447" /></g><g
         id="g1449"
         transform="translate(1282.3926,648.6695)"><path
           d="m 0,0 c 0,4.579 3.712,8.291 8.292,8.291 4.579,0 8.291,-3.712 8.291,-8.291 0,-4.579 -3.712,-8.292 -8.291,-8.292 C 3.712,-8.292 0,-4.579 0,0 Z"
           style="fill:none;stroke:#000000;stroke-width:0.709;stroke-linecap:round;stroke-linejoin:round;stroke-miterlimit:10;stroke-dasharray:none;stroke-opacity:1"
           id="path1451" /></g><g
         id="g1453"
         transform="translate(1282.3926,548.7476)"><path
           d="m 0,0 c 0,4.579 3.712,8.292 8.292,8.292 4.579,0 8.291,-3.713 8.291,-8.292 0,-4.579 -3.712,-8.291 -8.291,-8.291 C 3.712,-8.291 0,-4.579 0,0"
           style="fill:#ffffff;fill-opacity:1;fill-rule:nonzero;stroke:none"
           id="path1455" /></g><g
         id="g1457"
         transform="translate(1282.3926,548.7476)"><path
           d="m 0,0 c 0,4.579 3.712,8.292 8.292,8.292 4.579,0 8.291,-3.713 8.291,-8.292 0,-4.579 -3.712,-8.291 -8.291,-8.291 C 3.712,-8.291 0,-4.579 0,0 Z"
           style="fill:none;stroke:#000000;stroke-width:0.709;stroke-linecap:round;stroke-linejoin:round;stroke-miterlimit:10;stroke-dasharray:none;stroke-opacity:1"
           id="path1459" /></g><g
         id="g1461"
         transform="translate(1026.2822,648.6695)"><path
           d="m 0,0 c 0,4.579 3.713,8.291 8.292,8.291 4.579,0 8.291,-3.712 8.291,-8.291 0,-4.579 -3.712,-8.292 -8.291,-8.292 C 3.713,-8.292 0,-4.579 0,0"
           style="fill:#ffffff;fill-opacity:1;fill-rule:nonzero;stroke:none"
           id="path1463" /></g><g
         id="g1465"
         transform="translate(1026.2822,648.6695)"><path
           d="m 0,0 c 0,4.579 3.713,8.291 8.292,8.291 4.579,0 8.291,-3.712 8.291,-8.291 0,-4.579 -3.712,-8.292 -8.291,-8.292 C 3.713,-8.292 0,-4.579 0,0 Z"
           style="fill:none;stroke:#000000;stroke-width:0.709;stroke-linecap:round;stroke-linejoin:round;stroke-miterlimit:10;stroke-dasharray:none;stroke-opacity:1"
           id="path1467" /></g><g
         id="g1469"
         transform="translate(1026.2822,548.7476)"><path
           d="m 0,0 c 0,4.579 3.713,8.292 8.292,8.292 4.579,0 8.291,-3.713 8.291,-8.292 0,-4.579 -3.712,-8.291 -8.291,-8.291 C 3.713,-8.291 0,-4.579 0,0"
           style="fill:#ffffff;fill-opacity:1;fill-rule:nonzero;stroke:none"
           id="path1471" /></g><g
         id="g1473"
         transform="translate(1026.2822,548.7476)"><path
           d="m 0,0 c 0,4.579 3.713,8.292 8.292,8.292 4.579,0 8.291,-3.713 8.291,-8.292 0,-4.579 -3.712,-8.291 -8.291,-8.291 C 3.713,-8.291 0,-4.579 0,0 Z"
           style="fill:none;stroke:#000000;stroke-width:0.709;stroke-linecap:round;stroke-linejoin:round;stroke-miterlimit:10;stroke-dasharray:none;stroke-opacity:1"
           id="path1475" /></g></g><g
       id="g3204"><g
         id="g1481"
         transform="translate(1022.3271,364.8502)"><path
           d="m 0,0 c -4.697,0 -8.504,3.808 -8.504,8.504 v 110.552 c 0,4.696 3.807,8.504 8.504,8.504 h 280.771 c 4.697,0 8.504,-3.808 8.504,-8.504 V 8.504 C 289.275,3.808 285.468,0 280.771,0 Z"
           style="fill:none;stroke:#000000;stroke-width:0.709;stroke-linecap:round;stroke-linejoin:round;stroke-miterlimit:10;stroke-dasharray:none;stroke-opacity:1"
           id="path1483" /></g><g
         id="g1497"
         transform="translate(1026.2822,478.5904)"><path
           d="m 0,0 c 0,4.579 3.713,8.291 8.292,8.291 4.579,0 8.291,-3.712 8.291,-8.291 0,-4.579 -3.712,-8.291 -8.291,-8.291 C 3.713,-8.291 0,-4.579 0,0"
           style="fill:#ffffff;fill-opacity:1;fill-rule:nonzero;stroke:none"
           id="path1499" /></g><g
         id="g1501"
         transform="translate(1026.2822,478.5904)"><path
           d="m 0,0 c 0,4.579 3.713,8.291 8.292,8.291 4.579,0 8.291,-3.712 8.291,-8.291 0,-4.579 -3.712,-8.291 -8.291,-8.291 C 3.713,-8.291 0,-4.579 0,0 Z"
           style="fill:none;stroke:#000000;stroke-width:0.709;stroke-linecap:round;stroke-linejoin:round;stroke-miterlimit:10;stroke-dasharray:none;stroke-opacity:1"
           id="path1503" /></g><g
         id="g1505"
         transform="translate(1296.083,428.6295)"><path
           d="M 0,0 C 0,2.31 1.872,4.182 4.181,4.182 6.49,4.182 8.362,2.31 8.362,0 8.362,-2.309 6.49,-4.181 4.181,-4.181 1.872,-4.181 0,-2.309 0,0"
           style="fill:#ffffff;fill-opacity:1;fill-rule:nonzero;stroke:none"
           id="path1507" /></g><g
         id="g1509"
         transform="translate(1296.083,428.6295)"><path
           d="M 0,0 C 0,2.31 1.872,4.182 4.181,4.182 6.49,4.182 8.362,2.31 8.362,0 8.362,-2.309 6.49,-4.181 4.181,-4.181 1.872,-4.181 0,-2.309 0,0 Z"
           style="fill:none;stroke:#000000;stroke-width:0.709;stroke-linecap:round;stroke-linejoin:round;stroke-miterlimit:10;stroke-dasharray:none;stroke-opacity:1"
           id="path1511" /></g><g
         id="g1513"
         transform="translate(1282.3926,478.5904)"><path
           d="m 0,0 c 0,4.579 3.712,8.291 8.292,8.291 4.579,0 8.291,-3.712 8.291,-8.291 0,-4.579 -3.712,-8.291 -8.291,-8.291 C 3.712,-8.291 0,-4.579 0,0"
           style="fill:#ffffff;fill-opacity:1;fill-rule:nonzero;stroke:none"
           id="path1515" /></g><g
         id="g1517"
         transform="translate(1282.3926,478.5904)"><path
           d="m 0,0 c 0,4.579 3.712,8.291 8.292,8.291 4.579,0 8.291,-3.712 8.291,-8.291 0,-4.579 -3.712,-8.291 -8.291,-8.291 C 3.712,-8.291 0,-4.579 0,0 Z"
           style="fill:none;stroke:#000000;stroke-width:0.709;stroke-linecap:round;stroke-linejoin:round;stroke-miterlimit:10;stroke-dasharray:none;stroke-opacity:1"
           id="path1519" /></g><g
         id="g1521"
         transform="translate(1020.9805,428.6295)"><path
           d="M 0,0 C 0,2.31 1.872,4.182 4.181,4.182 6.49,4.182 8.362,2.31 8.362,0 8.362,-2.309 6.49,-4.181 4.181,-4.181 1.872,-4.181 0,-2.309 0,0"
           style="fill:#ffffff;fill-opacity:1;fill-rule:nonzero;stroke:none"
           id="path1523" /></g><g
         id="g1525"
         transform="translate(1020.9805,428.6295)"><path
           d="M 0,0 C 0,2.31 1.872,4.182 4.181,4.182 6.49,4.182 8.362,2.31 8.362,0 8.362,-2.309 6.49,-4.181 4.181,-4.181 1.872,-4.181 0,-2.309 0,0 Z"
           style="fill:none;stroke:#000000;stroke-width:0.709;stroke-linecap:round;stroke-linejoin:round;stroke-miterlimit:10;stroke-dasharray:none;stroke-opacity:1"
           id="path1527" /></g><g
         id="g1529"
         transform="translate(1282.3926,378.6695)"><path
           d="m 0,0 c 0,4.579 3.712,8.291 8.292,8.291 4.579,0 8.291,-3.712 8.291,-8.291 0,-4.579 -3.712,-8.292 -8.291,-8.292 C 3.712,-8.292 0,-4.579 0,0"
           style="fill:#ffffff;fill-opacity:1;fill-rule:nonzero;stroke:none"
           id="path1531" /></g><g
         id="g1533"
         transform="translate(1282.3926,378.6695)"><path
           d="m 0,0 c 0,4.579 3.712,8.291 8.292,8.291 4.579,0 8.291,-3.712 8.291,-8.291 0,-4.579 -3.712,-8.292 -8.291,-8.292 C 3.712,-8.292 0,-4.579 0,0 Z"
           style="fill:none;stroke:#000000;stroke-width:0.709;stroke-linecap:round;stroke-linejoin:round;stroke-miterlimit:10;stroke-dasharray:none;stroke-opacity:1"
           id="path1535" /></g><g
         id="g1537"
         transform="translate(1079.6318,428.6295)"><path
           d="m 0,0 c 0,6.497 5.267,11.764 11.764,11.764 6.497,0 11.763,-5.267 11.763,-11.764 0,-6.497 -5.266,-11.764 -11.763,-11.764 C 5.267,-11.764 0,-6.497 0,0"
           style="fill:#ffffff;fill-opacity:1;fill-rule:nonzero;stroke:none"
           id="path1539" /></g><g
         id="g1541"
         transform="translate(1079.6318,428.6295)"><path
           d="m 0,0 c 0,6.497 5.267,11.764 11.764,11.764 6.497,0 11.763,-5.267 11.763,-11.764 0,-6.497 -5.266,-11.764 -11.763,-11.764 C 5.267,-11.764 0,-6.497 0,0 Z"
           style="fill:none;stroke:#000000;stroke-width:0.709;stroke-linecap:round;stroke-linejoin:round;stroke-miterlimit:10;stroke-dasharray:none;stroke-opacity:1"
           id="path1543" /></g><g
         id="g1545"
         transform="translate(1162.6289,478.2359)"><path
           d="m 0,0 c -27.396,0.046 -49.644,-22.126 -49.689,-49.522 -0.047,-27.397 22.125,-49.644 49.522,-49.69 0.056,-10e-4 0.111,-10e-4 0.167,0"
           style="fill:#ffffff;fill-opacity:1;fill-rule:nonzero;stroke:#000000;stroke-width:0.709;stroke-linecap:round;stroke-linejoin:round;stroke-miterlimit:10;stroke-dasharray:none;stroke-opacity:1"
           id="path1547" /></g><g
         id="g1549"
         transform="translate(1162.6289,379.024)"><path
           d="M 0,0 C 27.396,-0.047 49.644,22.125 49.69,49.522 49.736,76.919 27.564,99.166 0.167,99.212 H 0"
           style="fill:#ffffff;fill-opacity:1;fill-rule:nonzero;stroke:#000000;stroke-width:0.709;stroke-linecap:round;stroke-linejoin:round;stroke-miterlimit:10;stroke-dasharray:none;stroke-opacity:1"
           id="path1551" /></g><g
         id="g1553"
         transform="translate(1221.9316,428.6295)"><path
           d="M 0,0 C 0,6.497 5.267,11.764 11.764,11.764 18.26,11.764 23.527,6.497 23.527,0 23.527,-6.497 18.26,-11.764 11.764,-11.764 5.267,-11.764 0,-6.497 0,0"
           style="fill:#ffffff;fill-opacity:1;fill-rule:nonzero;stroke:none"
           id="path1555" /></g><g
         id="g1557"
         transform="translate(1221.9316,428.6295)"><path
           d="M 0,0 C 0,6.497 5.267,11.764 11.764,11.764 18.26,11.764 23.527,6.497 23.527,0 23.527,-6.497 18.26,-11.764 11.764,-11.764 5.267,-11.764 0,-6.497 0,0 Z"
           style="fill:none;stroke:#000000;stroke-width:0.709;stroke-linecap:round;stroke-linejoin:round;stroke-miterlimit:10;stroke-dasharray:none;stroke-opacity:1"
           id="path1559" /></g><g
         id="g1561"
         transform="translate(1026.2822,378.6695)"><path
           d="m 0,0 c 0,4.579 3.713,8.291 8.292,8.291 4.579,0 8.291,-3.712 8.291,-8.291 0,-4.579 -3.712,-8.292 -8.291,-8.292 C 3.713,-8.292 0,-4.579 0,0"
           style="fill:#ffffff;fill-opacity:1;fill-rule:nonzero;stroke:none"
           id="path1563" /></g><g
         id="g1565"
         transform="translate(1026.2822,378.6695)"><path
           d="m 0,0 c 0,4.579 3.713,8.291 8.292,8.291 4.579,0 8.291,-3.712 8.291,-8.291 0,-4.579 -3.712,-8.292 -8.291,-8.292 C 3.713,-8.292 0,-4.579 0,0 Z"
           style="fill:none;stroke:#000000;stroke-width:0.709;stroke-linecap:round;stroke-linejoin:round;stroke-miterlimit:10;stroke-dasharray:none;stroke-opacity:1"
           id="path1567" /></g></g><g
       id="g3295"><g
         id="g3208"><g
           id="g1573"
           transform="translate(1303.0986,243.6695)"><path
             d="m 0,0 c 4.696,0 8.504,-3.808 8.504,-8.504 v -17.717 c 0,-4.696 -3.808,-8.504 -8.504,-8.504 h -289.275 v 26.221 c 0,4.696 3.806,8.504 8.504,8.504 h 17.007 v 58.11 h -17.007 c -4.698,0 -8.504,3.807 -8.504,8.504 V 84.33 c 0,4.697 3.806,8.504 8.504,8.504 H 0 c 4.696,0 8.504,-3.807 8.504,-8.504 V 66.614 C 8.504,61.917 4.696,58.11 0,58.11 H -17.008 V 0 Z"
             style="fill:none;stroke:#000000;stroke-width:0.709;stroke-linecap:round;stroke-linejoin:round;stroke-miterlimit:10;stroke-dasharray:none;stroke-opacity:1"
             id="path1575" /></g></g><g
         id="g1589"
         transform="translate(1113.1064,272.7242)"><path
           d="m 0,0 c 0,27.396 22.209,49.606 49.606,49.606 27.397,0 49.607,-22.21 49.607,-49.606 0,-27.396 -22.21,-49.606 -49.607,-49.606 C 22.209,-49.606 0,-27.396 0,0"
           style="fill:#ffffff;fill-opacity:1;fill-rule:nonzero;stroke:none"
           id="path1591" /></g><g
         id="g1593"
         transform="translate(1113.1064,272.7242)"><path
           d="m 0,0 c 0,27.396 22.209,49.606 49.606,49.606 27.397,0 49.607,-22.21 49.607,-49.606 0,-27.396 -22.21,-49.606 -49.607,-49.606 C 22.209,-49.606 0,-27.396 0,0 Z"
           style="fill:none;stroke:#000000;stroke-width:0.709;stroke-linecap:round;stroke-linejoin:round;stroke-miterlimit:10;stroke-dasharray:none;stroke-opacity:1"
           id="path1595" /></g><g
         id="g1597"
         transform="translate(1282.5605,222.7632)"><path
           d="M 0,0 C 0,4.58 3.712,8.292 8.291,8.292 12.87,8.292 16.582,4.58 16.582,0 16.582,-4.579 12.87,-8.291 8.291,-8.291 3.712,-8.291 0,-4.579 0,0"
           style="fill:#ffffff;fill-opacity:1;fill-rule:nonzero;stroke:none"
           id="path1599" /></g><g
         id="g1601"
         transform="translate(1282.5605,222.7632)"><path
           d="M 0,0 C 0,4.58 3.712,8.292 8.291,8.292 12.87,8.292 16.582,4.58 16.582,0 16.582,-4.579 12.87,-8.291 8.291,-8.291 3.712,-8.291 0,-4.579 0,0 Z"
           style="fill:none;stroke:#000000;stroke-width:0.709;stroke-linecap:round;stroke-linejoin:round;stroke-miterlimit:10;stroke-dasharray:none;stroke-opacity:1"
           id="path1603" /></g><g
         id="g1605"
         transform="translate(1083.2266,272.7242)"><path
           d="M 0,0 C 0,4.696 3.808,8.504 8.504,8.504 13.2,8.504 17.008,4.696 17.008,0 17.008,-4.696 13.2,-8.504 8.504,-8.504 3.808,-8.504 0,-4.696 0,0"
           style="fill:#ffffff;fill-opacity:1;fill-rule:nonzero;stroke:none"
           id="path1607" /></g><g
         id="g1609"
         transform="translate(1083.2266,272.7242)"><path
           d="M 0,0 C 0,4.696 3.808,8.504 8.504,8.504 13.2,8.504 17.008,4.696 17.008,0 17.008,-4.696 13.2,-8.504 8.504,-8.504 3.808,-8.504 0,-4.696 0,0 Z"
           style="fill:none;stroke:#000000;stroke-width:0.709;stroke-linecap:round;stroke-linejoin:round;stroke-miterlimit:10;stroke-dasharray:none;stroke-opacity:1"
           id="path1611" /></g><g
         id="g1613"
         transform="translate(1026.4502,322.6851)"><path
           d="m 0,0 c 0,4.579 3.712,8.291 8.291,8.291 4.579,0 8.291,-3.712 8.291,-8.291 0,-4.579 -3.712,-8.292 -8.291,-8.292 C 3.712,-8.292 0,-4.579 0,0"
           style="fill:#ffffff;fill-opacity:1;fill-rule:nonzero;stroke:none"
           id="path1615" /></g><g
         id="g1617"
         transform="translate(1026.4502,322.6851)"><path
           d="m 0,0 c 0,4.579 3.712,8.291 8.291,8.291 4.579,0 8.291,-3.712 8.291,-8.291 0,-4.579 -3.712,-8.292 -8.291,-8.292 C 3.712,-8.292 0,-4.579 0,0 Z"
           style="fill:none;stroke:#000000;stroke-width:0.709;stroke-linecap:round;stroke-linejoin:round;stroke-miterlimit:10;stroke-dasharray:none;stroke-opacity:1"
           id="path1619" /></g><g
         id="g1621"
         transform="translate(1225.5254,272.7242)"><path
           d="m 0,0 c 0,4.696 3.808,8.504 8.504,8.504 4.697,0 8.504,-3.808 8.504,-8.504 0,-4.696 -3.807,-8.504 -8.504,-8.504 C 3.808,-8.504 0,-4.696 0,0"
           style="fill:#ffffff;fill-opacity:1;fill-rule:nonzero;stroke:none"
           id="path1623" /></g><g
         id="g1625"
         transform="translate(1225.5254,272.7242)"><path
           d="m 0,0 c 0,4.696 3.808,8.504 8.504,8.504 4.697,0 8.504,-3.808 8.504,-8.504 0,-4.696 -3.807,-8.504 -8.504,-8.504 C 3.808,-8.504 0,-4.696 0,0 Z"
           style="fill:none;stroke:#000000;stroke-width:0.709;stroke-linecap:round;stroke-linejoin:round;stroke-miterlimit:10;stroke-dasharray:none;stroke-opacity:1"
           id="path1627" /></g><g
         id="g1629"
         transform="translate(1026.4502,222.7632)"><path
           d="M 0,0 C 0,4.58 3.712,8.292 8.291,8.292 12.87,8.292 16.582,4.58 16.582,0 16.582,-4.579 12.87,-8.291 8.291,-8.291 3.712,-8.291 0,-4.579 0,0"
           style="fill:#ffffff;fill-opacity:1;fill-rule:nonzero;stroke:none"
           id="path1631" /></g><g
         id="g1633"
         transform="translate(1026.4502,222.7632)"><path
           d="M 0,0 C 0,4.58 3.712,8.292 8.291,8.292 12.87,8.292 16.582,4.58 16.582,0 16.582,-4.579 12.87,-8.291 8.291,-8.291 3.712,-8.291 0,-4.579 0,0 Z"
           style="fill:none;stroke:#000000;stroke-width:0.709;stroke-linecap:round;stroke-linejoin:round;stroke-miterlimit:10;stroke-dasharray:none;stroke-opacity:1"
           id="path1635" /></g><g
         id="g1637"
         transform="translate(1282.5605,322.6851)"><path
           d="m 0,0 c 0,4.579 3.712,8.291 8.291,8.291 4.579,0 8.291,-3.712 8.291,-8.291 0,-4.579 -3.712,-8.292 -8.291,-8.292 C 3.712,-8.292 0,-4.579 0,0"
           style="fill:#ffffff;fill-opacity:1;fill-rule:nonzero;stroke:none"
           id="path1639" /></g><g
         id="g1641"
         transform="translate(1282.5605,322.6851)"><path
           d="m 0,0 c 0,4.579 3.712,8.291 8.291,8.291 4.579,0 8.291,-3.712 8.291,-8.291 0,-4.579 -3.712,-8.292 -8.291,-8.292 C 3.712,-8.292 0,-4.579 0,0 Z"
           style="fill:none;stroke:#000000;stroke-width:0.709;stroke-linecap:round;stroke-linejoin:round;stroke-miterlimit:10;stroke-dasharray:none;stroke-opacity:1"
           id="path1643" /></g></g><g
       id="g3262"><g
         id="g1665"
         transform="translate(1142.541,116.8189)"><path
           d="m 0,0 c 0,8.884 7.202,16.087 16.087,16.087 8.885,0 16.087,-7.203 16.087,-16.087 0,-8.885 -7.202,-16.087 -16.087,-16.087 C 7.202,-16.087 0,-8.885 0,0"
           style="fill:#ffffff;fill-opacity:1;fill-rule:nonzero;stroke:none"
           id="path1667" /></g><g
         id="g1669"
         transform="translate(1142.541,116.8189)"><path
           d="m 0,0 c 0,8.884 7.202,16.087 16.087,16.087 8.885,0 16.087,-7.203 16.087,-16.087 0,-8.885 -7.202,-16.087 -16.087,-16.087 C 7.202,-16.087 0,-8.885 0,0 Z"
           style="fill:none;stroke:#000000;stroke-width:0.709;stroke-linecap:round;stroke-linejoin:round;stroke-miterlimit:10;stroke-dasharray:none;stroke-opacity:1"
           id="path1671" /></g><g
         id="g1673"
         transform="translate(1278.3086,166.7798)"><path
           d="m 0,0 c 0,4.579 3.712,8.291 8.291,8.291 4.579,0 8.291,-3.712 8.291,-8.291 0,-4.58 -3.712,-8.292 -8.291,-8.292 C 3.712,-8.292 0,-4.58 0,0"
           style="fill:#ffffff;fill-opacity:1;fill-rule:nonzero;stroke:none"
           id="path1675" /></g><g
         id="g1677"
         transform="translate(1278.3086,166.7798)"><path
           d="m 0,0 c 0,4.579 3.712,8.291 8.291,8.291 4.579,0 8.291,-3.712 8.291,-8.291 0,-4.58 -3.712,-8.292 -8.291,-8.292 C 3.712,-8.292 0,-4.58 0,0 Z"
           style="fill:none;stroke:#000000;stroke-width:0.709;stroke-linecap:round;stroke-linejoin:round;stroke-miterlimit:10;stroke-dasharray:none;stroke-opacity:1"
           id="path1679" /></g><g
         id="g1681"
         transform="translate(1278.3086,66.858)"><path
           d="m 0,0 c 0,4.579 3.712,8.292 8.291,8.292 4.579,0 8.291,-3.713 8.291,-8.292 0,-4.579 -3.712,-8.291 -8.291,-8.291 C 3.712,-8.291 0,-4.579 0,0"
           style="fill:#ffffff;fill-opacity:1;fill-rule:nonzero;stroke:none"
           id="path1683" /></g><g
         id="g1685"
         transform="translate(1278.3086,66.858)"><path
           d="m 0,0 c 0,4.579 3.712,8.292 8.291,8.292 4.579,0 8.291,-3.713 8.291,-8.292 0,-4.579 -3.712,-8.291 -8.291,-8.291 C 3.712,-8.291 0,-4.579 0,0 Z"
           style="fill:none;stroke:#000000;stroke-width:0.709;stroke-linecap:round;stroke-linejoin:round;stroke-miterlimit:10;stroke-dasharray:none;stroke-opacity:1"
           id="path1687" /></g><g
         id="g1689"
         transform="translate(1022.1982,66.858)"><path
           d="m 0,0 c 0,4.579 3.712,8.292 8.291,8.292 4.579,0 8.291,-3.713 8.291,-8.292 0,-4.579 -3.712,-8.291 -8.291,-8.291 C 3.712,-8.291 0,-4.579 0,0"
           style="fill:#ffffff;fill-opacity:1;fill-rule:nonzero;stroke:none"
           id="path1691" /></g><g
         id="g1693"
         transform="translate(1022.1982,66.858)"><path
           d="m 0,0 c 0,4.579 3.712,8.292 8.291,8.292 4.579,0 8.291,-3.713 8.291,-8.292 0,-4.579 -3.712,-8.291 -8.291,-8.291 C 3.712,-8.291 0,-4.579 0,0 Z"
           style="fill:none;stroke:#000000;stroke-width:0.709;stroke-linecap:round;stroke-linejoin:round;stroke-miterlimit:10;stroke-dasharray:none;stroke-opacity:1"
           id="path1695" /></g><g
         id="g1697"
         transform="translate(1022.1982,166.7798)"><path
           d="m 0,0 c 0,4.579 3.712,8.291 8.291,8.291 4.579,0 8.291,-3.712 8.291,-8.291 0,-4.58 -3.712,-8.292 -8.291,-8.292 C 3.712,-8.292 0,-4.58 0,0"
           style="fill:#ffffff;fill-opacity:1;fill-rule:nonzero;stroke:none"
           id="path1699" /></g><g
         id="g1701"
         transform="translate(1022.1982,166.7798)"><path
           d="m 0,0 c 0,4.579 3.712,8.291 8.291,8.291 4.579,0 8.291,-3.712 8.291,-8.291 0,-4.58 -3.712,-8.292 -8.291,-8.292 C 3.712,-8.292 0,-4.58 0,0 Z"
           style="fill:none;stroke:#000000;stroke-width:0.709;stroke-linecap:round;stroke-linejoin:round;stroke-miterlimit:10;stroke-dasharray:none;stroke-opacity:1"
           id="path1703" /></g><g
         id="g1649"
         transform="translate(1307.3506,61.5435)"><path
           d="m 0,0 c 0,-4.697 -3.808,-8.504 -8.504,-8.504 h -280.771 c -4.698,0 -8.504,3.807 -8.504,8.504 v 110.551 c 0,4.696 3.806,8.504 8.504,8.504 H -8.504 c 4.696,0 8.504,-3.808 8.504,-8.504 z"
           style="fill:none;stroke:#000000;stroke-width:0.709;stroke-linecap:round;stroke-linejoin:round;stroke-miterlimit:10;stroke-dasharray:none;stroke-opacity:1"
           id="path1651" /></g></g><g
       id="g3113"><g
         id="g1735"
         transform="translate(1801.4434,1016.8189)"><path
           d="M 0,0 V 14.173 H 14.173 V -10.63 H 28.347 V -25.512 H 14.173 V -73.701 H 28.347 V -88.583 H 14.173 v -24.803 h -42.52 v -14.173 h -57.862 v 14.173 h -57.862 v -14.173 h -85.039 v 14.173 h -57.863 v -14.173 h -57.862 v 14.173 h -42.519 v 24.803 h -14.173 v 14.882 h 14.173 v 48.189 h -14.173 v 14.882 h 14.173 v 24.803 h 42.519 v 14.173 h 57.862 V 14.173 h 57.863 v 14.173 h 85.039 V 14.173 h 57.862 v 14.173 h 57.862 V 14.173 h 14.174 V 0 c 0,-3.914 3.172,-7.087 7.086,-7.087 C -3.173,-7.087 0,-3.914 0,0 Z"
           style="fill:none;stroke:#000000;stroke-width:0.709;stroke-linecap:round;stroke-linejoin:round;stroke-miterlimit:10;stroke-dasharray:none;stroke-opacity:1"
           id="path1737" /></g><g
         id="g1751"
         transform="translate(1642.3252,932.0543)"><path
           d="M 0,0 C 0,1.252 1.016,2.268 2.268,2.268 3.521,2.268 4.535,1.252 4.535,0 4.535,-1.252 3.521,-2.268 2.268,-2.268 1.016,-2.268 0,-1.252 0,0"
           style="fill:#ffffff;fill-opacity:1;fill-rule:nonzero;stroke:none"
           id="path1753" /></g><g
         id="g1755"
         transform="translate(1642.3252,932.0543)"><path
           d="M 0,0 C 0,1.252 1.016,2.268 2.268,2.268 3.521,2.268 4.535,1.252 4.535,0 4.535,-1.252 3.521,-2.268 2.268,-2.268 1.016,-2.268 0,-1.252 0,0 Z"
           style="fill:none;stroke:#000000;stroke-width:0.709;stroke-linecap:round;stroke-linejoin:round;stroke-miterlimit:10;stroke-dasharray:none;stroke-opacity:1"
           id="path1757" /></g><g
         id="g1759"
         transform="translate(1582.7979,967.4874)"><path
           d="M 0,0 C 0,1.252 1.015,2.268 2.268,2.268 3.52,2.268 4.535,1.252 4.535,0 4.535,-1.252 3.52,-2.268 2.268,-2.268 1.015,-2.268 0,-1.252 0,0"
           style="fill:#ffffff;fill-opacity:1;fill-rule:nonzero;stroke:none"
           id="path1761" /></g><g
         id="g1763"
         transform="translate(1582.7979,967.4874)"><path
           d="M 0,0 C 0,1.252 1.015,2.268 2.268,2.268 3.52,2.268 4.535,1.252 4.535,0 4.535,-1.252 3.52,-2.268 2.268,-2.268 1.015,-2.268 0,-1.252 0,0 Z"
           style="fill:none;stroke:#000000;stroke-width:0.709;stroke-linecap:round;stroke-linejoin:round;stroke-miterlimit:10;stroke-dasharray:none;stroke-opacity:1"
           id="path1765" /></g><g
         id="g1767"
         transform="translate(1642.3252,967.4874)"><path
           d="M 0,0 C 0,1.252 1.016,2.268 2.268,2.268 3.521,2.268 4.535,1.252 4.535,0 4.535,-1.252 3.521,-2.268 2.268,-2.268 1.016,-2.268 0,-1.252 0,0"
           style="fill:#ffffff;fill-opacity:1;fill-rule:nonzero;stroke:none"
           id="path1769" /></g><g
         id="g1771"
         transform="translate(1642.3252,967.4874)"><path
           d="M 0,0 C 0,1.252 1.016,2.268 2.268,2.268 3.521,2.268 4.535,1.252 4.535,0 4.535,-1.252 3.521,-2.268 2.268,-2.268 1.016,-2.268 0,-1.252 0,0 Z"
           style="fill:none;stroke:#000000;stroke-width:0.709;stroke-linecap:round;stroke-linejoin:round;stroke-miterlimit:10;stroke-dasharray:none;stroke-opacity:1"
           id="path1773" /></g><g
         id="g1775"
         transform="translate(1582.7979,932.0543)"><path
           d="M 0,0 C 0,1.252 1.015,2.268 2.268,2.268 3.52,2.268 4.535,1.252 4.535,0 4.535,-1.252 3.52,-2.268 2.268,-2.268 1.015,-2.268 0,-1.252 0,0"
           style="fill:#ffffff;fill-opacity:1;fill-rule:nonzero;stroke:none"
           id="path1777" /></g><g
         id="g1779"
         transform="translate(1582.7979,932.0543)"><path
           d="M 0,0 C 0,1.252 1.015,2.268 2.268,2.268 3.52,2.268 4.535,1.252 4.535,0 4.535,-1.252 3.52,-2.268 2.268,-2.268 1.015,-2.268 0,-1.252 0,0 Z"
           style="fill:none;stroke:#000000;stroke-width:0.709;stroke-linecap:round;stroke-linejoin:round;stroke-miterlimit:10;stroke-dasharray:none;stroke-opacity:1"
           id="path1781" /></g><g
         id="g1783"
         transform="translate(1793.6221,985.1964)"><path
           d="m 0,0 c 2.684,-1.692 4.954,-3.962 6.646,-6.646 6.261,-9.932 3.287,-23.06 -6.646,-29.322 -9.932,-6.262 -23.06,-3.286 -29.322,6.646 -6.262,9.932 -3.287,23.06 6.645,29.322 V 11.78 H 0 Z"
           style="fill:#ffffff;fill-opacity:1;fill-rule:nonzero;stroke:none"
           id="path1785" /></g><g
         id="g1787"
         transform="translate(1793.6221,985.1964)"><path
           d="m 0,0 c 2.684,-1.692 4.954,-3.962 6.646,-6.646 6.261,-9.932 3.287,-23.06 -6.646,-29.322 -9.932,-6.262 -23.06,-3.286 -29.322,6.646 -6.262,9.932 -3.287,23.06 6.645,29.322 V 11.78 H 0 Z"
           style="fill:none;stroke:#000000;stroke-width:0.709;stroke-linecap:round;stroke-linejoin:round;stroke-miterlimit:10;stroke-dasharray:none;stroke-opacity:1"
           id="path1789" /></g><g
         id="g1791"
         transform="translate(1435.748,949.2286)"><path
           d="M 0,0 C -2.683,1.692 -4.953,3.962 -6.645,6.646 -12.907,16.578 -9.932,29.706 0,35.968 9.933,42.23 23.061,39.255 29.322,29.322 35.585,19.39 32.609,6.262 22.678,0 V -11.78 H 0 Z"
           style="fill:#ffffff;fill-opacity:1;fill-rule:nonzero;stroke:none"
           id="path1793" /></g><g
         id="g1795"
         transform="translate(1435.748,949.2286)"><path
           d="M 0,0 C -2.683,1.692 -4.953,3.962 -6.645,6.646 -12.907,16.578 -9.932,29.706 0,35.968 9.933,42.23 23.061,39.255 29.322,29.322 35.585,19.39 32.609,6.262 22.678,0 V -11.78 H 0 Z"
           style="fill:none;stroke:#000000;stroke-width:0.709;stroke-linecap:round;stroke-linejoin:round;stroke-miterlimit:10;stroke-dasharray:none;stroke-opacity:1"
           id="path1797" /></g><g
         id="g1799"
         transform="translate(1604.79,967.2125)"><path
           d="M 0,0 C 0,5.558 4.505,10.063 10.063,10.063 15.62,10.063 20.126,5.558 20.126,0 20.126,-5.558 15.62,-10.063 10.063,-10.063 4.505,-10.063 0,-5.558 0,0"
           style="fill:#ffffff;fill-opacity:1;fill-rule:nonzero;stroke:none"
           id="path1801" /></g><g
         id="g1803"
         transform="translate(1604.79,967.2125)"><path
           d="M 0,0 C 0,5.558 4.505,10.063 10.063,10.063 15.62,10.063 20.126,5.558 20.126,0 20.126,-5.558 15.62,-10.063 10.063,-10.063 4.505,-10.063 0,-5.558 0,0 Z"
           style="fill:none;stroke:#000000;stroke-width:0.709;stroke-linecap:round;stroke-linejoin:round;stroke-miterlimit:10;stroke-dasharray:none;stroke-opacity:1"
           id="path1805" /></g></g><g
       id="g3081"><g
         id="g1811"
         transform="translate(1787.2705,1201.0709)"><path
           d="M 0,0 V 14.173 H -14.174 V 28.346 H -72.036 V 14.173 h -57.862 v 14.173 h -85.039 V 14.173 H -272.8 v 14.173 h -57.862 V 14.173 h -42.52 V -10.63 h -14.172 v -14.882 h 14.172 v -48.189 h -14.172 v -14.882 h 14.172 v -24.803 h 42.52 v -14.173 h 57.862 v 14.173 h 57.863 v -14.173 h 85.039 v 14.173 h 57.862 v -14.173 h 57.862 v 14.173 h 42.52 v 24.803 H 42.52 v 14.882 H 28.346 v 48.189 H 42.52 V -10.63 H 28.346 V 14.173 H 14.173 V 0 C 14.173,-3.914 11,-7.087 7.086,-7.087 3.172,-7.087 0,-3.914 0,0 Z"
           style="fill:none;stroke:#000000;stroke-width:0.709;stroke-linecap:round;stroke-linejoin:round;stroke-miterlimit:10;stroke-dasharray:none;stroke-opacity:1"
           id="path1813" /></g></g><g
       id="g1819"><g
         id="g1821"
         clip-path="url(#clipPath1825)"><g
           id="g1827"
           transform="translate(1458.4258,1121.7008)"><path
             d="m 0,0 h -22.678 v 11.78 c -9.931,6.262 -12.907,19.39 -6.644,29.322 C -23.061,51.035 -9.933,54.01 0,47.748 9.932,41.485 12.907,28.357 6.645,18.425 4.953,15.742 2.683,13.472 0,11.78 Z"
             style="fill:#ffffff;fill-opacity:1;fill-rule:nonzero;stroke:none"
             id="path1829" /></g><g
           id="g1831"
           transform="translate(1458.4258,1121.7008)"><path
             d="m 0,0 h -22.678 v 11.78 c -9.931,6.262 -12.907,19.39 -6.644,29.322 C -23.061,51.035 -9.933,54.01 0,47.748 9.932,41.485 12.907,28.357 6.645,18.425 4.953,15.742 2.683,13.472 0,11.78 Z"
             style="fill:none;stroke:#000000;stroke-width:0.709;stroke-linecap:round;stroke-linejoin:round;stroke-miterlimit:10;stroke-dasharray:none;stroke-opacity:1"
             id="path1833" /></g><g
           id="g1835"
           transform="translate(1631.1924,1151.4645)"><path
             d="m 0,0 c 0,9.024 -7.315,16.34 -16.34,16.34 -9.024,0 -16.34,-7.316 -16.34,-16.34 0,-9.024 7.316,-16.34 16.34,-16.34 C -7.315,-16.34 0,-9.024 0,0"
             style="fill:#ffffff;fill-opacity:1;fill-rule:nonzero;stroke:none"
             id="path1837" /></g><g
           id="g1839"
           transform="translate(1631.1924,1151.4645)"><path
             d="m 0,0 c 0,9.024 -7.315,16.34 -16.34,16.34 -9.024,0 -16.34,-7.316 -16.34,-16.34 0,-9.024 7.316,-16.34 16.34,-16.34 C -7.315,-16.34 0,-9.024 0,0 Z"
             style="fill:none;stroke:#000000;stroke-width:0.709;stroke-linecap:round;stroke-linejoin:round;stroke-miterlimit:10;stroke-dasharray:none;stroke-opacity:1"
             id="path1841" /></g><g
           id="g1843"
           transform="translate(1770.9453,1181.2281)"><path
             d="m 0,0 h 22.677 v -11.78 c 9.932,-6.262 12.907,-19.39 6.645,-29.322 C 23.061,-51.034 9.932,-54.01 0,-47.748 c -9.933,6.263 -12.907,19.391 -6.646,29.323 1.692,2.683 3.962,4.953 6.646,6.645 z"
             style="fill:#ffffff;fill-opacity:1;fill-rule:nonzero;stroke:none"
             id="path1845" /></g><g
           id="g1847"
           transform="translate(1770.9453,1181.2281)"><path
             d="m 0,0 h 22.677 v -11.78 c 9.932,-6.262 12.907,-19.39 6.645,-29.322 C 23.061,-51.034 9.932,-54.01 0,-47.748 c -9.933,6.263 -12.907,19.391 -6.646,29.323 1.692,2.683 3.962,4.953 6.646,6.645 z"
             style="fill:none;stroke:#000000;stroke-width:0.709;stroke-linecap:round;stroke-linejoin:round;stroke-miterlimit:10;stroke-dasharray:none;stroke-opacity:1"
             id="path1849" /></g><g
           id="g1851"
           transform="translate(1512.3516,368.5386)"><path
             d="M 0,0 H 141.732"
             style="fill:none;stroke:#231f20;stroke-width:4;stroke-linecap:butt;stroke-linejoin:miter;stroke-miterlimit:10;stroke-dasharray:none;stroke-opacity:1"
             id="path1853" /></g></g></g><text
       transform="matrix(1,0,0,-1,1539.6279,379.0234)"
       style="font-variant:normal;font-weight:normal;font-stretch:normal;font-size:30px;font-family:'Myriad Pro';-inkscape-font-specification:MyriadPro-Regular;writing-mode:lr-tb;fill:#231f20;fill-opacity:1;fill-rule:nonzero;stroke:none"
       id="text1857"><tspan
         x="0 15.39 30.780001 37.139999 62.16"
         y="0"
         sodipodi:role="line"
         id="tspan1855">50 mm</tspan></text></g></svg>
