<?xml version="1.0" encoding="UTF-8" standalone="no"?>
<svg
   version="1.1"
   viewBox="-5 -10 16 16"
   id="svg2"
   sodipodi:docname="fullscreen.svg"
   width="16"
   height="16"
   inkscape:version="1.4.3 (0d15f75042, 2025-12-25)"
   xmlns:inkscape="http://www.inkscape.org/namespaces/inkscape"
   xmlns:sodipodi="http://sodipodi.sourceforge.net/DTD/sodipodi-0.dtd"
   xmlns="http://www.w3.org/2000/svg"
   xmlns:svg="http://www.w3.org/2000/svg">
  <defs
     id="defs2" />
  <sodipodi:namedview
     id="namedview2"
     pagecolor="#ffffff"
     bordercolor="#000000"
     borderopacity="0.25"
     inkscape:showpageshadow="2"
     inkscape:pageopacity="0.0"
     inkscape:pagecheckerboard="true"
     inkscape:deskcolor="#d1d1d1"
     inkscape:zoom="16.150265"
     inkscape:cx="16.532236"
     inkscape:cy="1.3622068"
     inkscape:window-width="1920"
     inkscape:window-height="1011"
     inkscape:window-x="0"
     inkscape:window-y="0"
     inkscape:window-maximized="1"
     inkscape:current-layer="svg2">
    <sodipodi:guide
       position="0,16"
       orientation="0,16"
       id="guide1"
       inkscape:locked="false" />
    <sodipodi:guide
       position="16,16"
       orientation="16,0"
       id="guide2"
       inkscape:locked="false" />
    <sodipodi:guide
       position="16,0"
       orientation="0,-16"
       id="guide3"
       inkscape:locked="false" />
    <sodipodi:guide
       position="0,0"
       orientation="-16,0"
       id="guide4"
       inkscape:locked="false" />
  </sodipodi:namedview>
  <path
     d="m -4.4958143,-9.9990073 c -0.132027,0.00529 -0.2574167,0.060884 -0.350967,0.1541933 -0.079615,0.080736 -0.1313649,0.1846265 -0.1472877,0.2971339 -6.641e-4,0.00331 -6.641e-4,0.00728 -0.00133,0.011252 -6.641e-4,0.016545 -6.641e-4,0.033088 0,0.049632 0,0.00463 -6.641e-4,0.00927 -6.641e-4,0.013898 v 3.9065017 c 0,0.2898493 0.2355237,0.524131 0.5261278,0.524131 0.2905874,0 0.5261281,-0.2342648 0.5261281,-0.524131 V -8.204162 c 5.1775461,5.1776101 5.2167802,5.2174222 5.2167802,5.2174222 0.2056649,0.2044818 0.5387303,0.2044818 0.7437329,0 0.2056651,-0.2051425 0.2056651,-0.5367014 0,-0.741844 0,0 -0.037817,-0.039707 -5.2167802,-5.219455 h 2.63531049 c 0.29058743,0 0.52612801,-0.2349256 0.52612801,-0.5247918 -6.624e-4,-0.2898492 -0.23618607,-0.5247917 -0.52612801,-0.5247917 H -4.4273699 c -0.02123,-0.00132 -0.043126,-0.00132 -0.064357,0 z m 14.9921923,0 c -0.0219,-0.00132 -0.04378,-0.00132 -0.06502,0 H 6.5687519 c -0.2899248,0 -0.5254656,0.2349255 -0.5254656,0.5241309 0,0.2898493 0.2348614,0.5247917 0.5254656,0.5254524 H 9.204062 c -5.1795842,5.1796431 -5.2167801,5.2194553 -5.2167801,5.2194553 -0.2050026,0.2044819 -0.2050026,0.5367012 0,0.7418439 0.098855,0.098604 0.2328739,0.1541933 0.3728599,0.1541933 0.1399895,0 0.2746728,-0.055587 0.3735225,-0.1541933 0,0 0.037818,-0.039707 5.2147421,-5.2174222 v 2.6377654 h -6.625e-4 c 6.625e-4,0.2891886 0.2361861,0.5241309 0.5261281,0.5241309 0.290588,0 0.525465,-0.2349253 0.526128,-0.5241309 v -3.90701 c 0,-0.00331 -6.63e-4,-0.00728 -6.63e-4,-0.011251 6.63e-4,-0.017868 6.63e-4,-0.035074 0,-0.052942 v -0.017205 c -0.0027,-0.018531 -0.0067,-0.037059 -0.01127,-0.05559 h -6.62e-4 c -0.02388,-0.088016 -0.07032,-0.168751 -0.134681,-0.2336042 -0.09355,-0.093309 -0.218284,-0.148899 -0.350304,-0.1541932 z m -8.8558729,8.8320249 c -0.1399894,0 -0.2746728,0.055587 -0.3728601,0.1548541 0,0 -0.037817,0.0383824 -5.2147419,5.2147117 V 1.569392 1.5700527 c 0,-0.1396339 -0.055731,-0.2733145 -0.154586,-0.3719131 -0.098191,-0.097941 -0.2322117,-0.1535308 -0.3721976,-0.1535308 -0.1393254,0 -0.2733481,0.055588 -0.3721977,0.1541932 C -4.9442705,1.2967448 -5,1.4304239 -5,1.5700542 v 3.9058245 c 6.641e-4,0.00529 6.641e-4,0.010587 0.00133,0.015883 -6.642e-4,0.013236 -6.642e-4,0.026471 0,0.039707 0.00331,0.011912 0.00729,0.023162 0.01128,0.035074 0.00332,0.011251 0.00729,0.0225 0.01128,0.033751 0.00398,0.016545 0.00929,0.032427 0.014596,0.047647 v 0.015883 c 0.078289,0.2024997 0.2726858,0.3361835 0.4902907,0.3361835 h 3.90439022 c 0.13998949,0 0.27334807,-0.054926 0.37219776,-0.1535307 0.0988547,-0.098604 0.15458581,-0.2322827 0.15458581,-0.3712525 0,-0.1396338 -0.05506708,-0.2733144 -0.1539218,-0.371913 C -0.29282811,5.004046 -0.42684738,4.948458 -0.56683344,4.948458 H -3.2040162 c 5.1816223,-5.18235361 5.2193278,-5.22199635 5.2193278,-5.22199635 0.2050026,-0.20448191 0.2050026,-0.5367014 0,-0.74118325 -0.098855,-0.099267 -0.232874,-0.1548553 -0.37286,-0.1548553 z m 2.7209123,0 h -6.625e-4 c -0.1393252,0 -0.273348,0.054927 -0.3721976,0.1535308 h 6.624e-4 c -0.2050025,0.2051428 -0.2050025,0.53670165 0,0.74184419 0,0 0.037818,0.0397072 5.2167803,5.21945521 H 6.5706894 c -0.1399895,0 -0.2740106,0.055588 -0.3721977,0.1548539 -0.098855,0.098604 -0.1539218,0.2322827 -0.1532577,0.3719131 0,0.2898493 0.2348612,0.5247917 0.5254656,0.5247917 h 3.9050694 c 0.04644,-6.607e-4 0.09222,-0.00662 0.136673,-0.019191 0.04445,-0.011912 0.08758,-0.029119 0.127383,-0.052279 0.03981,-0.023162 0.0763,-0.050956 0.108807,-0.084045 0.01724,-0.016544 0.03251,-0.034411 0.0471,-0.052942 0.01194,-0.016545 0.02388,-0.034411 0.03384,-0.052279 0.0059,-0.010588 0.01127,-0.021176 0.01592,-0.031765 0.0059,-0.011252 0.01127,-0.0225 0.01592,-0.033752 0.004,-0.00927 0.008,-0.019191 0.01127,-0.028456 0.0046,-0.011912 0.008,-0.023823 0.01127,-0.036396 0.0046,-0.013897 0.0086,-0.027794 0.01127,-0.041691 6.61e-4,-0.00859 6.61e-4,-0.016545 0,-0.025149 0.0013,-0.017205 0.0013,-0.035073 0,-0.052279 6.61e-4,-0.00397 6.61e-4,-0.00728 6.61e-4,-0.011251 V 1.5714318 c 0,-0.2898493 -0.23486,-0.5247917 -0.525464,-0.5247917 -0.139325,0 -0.273349,0.054927 -0.372199,0.1535308 C 9.999409,1.2987749 9.944337,1.4324536 9.944337,1.5714233 V 4.2059699 C 4.7674685,-0.97113192 4.7295931,-1.008064 4.7295931,-1.008064 4.6307385,-1.1060053 4.4973814,-1.1615949 4.3573954,-1.1615949 Z"
     id="path1"
     style="fill:#ffffff;stroke-width:0.16963" />
</svg>
